<svg width="20" height="21" viewBox="0 0 20 21" fill="none" xmlns="http://www.w3.org/2000/svg">
<path fill-rule="evenodd" clip-rule="evenodd" d="M18.3225 0C18.9395 0 19.5107 0.328924 19.8 0.863619C20.0773 1.37578 20.0655 1.97931 19.7693 2.4803L19.7592 2.49709L17.1629 6.77565C16.8693 7.25943 16.3393 7.56143 15.7727 7.56789L15.7542 7.56796H12.7894L14.0217 10.3471L14.0266 10.3553L14.0342 10.3684C14.3244 10.885 14.3173 11.4994 14.0164 12.0084L14.0063 12.0254L11.4099 16.3038C11.1163 16.7877 10.5863 17.0896 10.0198 17.0961L10.0013 17.0962L6.36232 17.0961L3.74634 19.8143L3.74139 19.8193C3.49522 20.0658 3.16261 20.2033 2.81584 20.2033C2.72915 20.2033 2.6424 20.1947 2.55659 20.1775C2.13358 20.0924 1.78213 19.8064 1.61295 19.4121L1.60818 19.4008L0.231508 16.2876L0.224267 16.2757L0.216746 16.2629C0.215497 16.2606 0.214227 16.2584 0.212899 16.256C-0.0773065 15.7394 -0.0702804 15.1251 0.23064 14.616L0.24078 14.5991L2.75895 10.4493L0.903437 6.26466L0.93744 6.24758L0.936924 6.24507C0.858417 5.86018 0.921616 5.45879 1.12325 5.1072L1.13438 5.08804L1.14468 5.07089L3.74102 0.792297C4.03466 0.308521 4.56469 0.00654518 5.13115 0H5.14967H18.3225ZM4.68964 17.0636H1.93104L2.74127 18.91L2.74326 18.9149C2.75669 18.948 2.77842 18.966 2.81075 18.9726C2.8396 18.9785 2.86294 18.9724 2.885 18.9526L2.88887 18.9489L4.68964 17.0636ZM12.5757 10.716H4.23704C4.22783 10.716 4.21862 10.7162 4.20943 10.7169L4.2069 10.717L6.49329 15.8691H10.0008C10.145 15.8691 10.284 15.7931 10.3629 15.671L10.3692 15.661L12.9693 11.3798C13.0469 11.2521 13.0554 11.1039 12.994 10.9706C12.9231 10.8169 12.7586 10.716 12.5757 10.716ZM3.37023 11.7739L1.30662 15.2003C1.2245 15.3367 1.21974 15.4964 1.29328 15.637L1.30108 15.6513L1.30523 15.6582L1.31356 15.6716L1.33007 15.6958L1.34849 15.7194L1.36611 15.7392L1.36917 15.7425L1.38109 15.7544L1.39145 15.7641C1.45636 15.8221 1.5366 15.8576 1.62511 15.8666L1.64499 15.8683L1.65651 15.8689L1.67109 15.8691H5.17242L3.37023 11.7739ZM2.82759 7.57621L3.7339 9.62388L3.75156 9.61792C3.90808 9.56632 4.07172 9.5384 4.23715 9.53582L4.26198 9.53567L12.3448 9.5356L11.4776 7.57628L2.82759 7.57621ZM18.2994 1.19445H9.93102L12.2181 6.3477H15.7244C15.8689 6.3477 16.0079 6.27155 16.0869 6.1494L16.0932 6.13936L18.6935 1.85829C18.771 1.73061 18.7796 1.58256 18.7181 1.44933C18.6487 1.29874 18.4896 1.19877 18.3111 1.19459L18.2994 1.19445ZM8.64997 1.19445H5.16309C5.01969 1.19445 4.8814 1.27036 4.80267 1.39237L4.79643 1.40236L2.20303 5.68349C2.12561 5.81131 2.11704 5.95972 2.17844 6.09321C2.2476 6.24371 2.40591 6.34332 2.58328 6.34755L2.59488 6.3477H10.931L8.64997 1.19445Z" fill="black"/>
</svg>
