<svg width="32" height="32" viewBox="0 0 32 32" fill="none" xmlns="http://www.w3.org/2000/svg">
<g clip-path="url(#clip0_2089_114)">
<path d="M12.28 9.27903C12.401 9.11327 12.5095 8.93627 12.6455 8.78385C13.0696 8.30842 13.4861 7.82367 13.9422 7.38018C14.1815 7.14749 14.4946 6.98935 14.7813 6.80836C14.8227 6.78221 14.906 6.80625 14.9638 6.82547C15.102 6.87143 15.2275 6.90929 15.3428 6.76875C15.42 6.67472 15.5111 6.68967 15.6004 6.77707C15.6778 6.85274 15.7632 6.96621 15.8883 6.86837C16.0167 6.76797 15.9896 6.6453 15.9169 6.51204C15.828 6.3491 15.7456 6.17898 15.6909 6.00251C15.6651 5.91923 15.7103 5.81392 15.7424 5.70993C15.8138 5.7612 15.866 5.82113 15.9169 5.88729C15.9156 5.89352 15.9194 5.90567 15.9182 5.92081C16.1461 6.29207 16.3752 6.64819 16.608 7.01978C16.7088 7.2226 16.8053 7.41033 16.9034 7.59722C17.0577 7.89117 17.213 8.18456 17.3659 8.4762C17.3638 8.47422 17.3598 8.47826 17.3609 8.4804C17.362 8.48254 17.3632 8.48078 17.3745 8.4878C17.3911 8.5021 17.3962 8.50939 17.4005 8.52873C17.4623 8.67828 17.5183 8.81932 17.5889 8.95267C17.8868 9.51568 18.2089 10.0669 18.4843 10.6406C18.7739 11.2438 19.0203 11.8677 19.2687 12.4831C19.0014 12.5628 18.739 12.6166 18.5036 12.7277C18.2114 12.8654 17.9415 13.0504 17.6621 13.2152C17.5599 13.2755 17.4581 13.3365 17.3458 13.4014C17.3172 13.4179 17.2989 13.4302 17.2666 13.4448C17.1381 13.5226 17.0237 13.5981 16.8964 13.6791C16.7631 13.7284 16.6427 13.7724 16.5105 13.8152C16.4771 13.835 16.4555 13.856 16.422 13.8828C16.2717 13.9889 16.1393 14.0989 15.9937 14.1872C15.7333 14.345 15.465 14.4897 15.1859 14.6426C14.7973 14.859 14.4215 15.0703 14.049 15.2873C13.8821 15.3844 13.7218 15.4929 13.5472 15.5993C13.5173 15.6161 13.4986 15.6299 13.4662 15.6468C13.2881 15.7389 13.1239 15.8278 12.9465 15.919C12.902 15.9383 12.8707 15.9555 12.8268 15.9774C12.661 16.0892 12.5079 16.1964 12.342 16.3059C12.3129 16.314 12.2966 16.3197 12.2663 16.3283C11.9742 16.4698 11.6918 16.6006 11.4192 16.7495C11.1538 16.8944 10.8996 17.0601 10.6376 17.2115C10.586 17.2413 10.5209 17.2477 10.4168 17.2781C10.4376 17.1329 10.4473 17.0306 10.4675 16.9305C10.5141 16.7003 10.5658 16.471 10.6224 16.2311C10.6325 16.2132 10.6357 16.2056 10.6512 16.1903C10.6956 16.0017 10.7278 15.8209 10.7629 15.6299C10.7661 15.6057 10.7663 15.5917 10.7806 15.5721C10.9686 15.4846 10.908 15.3339 10.9068 15.1828C10.9149 15.0977 10.9187 15.0293 10.9305 14.9491C10.9667 14.8248 10.995 14.7123 11.0276 14.5835C11.034 14.511 11.036 14.4549 11.0461 14.3865C11.2009 13.9245 11.3968 13.488 11.4185 13.0043C11.4211 12.9473 11.4562 12.8923 11.4732 12.8355C11.585 12.4634 11.696 12.091 11.8134 11.7099C11.8262 11.6806 11.8329 11.6602 11.8406 11.6231C11.8544 11.4976 11.867 11.3887 11.8874 11.2678C12.0337 10.8002 12.1822 10.3475 12.3063 9.88819C12.3598 9.69031 12.4337 9.47522 12.28 9.27903Z" fill="#020202"/>
<path d="M10.6155 16.2414C10.5658 16.471 10.5141 16.7003 10.4675 16.9305C10.4473 17.0306 10.4376 17.1329 10.4168 17.2781C10.5209 17.2477 10.586 17.2413 10.6376 17.2115C10.8997 17.0601 11.1538 16.8944 11.4192 16.7495C11.6918 16.6006 11.9742 16.4698 12.2705 16.3363C12.3107 16.3288 12.3327 16.3162 12.3548 16.3035C12.5079 16.1964 12.6611 16.0892 12.8246 15.9892C12.8062 16.0447 12.7775 16.0931 12.7329 16.168C12.9507 16.1782 12.9618 16.0532 12.9598 15.9168C13.124 15.8278 13.2882 15.7389 13.4654 15.6606C13.4508 15.7395 13.4232 15.8076 13.3922 15.8844C13.5562 15.8579 13.5562 15.8579 13.5585 15.5962C13.7218 15.4929 13.8821 15.3844 14.049 15.2873C14.4215 15.0703 14.7973 14.859 15.1889 14.6535C15.2173 14.6813 15.2285 14.7009 15.2359 14.7336C15.1166 14.8843 15.0009 15.0219 14.89 15.154C15.0814 15.2218 15.2332 15.0323 15.3647 14.9296C15.6678 14.6932 15.9664 14.4794 16.3615 14.4517C16.3814 14.4838 16.3998 14.5043 16.4182 14.5248C16.4388 14.4966 16.4594 14.4683 16.4965 14.4394C16.7422 14.357 16.9714 14.2752 17.17 14.2044C17.1998 14.1056 17.2185 14.0433 17.2373 13.9811C17.2732 13.9929 17.3358 13.9987 17.3401 14.0177C17.3549 14.0825 17.3676 14.1582 17.3476 14.2186C17.2868 14.402 17.1662 14.5226 16.9746 14.5444C16.9091 14.6387 16.8255 14.7092 16.7432 14.7811C16.6503 14.8625 16.5604 14.9474 16.4655 15.0264C16.4215 15.063 16.3688 15.0891 16.3187 15.1071C16.2981 15.0591 16.2788 15.024 16.2594 14.989C16.2424 15.0029 16.2253 15.0169 16.2083 15.0309C16.2455 15.0606 16.2828 15.0903 16.3152 15.1336C16.2945 15.168 16.2805 15.205 16.2624 15.2071C16.0181 15.2351 15.8707 15.3787 15.7769 15.5953C15.7629 15.6278 15.7167 15.645 15.691 15.6742C15.6414 15.7304 15.5742 15.7834 15.5534 15.85C15.5183 15.9623 15.4633 16.0177 15.3492 16.0629C15.2072 16.1191 14.9874 16.1677 15.1338 16.4204C15.148 16.4449 15.1154 16.5119 15.0869 16.543C14.9493 16.693 14.8008 16.8197 14.5703 16.7606C14.5278 16.7497 14.4746 16.7809 14.3961 16.8C14.4807 16.8728 14.5309 16.916 14.5871 16.9644C14.5556 16.9915 14.536 17.0176 14.5275 17.0143C14.2958 16.9269 14.1919 17.1068 14.0476 17.2252C13.9297 17.322 13.8623 17.5515 13.6325 17.4313C13.4015 17.6083 13.1115 17.7458 12.9578 17.9747C12.8317 18.1627 12.7751 18.3533 12.5089 18.3476C12.478 18.347 12.4321 18.3779 12.4173 18.4066C12.2646 18.7027 11.9826 18.8197 11.6968 18.9264C11.5581 18.9782 11.4417 19.0257 11.4313 19.204C11.4278 19.2638 11.3611 19.3666 11.3181 19.3695C11.109 19.3833 11.0332 19.5356 10.9596 19.6873C10.7172 19.5938 10.6103 19.6442 10.4564 19.8767C10.1644 19.9721 9.91821 20.0518 9.67292 20.1343C9.65809 20.1393 9.65103 20.1663 9.63957 20.1825C9.50214 20.3766 9.51486 20.4756 9.67771 20.6523C9.80584 20.7914 9.92219 20.9413 10.0438 21.0864C10.0348 21.1061 10.0259 21.1259 10.0017 21.1482C9.97708 21.167 9.96774 21.1831 9.9584 21.1992C9.88306 21.2864 9.80771 21.3736 9.73237 21.4608C9.71452 21.2329 9.54828 21.1964 9.40605 21.1118C9.1677 20.9701 8.95132 20.7915 8.72584 20.6061C8.76368 20.427 8.64431 20.4534 8.55868 20.4405C8.32159 20.2622 8.08035 20.0891 7.8493 19.9033C7.74637 19.8205 7.73494 19.7131 7.79773 19.5812C7.85261 19.4659 7.86234 19.3293 7.89279 19.2022C7.91271 19.1192 7.93357 19.0363 7.9548 18.9536C7.98886 18.8208 8.02205 18.6878 8.05836 18.5557C8.12275 18.3214 8.18311 18.0857 8.25658 17.8543C8.32223 17.6475 8.41346 17.4485 8.47376 17.2404C8.51031 17.1142 8.50489 16.9764 8.52701 16.8453C8.54331 16.7487 8.54212 16.6171 8.60317 16.5656C8.88825 16.325 8.86936 15.9502 9.03143 15.6555C9.21285 15.3257 9.3354 14.9635 9.50158 14.6034C9.5217 14.5677 9.5238 14.544 9.5259 14.5202C9.65059 14.2198 9.77528 13.9194 9.91751 13.6161C10.0234 13.5955 10.1117 13.5778 10.1979 13.574C10.1388 13.6681 10.0766 13.7452 10.0257 13.8292C9.90814 14.0233 9.79607 14.2208 9.67444 14.4295C9.77214 14.4686 9.83004 14.4918 9.87467 14.5097C9.87467 14.5796 9.85859 14.6383 9.87745 14.6819C9.95927 14.8709 9.93134 15.0523 9.87752 15.2422C9.85579 15.3188 9.88504 15.4112 9.89656 15.4957C9.92172 15.6804 10.0375 15.7651 10.2151 15.7943C10.2725 15.8038 10.3231 15.8546 10.4278 15.9168C10.173 15.9462 10.0933 16.0596 10.1053 16.2095C10.2955 16.2214 10.4555 16.2314 10.6155 16.2414ZM9.47877 14.9257C9.43194 15.0413 9.23541 15.1378 9.46514 15.3333C9.47906 15.1663 9.48946 15.0415 9.47877 14.9257ZM13.9427 15.5507C13.9466 15.5458 13.9521 15.5415 13.9539 15.5359C13.9556 15.5306 13.9536 15.524 13.9532 15.518C13.9178 15.5247 13.8824 15.5314 13.847 15.5381C13.8497 15.551 13.8525 15.5639 13.8552 15.5769C13.879 15.5713 13.9028 15.5657 13.9427 15.5507ZM14.2385 15.366C14.2497 15.3696 14.2609 15.3733 14.2722 15.377C14.2726 15.3659 14.273 15.3547 14.2734 15.3436C14.262 15.3467 14.2505 15.3498 14.2385 15.366ZM9.60687 14.719C9.59776 14.7259 9.58865 14.7327 9.57955 14.7395C9.58826 14.7469 9.59697 14.7543 9.60567 14.7618C9.60934 14.7505 9.61301 14.7393 9.60687 14.719ZM13.1574 16.0303C13.1626 16.0305 13.16 16.0304 13.1574 16.0303Z" fill="#48494A"/>
<path d="M21.279 16.8983C21.2257 16.788 21.1724 16.6778 21.1224 16.5395C20.959 16.1139 20.7924 15.7164 20.6288 15.3035C20.6324 15.2464 20.633 15.2046 20.6346 15.1479C20.5889 15.0503 20.542 14.9678 20.4913 14.8704C20.4862 14.8352 20.4849 14.8148 20.4883 14.7843C20.4525 14.7042 20.4119 14.6342 20.3643 14.5515C20.3427 14.4835 20.3281 14.4281 20.3118 14.3612C20.2917 14.3278 20.2732 14.306 20.2469 14.2721C20.2246 14.2146 20.2102 14.1691 20.1955 14.1079C20.156 13.9733 20.1243 13.8512 20.0758 13.7362C20.0065 13.5718 19.8932 13.4199 19.8545 13.2499C19.7292 12.6995 19.4738 12.2171 19.1362 11.7534C19.1238 11.7293 19.1193 11.7195 19.1123 11.7014C19.0944 11.6779 19.0788 11.6626 19.0573 11.6319C19.0455 11.5952 19.0395 11.5741 19.0322 11.545C19.0195 11.5212 19.0081 11.5052 18.9912 11.4776C18.8347 11.1469 18.6837 10.8277 18.5355 10.4996C18.5151 10.4491 18.4917 10.4075 18.4572 10.3542C18.4305 10.3141 18.415 10.2858 18.3992 10.2469C18.3826 10.2007 18.3663 10.1651 18.3409 10.1141C18.3262 10.0883 18.3206 10.0778 18.3123 10.0593C18.2938 10.0372 18.2781 10.023 18.2552 10.0013C18.244 9.98811 18.2398 9.98257 18.2362 9.96533C18.2088 9.89615 18.1807 9.83867 18.1414 9.76948C18.1009 9.70291 18.0715 9.64805 18.0462 9.58707C18.0402 9.56276 18.0301 9.54457 18.0134 9.5129C17.8581 9.21456 17.7131 8.92759 17.5574 8.64662C17.5268 8.59142 17.4544 8.55938 17.4013 8.51667C17.3962 8.50938 17.3911 8.5021 17.3756 8.48854C17.3652 8.48227 17.3598 8.47825 17.3598 8.47825C17.3598 8.47825 17.3638 8.47421 17.3701 8.4634C17.365 8.39241 17.3654 8.32686 17.3405 8.2729C17.1884 7.94233 17.0305 7.61438 16.8876 7.28931C17.017 7.47413 17.141 7.6508 17.2482 7.83713C17.5351 8.33573 17.8182 8.83657 18.0955 9.34059C18.1939 9.5195 18.2649 9.71328 18.3592 9.89467C18.4849 10.1364 18.6341 10.3665 18.7497 10.6126C18.9246 10.985 19.0583 11.378 19.252 11.7395C19.3382 11.9004 19.526 12.0082 19.6736 12.1331C19.6928 12.1493 19.7492 12.1131 19.7854 12.119C19.8828 12.1348 19.9823 12.1506 20.0737 12.1854C20.1281 12.206 20.1689 12.2625 20.2614 12.342C20.2778 12.1583 20.3172 12.025 20.2958 11.9022C20.2175 11.4514 20.1155 11.0047 20.0297 10.5551C19.9936 10.3658 19.9761 10.1787 19.8315 10.0239C19.7783 9.96688 19.7803 9.85041 19.7732 9.75979C19.7594 9.58463 19.7592 9.40843 19.7479 9.23301C19.746 9.20432 19.7228 9.16226 19.6986 9.15197C19.3713 9.01287 19.4157 8.70985 19.4172 8.45294C19.4192 8.11818 19.3466 7.83138 19.1232 7.57526C19.0361 7.47537 18.9281 7.31918 18.9507 7.21477C18.9891 7.03687 18.9279 6.90273 18.8775 6.75618C18.8061 6.54866 18.7174 6.34684 18.6512 6.1378C18.4932 5.63873 18.3646 5.12846 18.0465 4.69651C18.024 4.66591 18.0131 4.62419 18.005 4.5859C17.9324 4.24139 17.3819 3.95172 17.0739 4.13354C16.7401 4.33061 16.4592 4.60471 16.3457 4.99552C16.3001 5.15273 16.228 5.26485 16.0928 5.35888C15.9925 5.42868 15.9229 5.54264 15.8272 5.6332C15.7599 5.60316 15.7049 5.57684 15.65 5.55052C15.65 5.55052 15.6424 5.53995 15.6533 5.52827C15.6827 5.50399 15.7013 5.4914 15.732 5.47221C15.7565 5.40481 15.768 5.34379 15.7817 5.28328C15.7973 5.21436 15.7953 5.13043 15.8351 5.07993C15.9985 4.87244 16.166 4.6665 16.349 4.47648C16.5518 4.26606 16.7658 4.06472 16.9907 3.8784C17.0658 3.81619 17.1925 3.77951 17.29 3.78897C17.4804 3.80746 17.635 3.80552 17.7065 3.58841C17.7211 3.54403 17.7744 3.51235 17.8181 3.48642C17.8885 3.64356 17.9556 3.78718 18.0118 3.93495C18.39 4.92977 18.7664 5.92525 19.1421 6.921C19.2736 7.26943 19.4018 7.6191 19.5309 7.96841C19.6524 8.29701 19.7731 8.62589 19.8866 8.96465C19.9035 9.03639 19.9278 9.09814 19.9561 9.16693C19.9602 9.17396 19.963 9.18993 19.9662 9.20266C19.9849 9.23609 20.0003 9.2568 20.0203 9.2873C20.0282 9.31837 20.0315 9.33965 20.0292 9.37261C20.0696 9.48188 20.1156 9.57948 20.1625 9.67748C20.1633 9.67789 20.1624 9.67953 20.1646 9.68497C20.1701 9.69747 20.1742 9.704 20.1845 9.72677C20.2745 10.0507 20.3594 10.3578 20.446 10.6786C20.4833 10.8463 20.5117 11.0022 20.5552 11.1537C20.7133 11.7053 20.8764 12.2554 21.0422 12.8216C21.124 12.7875 21.1656 12.7702 21.2146 12.7661C21.3288 13.1202 21.4354 13.461 21.5443 13.8181C21.7407 14.3996 21.9349 14.9646 22.1283 15.5349C22.1276 15.5401 22.1326 15.5495 22.1339 15.5614C22.1455 15.5947 22.1557 15.616 22.166 15.6543C22.2909 16.1319 22.4148 16.5929 22.5407 17.0533C22.631 17.3831 22.724 17.7123 22.8019 18.0359C22.7147 17.8917 22.6368 17.7555 22.5692 17.6143C22.4385 17.341 22.3156 17.0638 22.185 16.7904C22.1432 16.703 22.0873 16.6224 22.0134 16.4974C21.8605 16.9048 21.9889 17.2395 22.0442 17.5694C22.0976 17.888 22.2144 18.1957 22.2937 18.5106C22.3137 18.5901 22.2967 18.6789 22.2967 18.7439C22.1881 18.7247 22.1082 18.7106 22.0195 18.6851C21.9382 18.5271 21.8658 18.3805 21.7995 18.2237C21.6815 17.8653 21.5609 17.5157 21.4308 17.1697C21.3947 17.0738 21.3304 16.9885 21.279 16.8983ZM20.4749 12.9284C20.4794 12.926 20.4839 12.9235 20.4885 12.9211C20.4851 12.9173 20.4818 12.9136 20.4785 12.9098C20.4756 12.9141 20.4727 12.9184 20.4749 12.9284Z" fill="#EF0907"/>
<path d="M12.5596 5.03629C12.5596 5.03629 12.5735 5.02795 12.5926 5.03719C12.6458 5.06631 12.6807 5.08496 12.7139 5.10624C12.9002 5.22572 13.0698 5.36246 13.3287 5.28607C13.4048 5.26361 13.5264 5.39526 13.6156 5.4644C13.3618 5.63466 13.1195 5.79681 12.8602 5.9591C12.6839 5.94768 12.5527 5.98728 12.4267 6.10259C12.2515 6.26293 12.0493 6.39365 11.8589 6.53742C11.6208 6.71724 11.3681 6.88113 11.1485 7.08139C10.8349 7.36751 10.546 7.68069 10.2458 7.98167C10.0866 8.14134 9.91607 8.29106 9.76927 8.46135C9.65866 8.58966 9.44831 8.6584 9.47676 8.89734C9.22564 9.12752 9.04653 9.42823 8.69525 9.51359C8.66545 9.52083 8.64334 9.59129 8.63248 9.63598C8.62185 9.67976 8.63017 9.72815 8.63017 9.77452C8.61087 9.7858 8.59156 9.79708 8.57226 9.80836C8.49632 9.72019 8.42037 9.63203 8.34442 9.54386C8.24112 9.30119 8.1499 9.0524 8.03088 8.8177C7.92667 8.61222 7.78837 8.42428 7.67038 8.22547C7.55287 8.02747 7.58652 7.8747 7.7745 7.75717C8.19033 7.49718 8.60998 7.2433 9.02521 6.98236C9.36173 6.77089 9.68536 6.5374 10.0306 6.3417C10.4105 6.12636 10.809 5.94403 11.1985 5.74545C11.4533 5.61552 11.7064 5.48226 11.9863 5.35621C12.259 5.38742 12.5213 5.23134 12.5596 5.03629Z" fill="#434143"/>
<path d="M16.36 14.44C15.9664 14.4794 15.6678 14.6931 15.3647 14.9296C15.2332 15.0323 15.0814 15.2218 14.89 15.1539C15.0009 15.0219 15.1166 14.8843 15.2517 14.7333C15.385 14.6618 15.4955 14.596 15.6131 14.5474C15.8244 14.4602 16.0479 14.3995 16.2512 14.2975C16.4263 14.2095 16.5702 14.0587 16.746 13.9729C17.0304 13.8341 17.3266 13.7176 17.6237 13.6076C17.8322 13.5305 18.0478 13.4659 18.2655 13.4225C18.3946 13.3967 18.5007 13.4585 18.4291 13.6195C18.3801 13.7298 18.3046 13.828 18.2507 13.9365C18.2215 13.9954 18.2085 14.0637 18.1963 14.1292C18.1806 14.2135 18.1924 14.3079 18.1588 14.3829C18.0241 14.6837 17.8359 14.9314 17.4765 14.9811C17.454 14.9842 17.4341 15.0109 17.4141 15.028C17.3241 15.1046 17.2329 15.1798 17.1453 15.259C17.001 15.3898 16.8592 15.5233 16.6842 15.6854C16.5474 15.6538 16.391 15.708 16.2815 15.8839C16.2602 15.9182 16.2042 15.9301 16.1659 15.955C16.068 16.0184 15.9642 16.0749 15.875 16.149C15.5312 16.4348 15.2918 16.8278 14.9167 17.0844C14.8693 17.1168 14.8644 17.2117 14.8399 17.2777C14.8097 17.3024 14.7794 17.3271 14.722 17.3572C14.4544 17.3793 14.2625 17.4831 14.0731 17.6368C13.7774 17.8771 13.4497 18.0778 13.138 18.2989C13.0528 18.3593 12.9572 18.4201 12.9037 18.5044C12.8728 18.553 12.9166 18.649 12.9268 18.7236C12.7456 18.9254 12.5677 19.1274 12.3017 19.2292C12.2131 19.2632 12.1399 19.3422 12.0653 19.4071C11.6446 19.7728 11.2297 20.1451 10.8046 20.5056C10.568 20.7063 10.3155 20.8884 10.057 21.0826C9.92218 20.9413 9.80584 20.7914 9.67771 20.6523C9.51486 20.4756 9.50214 20.3766 9.63957 20.1825C9.65103 20.1663 9.65809 20.1393 9.67292 20.1343C9.91821 20.0518 10.1644 19.9721 10.4564 19.8767C10.6103 19.6441 10.7172 19.5937 10.9596 19.6873C11.0332 19.5356 11.109 19.3833 11.3181 19.3694C11.3611 19.3666 11.4278 19.2638 11.4313 19.204C11.4417 19.0257 11.5581 18.9782 11.6968 18.9264C11.9825 18.8197 12.2646 18.7027 12.4172 18.4066C12.4321 18.3779 12.478 18.3469 12.5089 18.3476C12.7751 18.3533 12.8317 18.1627 12.9578 17.9747C13.1115 17.7458 13.4015 17.6083 13.6325 17.4313C13.8623 17.5515 13.9297 17.322 14.0476 17.2252C14.1919 17.1068 14.2958 16.9269 14.5275 17.0143C14.536 17.0175 14.5556 16.9915 14.5871 16.9644C14.5309 16.916 14.4807 16.8728 14.3961 16.8C14.4746 16.7808 14.5278 16.7497 14.5703 16.7606C14.8008 16.8197 14.9493 16.693 15.0869 16.543C15.1154 16.5119 15.148 16.4449 15.1338 16.4204C14.9874 16.1677 15.2072 16.119 15.3492 16.0629C15.4633 16.0177 15.5183 15.9623 15.5534 15.85C15.5742 15.7834 15.6414 15.7304 15.691 15.6742C15.7167 15.645 15.7629 15.6278 15.7769 15.5953C15.8707 15.3786 16.0181 15.2351 16.2624 15.2071C16.2805 15.205 16.2945 15.1679 16.3152 15.1336C16.3688 15.0891 16.4215 15.0629 16.4655 15.0263C16.5604 14.9474 16.6503 14.8625 16.7432 14.7811C16.8255 14.7091 16.9091 14.6387 16.9746 14.5444C17.1662 14.5226 17.2868 14.402 17.3476 14.2186C17.3676 14.1582 17.3549 14.0825 17.3401 14.0177C17.3358 13.9987 17.2732 13.9929 17.2373 13.9811C17.2185 14.0433 17.1998 14.1056 17.17 14.2043C16.9714 14.2752 16.7422 14.357 16.4965 14.4394C16.48 14.44 16.4799 14.4399 16.4759 14.4305C16.4345 14.4274 16.3973 14.4337 16.3601 14.44L16.36 14.44Z" fill="#454646"/>
<path d="M8.3354 9.555C8.42036 9.63203 8.49631 9.7202 8.57226 9.80836C8.59156 9.79708 8.61086 9.7858 8.63016 9.77453C8.63016 9.72816 8.62184 9.67977 8.63248 9.63598C8.64333 9.59129 8.66544 9.52083 8.69525 9.51359C9.04653 9.42824 9.22563 9.12752 9.48815 8.89026C10.1121 8.24532 10.7574 7.6632 11.4447 7.12731C11.5808 7.02115 11.705 6.89972 11.8392 6.79101C12.1838 6.51196 12.5311 6.2361 12.8772 5.95896C13.1195 5.79681 13.3618 5.63466 13.6277 5.4608C14.1705 5.06172 14.6898 4.67435 15.2081 4.28534C15.2073 4.28369 15.2036 4.28435 15.2141 4.28252C15.2441 4.26152 15.2636 4.24235 15.2951 4.21854C15.3254 4.19658 15.3437 4.17924 15.3608 4.16167C15.3596 4.16144 15.3616 4.16297 15.3756 4.16135C15.5595 4.04986 15.731 3.94236 15.8981 3.82843C15.9403 3.79972 15.9683 3.75042 16.0122 3.70444C16.0553 3.66937 16.0891 3.64044 16.1379 3.6094C16.179 3.60243 16.2094 3.60466 16.2303 3.59166C16.5661 3.38323 16.901 3.17346 17.2346 2.96174C17.2592 2.94616 17.2728 2.91335 17.2918 2.88826C17.2557 2.86892 17.2276 2.85381 17.1994 2.83871C17.33 2.82421 17.4606 2.80971 17.6009 2.79411C17.5671 2.93091 17.5437 3.02549 17.5163 3.1431C17.3314 3.27452 17.1532 3.38764 16.9682 3.48844C16.9122 3.51898 16.8375 3.51542 16.7664 3.52839C16.7293 3.58037 16.6807 3.6615 16.6193 3.73144C16.537 3.82512 16.4449 3.91014 16.3583 3.99907C16.3596 3.99925 16.3595 3.99665 16.3448 4.0032C16.2788 4.02881 16.2274 4.04786 16.1754 4.06714C16.1446 3.99263 16.1233 3.94118 16.102 3.88974C16.0899 3.8945 16.0778 3.89926 16.0658 3.90402C16.0931 3.96497 16.1203 4.02593 16.1307 4.10384C16.1049 4.13409 16.096 4.14739 16.0743 4.166C15.9324 4.24762 15.8065 4.37849 15.6734 4.38644C15.5059 4.39643 15.437 4.43962 15.4103 4.59471C15.4021 4.64281 15.358 4.68497 15.3296 4.72934C15.2308 4.88336 15.2449 5.02417 15.3638 5.16508C15.4428 5.25878 15.5056 5.36615 15.5757 5.4674C15.5137 5.45479 15.427 5.46348 15.3944 5.4256C15.2935 5.30877 15.1925 5.32798 15.0607 5.38108C14.9876 5.31693 14.942 5.24018 14.8749 5.20711C14.8162 5.17814 14.7129 5.16852 14.6645 5.20173C14.4411 5.35502 14.2249 5.52012 14.0166 5.69355C13.9047 5.78672 13.8102 5.87722 13.6463 5.81246C13.6105 5.7983 13.5362 5.8457 13.4966 5.88281C13.2594 6.10489 13.0271 6.33226 12.7805 6.56379C12.6971 6.60368 12.6138 6.62363 12.5575 6.67386C12.1949 6.99764 11.8382 7.32803 11.4738 7.65773C11.4605 7.66382 11.4565 7.67045 11.4514 7.68069C11.447 7.68226 11.4462 7.69152 11.4339 7.69676C11.3466 7.7672 11.2691 7.82964 11.1972 7.89805C10.6596 8.40979 10.1224 8.92202 9.58812 9.43719C9.56012 9.46418 9.55923 9.51929 9.53969 9.56327C9.52605 9.57047 9.52228 9.57771 9.51008 9.59417C9.20307 9.88992 8.90333 10.1735 8.6153 10.4686C8.39819 10.691 8.19609 10.9281 7.97659 11.1662C7.75328 11.4101 7.54068 11.6465 7.32409 11.8756C7.31295 11.8596 7.30579 11.8509 7.29864 11.8423C7.29313 11.8476 7.28762 11.8529 7.2821 11.8582C7.29572 11.8682 7.30934 11.8781 7.3178 11.899C7.27752 11.9417 7.24241 11.9736 7.20729 12.0055C7.14415 11.9104 7.12469 11.8216 7.19371 11.7119C7.22614 11.6604 7.22758 11.5667 7.20443 11.5071C7.13659 11.3326 7.16926 11.2391 7.34979 11.1663C7.41121 11.1415 7.47283 11.117 7.53322 11.0899C7.55611 11.0797 7.57581 11.0623 7.60605 11.0421C7.46087 10.8461 7.52583 10.702 7.69341 10.5601C7.86066 10.4184 8.00305 10.2478 8.16366 10.0977C8.32253 9.94922 8.36967 9.77317 8.3354 9.555Z" fill="#050304"/>
<path d="M14.8538 17.2756C14.8644 17.2117 14.8692 17.1169 14.9167 17.0844C15.2917 16.8278 15.5312 16.4348 15.875 16.1491C15.9642 16.075 16.068 16.0184 16.1659 15.955C16.2042 15.9302 16.2602 15.9182 16.2815 15.8839C16.3909 15.708 16.5473 15.6538 16.6842 15.6854C16.8592 15.5233 17.001 15.3898 17.1453 15.2591C17.2328 15.1798 17.3241 15.1046 17.4141 15.028C17.4341 15.011 17.4539 14.9842 17.4765 14.9811C17.8359 14.9314 18.0241 14.6837 18.1588 14.3829C18.1924 14.3079 18.1806 14.2135 18.1963 14.1292C18.2084 14.0637 18.2215 13.9954 18.2507 13.9365C18.3045 13.828 18.3801 13.7298 18.4291 13.6195C18.5007 13.4586 18.3946 13.3967 18.2655 13.4225C18.0478 13.466 17.8322 13.5305 17.6237 13.6077C17.3266 13.7176 17.0304 13.8342 16.746 13.9729C16.5701 14.0587 16.4263 14.2096 16.2511 14.2975C16.0479 14.3995 15.8243 14.4602 15.6131 14.5474C15.4955 14.596 15.385 14.6619 15.2555 14.7202C15.2285 14.7009 15.2173 14.6813 15.203 14.6508C15.465 14.4897 15.7333 14.345 15.9937 14.1872C16.1393 14.0989 16.2717 13.9889 16.4331 13.8806C16.4782 13.8537 16.5003 13.835 16.5223 13.8163C16.6427 13.7724 16.7631 13.7284 16.9122 13.6794C17.0884 13.6474 17.2257 13.6054 17.2806 13.4426C17.2989 13.4302 17.3172 13.4179 17.3595 13.4047C17.6635 13.2812 17.9656 13.1925 18.2185 13.0279C18.5978 12.7811 18.9325 12.8009 19.2162 13.1461C19.2795 13.223 19.3583 13.3536 19.4937 13.1959C19.55 13.1884 19.5906 13.1816 19.6405 13.1793C19.6554 13.1877 19.6611 13.1916 19.6643 13.2098C19.5712 13.4034 19.7739 13.4513 19.8174 13.5706C19.4505 14.04 18.9542 14.3589 18.4851 14.7077C17.9783 15.0844 17.4579 15.4427 16.9489 15.8164C16.5061 16.1416 16.0765 16.485 15.6298 16.8047C15.3878 16.9779 15.1225 17.1184 14.8538 17.2756Z" fill="#434143"/>
<path d="M16.5523 18.5642C17.0776 19.1019 17.5937 19.6285 18.1189 20.1644C18.1189 19.8142 18.1184 19.4663 18.119 19.1183C18.1197 18.7384 18.1202 18.7384 17.9541 18.4718C18.0748 18.4251 18.1639 18.4424 18.205 18.5718C18.2249 18.6343 18.2366 18.7021 18.237 18.7675C18.24 19.2541 18.24 19.7407 18.2388 20.2272C18.2387 20.2843 18.2261 20.3414 18.2136 20.4462C17.6548 19.9283 17.127 19.439 16.5991 18.9498C16.578 18.9721 16.5569 18.9944 16.5357 19.0166C17.1028 19.7021 17.7741 20.2884 18.3897 20.9355C18.5038 20.7483 18.4382 18.7583 18.3223 18.5291C18.4883 18.4602 18.5495 18.4906 18.5599 18.6695C18.5786 18.9883 18.5919 19.3077 18.5967 19.627C18.603 20.0468 18.6029 20.4669 18.596 20.8867C18.5945 20.9724 18.5508 21.0574 18.5266 21.1427C18.4337 21.1033 18.3196 21.0861 18.2514 21.0209C17.8813 20.6671 17.5239 20.3 17.1588 19.9408C17.0811 19.8643 16.9898 19.8018 16.8634 19.6993C16.8521 19.8368 16.8399 19.9187 16.8395 20.0007C16.8379 20.2939 16.8482 20.5875 16.8366 20.8803C16.833 20.9722 16.79 21.1284 16.7386 21.1403C16.5851 21.1757 16.3928 21.2219 16.2885 21.0397C16.2356 20.9472 16.2069 20.8283 16.2058 20.7209C16.1985 20.0411 16.1996 19.3612 16.2051 18.6814C16.2058 18.596 16.2483 18.511 16.2714 18.4259C16.3619 18.4683 16.4525 18.5107 16.5523 18.5642Z" fill="#1B1B1A"/>
<path d="M21.4 11.36C21.7864 11.2245 22.1726 11.0886 22.5591 10.9536C22.7087 10.9013 22.8591 10.851 23.0328 10.8097C23.1702 10.9138 23.2426 10.8784 23.2844 10.7469C23.3134 10.7397 23.3425 10.7325 23.3932 10.7284C23.4369 10.7242 23.4589 10.717 23.4808 10.7097C23.4989 10.704 23.5169 10.6984 23.5575 10.6999C23.8312 10.7072 24.0824 10.7072 24.337 10.7072C24.2486 10.8658 24.1761 11.0008 24.0974 11.1322C24.0833 11.1557 24.0447 11.1671 24.0153 11.1784C23.7567 11.2772 23.5006 11.3767 23.3063 11.5897C23.2503 11.6512 23.1712 11.695 23.0963 11.7349C22.9591 11.8078 22.8048 11.8544 22.6797 11.943C22.3922 12.1465 22.1008 12.332 21.7584 12.4356C21.6418 12.4709 21.5451 12.5721 21.4393 12.6431C21.4114 12.6457 21.3835 12.6483 21.3266 12.6418C21.2058 12.3826 21.1139 12.1325 21.0345 11.8779C21.0706 11.8618 21.0942 11.8502 21.1324 11.8385C21.193 11.8196 21.2679 11.8115 21.2795 11.7802C21.3298 11.6438 21.3615 11.5007 21.4 11.36Z" fill="#413E3F"/>
<path d="M10.2 13.5601C10.1117 13.5778 10.0234 13.5955 9.92586 13.6052C10.1413 13.1397 10.3659 12.682 10.6105 12.209C10.6975 12.1237 10.777 12.062 10.8293 11.9824C10.9909 11.7366 11.1322 11.4769 11.3014 11.2366C11.3952 11.1034 11.5288 10.9983 11.6512 10.8737C11.7445 11.0397 11.8121 11.1598 11.8796 11.2799C11.867 11.3887 11.8544 11.4976 11.8286 11.6211C11.7785 11.6393 11.7415 11.6429 11.7046 11.6465C11.7042 11.659 11.7038 11.6715 11.7033 11.684C11.738 11.6956 11.7727 11.7071 11.8073 11.7187C11.696 12.091 11.585 12.4634 11.4732 12.8355C11.4562 12.8923 11.4211 12.9473 11.4185 13.0043C11.3968 13.488 11.2009 13.9245 11.0405 14.377C10.9227 14.1719 10.9409 13.9579 11.0005 13.7444C11.0521 13.5594 11.1197 13.3785 11.1631 13.1918C11.1748 13.1415 11.1226 13.0257 11.1024 13.0264C10.8695 13.0335 10.6035 12.9282 10.4354 13.1938C10.3578 13.3165 10.2785 13.438 10.2 13.5601Z" fill="#413E3F"/>
<path d="M11.4796 7.65625C11.8382 7.32803 12.1949 6.99764 12.5575 6.67387C12.6138 6.62364 12.6971 6.60369 12.7967 6.56488C12.9133 6.52376 13.0086 6.49905 13.0869 6.44829C13.1855 6.38442 13.2636 6.28875 13.3624 6.22539C13.5804 6.0857 13.8306 6.07193 14.0487 6.03706C14.076 6.16038 14.0954 6.24793 14.1148 6.33549C14.0933 6.35234 14.0717 6.36918 14.0295 6.39313C13.9922 6.42547 13.9757 6.45069 13.9592 6.47592C13.9592 6.47592 13.9561 6.47902 13.9459 6.4814C13.9255 6.49035 13.9201 6.49967 13.9193 6.51173C13.91 6.52281 13.9007 6.53389 13.8699 6.55434C13.8319 6.59288 13.8154 6.62205 13.799 6.65123C13.7088 6.74009 13.6186 6.82895 13.5167 6.92875C13.5048 6.9397 13.5013 6.95216 13.5013 6.95216C13.443 7.01285 13.3847 7.07353 13.313 7.15005C13.2898 7.1733 13.2849 7.18314 13.285 7.19541C13.285 7.19541 13.2779 7.19759 13.2674 7.20675C13.2357 7.24939 13.2145 7.28287 13.1934 7.31636C13.1837 7.32543 13.174 7.3345 13.155 7.35639C13.1377 7.37626 13.1348 7.38501 13.1371 7.39547C13.1295 7.40744 13.1219 7.41942 13.1017 7.44971C13.054 7.51025 13.0188 7.55246 12.9836 7.59468C12.9759 7.59751 12.9681 7.60035 12.9437 7.61274C12.9129 7.63758 12.8985 7.65286 12.8842 7.66815C12.8842 7.66815 12.8826 7.67884 12.8646 7.68378C12.7668 7.72759 12.6868 7.76645 12.6096 7.79253C12.6363 7.67846 12.6123 7.65051 12.5005 7.67685C12.3284 7.71736 12.1499 7.72945 11.9757 7.76216C11.8277 7.78995 11.6809 7.82627 11.5355 7.86569C11.4471 7.88965 11.3623 7.92667 11.279 7.94475C11.3369 7.85162 11.3915 7.77158 11.4462 7.69153C11.4462 7.69153 11.447 7.68227 11.4537 7.67544C11.4651 7.66187 11.4715 7.65775 11.4796 7.65625Z" fill="#C61517"/>
<path d="M15.209 4.28699C14.6898 4.67436 14.1705 5.06172 13.6393 5.45269C13.5264 5.39527 13.4048 5.26361 13.3287 5.28608C13.0698 5.36246 12.9002 5.22572 12.7139 5.10625C12.6807 5.08496 12.6458 5.06631 12.6004 5.03524C12.8794 4.86673 13.1666 4.70336 13.4608 4.55394C13.7188 4.42294 13.9848 4.30759 14.2644 4.1969C14.3228 4.35945 14.4293 4.27297 14.509 4.26669C14.5726 4.26167 14.6629 4.20271 14.6929 4.22715C14.8572 4.36116 15.038 4.26917 15.209 4.28699Z" fill="#413E3F"/>
<path d="M21.4519 12.6484C21.5451 12.5721 21.6417 12.4709 21.7584 12.4356C22.1008 12.332 22.3922 12.1465 22.6797 11.943C22.8048 11.8544 22.9591 11.8078 23.0962 11.7349C23.1712 11.695 23.2503 11.6512 23.3063 11.5898C23.5005 11.3767 23.7567 11.2772 24.0152 11.1784C24.0447 11.1671 24.0833 11.1557 24.0974 11.1322C24.1761 11.0009 24.2486 10.8658 24.337 10.7072C24.0824 10.7072 23.8312 10.7072 23.5715 10.6977C23.785 10.6104 24.0045 10.5238 24.2299 10.4569C24.6812 10.323 25.1358 10.2002 25.5889 10.0723C25.6464 10.056 25.7033 10.0219 25.7597 10.0234C25.8034 10.0246 25.8538 10.0619 25.8842 10.0976C25.8939 10.1089 25.8582 10.1823 25.8274 10.2012C25.1758 10.6013 24.5235 11.0001 23.8681 11.394C23.3209 11.7229 22.7677 12.0421 22.2225 12.3743C22.1499 12.4185 22.1085 12.5139 22.0599 12.5763C21.8608 12.6022 21.6627 12.6279 21.4519 12.6484Z" fill="#363535"/>
<path d="M14.362 19.4828C14.4148 19.3019 14.5204 19.1189 14.3054 18.9329C14.6827 18.9436 14.5852 18.5237 14.8546 18.4245C14.8784 18.4575 14.9155 18.4936 14.9342 18.5376C15.1652 19.0798 15.3913 19.6241 15.624 20.1656C15.69 20.3193 15.7267 20.503 15.9416 20.5375C15.9741 20.5427 15.9983 20.5993 16.0264 20.632C15.9845 20.667 15.9427 20.702 15.8997 20.738C15.8997 20.7496 15.8978 20.763 15.9 20.7757C15.9205 20.8958 16.143 21.0086 15.9526 21.1304C15.7652 21.2503 15.4888 21.1298 15.3961 20.9394C15.3416 20.8276 15.2853 20.6598 15.1954 20.6332C14.9674 20.5658 14.715 20.5214 14.482 20.5488C14.292 20.5712 14.2481 20.796 14.1879 20.9868C14.1592 21.0041 14.1431 21.0048 14.1251 20.9882C14.17 20.8165 14.169 20.5957 14.273 20.5208C14.5404 20.3279 14.8769 20.3229 15.1962 20.3783C15.417 20.4167 15.434 20.6412 15.5068 20.8081C15.528 20.8567 15.5465 20.9131 15.5837 20.9465C15.629 20.987 15.6927 21.0069 15.7795 21.0517C15.7735 20.9687 15.7792 20.934 15.7679 20.9063C15.4877 20.2166 15.2068 19.5271 14.9216 18.8395C14.9045 18.7982 14.8355 18.7374 14.8171 18.7455C14.7696 18.7665 14.7236 18.8149 14.7009 18.8635C14.6508 18.9705 14.6109 19.0829 14.5759 19.196C14.5596 19.2488 14.5646 19.3082 14.56 19.3646C14.6167 19.3664 14.6807 19.3861 14.7288 19.3666C14.8602 19.3131 14.931 19.3633 14.9786 19.4804C15.0411 19.634 15.1043 19.7874 15.1676 19.9407C15.2224 20.0734 15.1798 20.1504 15.0357 20.1561C14.8828 20.1621 14.7291 20.1646 14.5766 20.1554C14.5318 20.1527 14.4898 20.1048 14.4466 20.0776C14.5616 20.0466 14.6516 20.0451 14.7416 20.0469C14.9169 20.0504 14.9769 19.9808 14.9345 19.7999C14.8819 19.5755 14.7153 19.4785 14.4009 19.5161C14.3831 19.5002 14.3725 19.4915 14.362 19.4828Z" fill="#1B1B1A"/>
<path d="M20.0348 9.36094C20.0315 9.33966 20.0282 9.31837 20.0171 9.27462C19.9938 9.23141 19.9784 9.21067 19.963 9.18994C19.963 9.18994 19.9602 9.17396 19.9565 9.15316C19.9332 9.07312 19.9137 9.01389 19.8941 8.95465C19.7731 8.6259 19.6524 8.29702 19.5309 7.96842C19.4018 7.6191 19.2736 7.26943 19.1421 6.921C18.7664 5.92525 18.39 4.92977 18.0118 3.93496C17.9556 3.78718 17.8885 3.64356 17.816 3.47224C17.7371 3.35874 17.6686 3.27102 17.6002 3.17322C17.5992 3.14976 17.5982 3.13638 17.5972 3.123C17.6246 3.11331 17.652 3.10363 17.6942 3.09737C17.7225 3.10453 17.7362 3.10827 17.7498 3.11202C17.7498 3.11202 17.7562 3.12267 17.7631 3.13403C17.7748 3.15836 17.7842 3.16483 17.798 3.16479C17.798 3.16479 17.7999 3.16164 17.8001 3.17348C17.8125 3.19702 17.8247 3.20872 17.8368 3.22042C17.8368 3.22042 17.8368 3.23261 17.8432 3.24993C17.899 3.36546 17.9483 3.46367 17.9976 3.56188C18.2116 4.10575 18.4318 4.64724 18.6373 5.19429C18.7773 5.56693 18.8918 5.94904 19.0263 6.32383C19.2101 6.83604 19.4275 7.33787 19.5806 7.85879C19.6655 8.1475 19.8117 8.39509 19.9336 8.66051C20.0264 8.8628 20.0717 9.08664 20.1426 9.29938C20.3728 9.98946 20.605 10.6788 20.8404 11.3961C20.8573 11.4321 20.8702 11.4405 20.8831 11.4489C20.8831 11.4489 20.8877 11.4537 20.8842 11.4661C20.9023 11.547 20.924 11.6154 20.9339 11.6839C20.9065 11.6846 20.8908 11.6853 20.8744 11.685C20.8736 11.6839 20.8749 11.6817 20.8763 11.6675C20.8659 11.6089 20.8542 11.5646 20.8359 11.5081C20.781 11.4108 20.726 11.3287 20.6862 11.2398C20.6013 11.05 20.5244 10.8567 20.4442 10.6649C20.3594 10.3578 20.2745 10.0507 20.1843 9.72064C20.1758 9.68941 20.1703 9.68335 20.1624 9.67954C20.1624 9.67954 20.1634 9.6779 20.1608 9.66309C20.1171 9.5525 20.0759 9.45672 20.0348 9.36094Z" fill="#D56F6A"/>
<path d="M22.8158 18.0417C22.724 17.7123 22.631 17.3831 22.5407 17.0533C22.4148 16.5929 22.2908 16.1319 22.1716 15.6478C22.1912 15.6066 22.2052 15.5888 22.2192 15.5709C22.4135 16.2197 22.6144 16.8665 22.8005 17.5175C23.056 18.4113 23.3029 19.3075 23.5485 20.204C23.6931 20.7319 23.8312 21.2616 23.966 21.792C24.0392 22.0799 24.0994 22.3711 24.1737 22.6899C24.212 22.8049 24.2421 22.8908 24.2688 22.993C24.3292 23.4254 24.3931 23.8416 24.457 24.2578C24.44 24.2614 24.4231 24.265 24.4061 24.2685C24.3778 24.204 24.3495 24.1394 24.3183 24.0605C24.2783 23.8983 24.2372 23.7514 24.2049 23.6026C24.0059 22.6857 23.8089 21.7683 23.6114 20.8338C23.3464 19.8916 23.0811 18.9667 22.8158 18.0417Z" fill="#D2524F"/>
<path d="M11.8874 11.2678C11.8121 11.1598 11.7445 11.0397 11.6512 10.8737C11.5288 10.9983 11.3952 11.1034 11.3014 11.2366C11.1322 11.4769 10.9909 11.7366 10.8293 11.9824C10.777 12.062 10.6975 12.1237 10.6172 12.1971C10.8275 11.773 11.0532 11.3464 11.272 10.9164C11.2974 10.8665 11.2807 10.7966 11.2914 10.7375C11.2995 10.6932 11.3106 10.6434 11.3375 10.6099C11.4029 10.5285 11.4929 10.4643 11.547 10.3771C11.7561 10.0403 11.954 9.6966 12.1597 9.35762C12.1782 9.32706 12.2225 9.31211 12.2674 9.28447C12.4337 9.47522 12.3598 9.69031 12.3063 9.88819C12.1822 10.3475 12.0337 10.8002 11.8874 11.2678Z" fill="#363535"/>
<path d="M15.7202 23.6436C15.8765 23.5259 16.1503 23.5527 16.3003 23.7209C16.1941 23.7647 16.0968 23.7888 15.9996 23.8129C16.0018 23.8414 16.004 23.87 16.0062 23.8986C16.0748 23.8986 16.1589 23.9242 16.209 23.8938C16.372 23.7949 16.4916 23.8291 16.6022 23.9711C16.6464 24.0278 16.7039 24.0741 16.7608 24.1354C16.7913 24.164 16.8163 24.1823 16.8431 24.2175C16.7941 24.3846 16.7398 24.5336 16.6931 24.6849C16.5682 25.09 16.4065 25.1128 16.0003 24.8986C15.7056 24.582 15.8658 24.2352 15.9149 23.8927C15.8476 23.8927 15.7937 23.8927 15.7545 23.8927C15.7416 23.799 15.7309 23.7213 15.7202 23.6436Z" fill="#050304"/>
<path d="M23.3864 25.246C23.2918 25.2161 23.1977 25.1848 23.1026 25.1568C23.0471 25.1404 22.99 25.1293 22.9277 25.0935C22.9755 25.0531 23.0293 25.0349 23.1495 24.9944C23.0495 24.9379 22.9931 24.8787 22.9373 24.8793C22.6739 24.8818 22.5441 24.7134 22.6269 24.4607C22.6681 24.3351 22.7052 24.2081 22.754 24.0735C22.857 23.8323 23.0516 23.8235 23.2586 23.8409C23.45 23.857 23.5145 24.0042 23.5817 24.1502C23.6142 24.2208 23.6512 24.2893 23.6863 24.3746C23.6469 24.5229 23.6165 24.6592 23.563 24.7858C23.5422 24.8352 23.4745 24.8775 23.419 24.8969C23.3105 24.9346 23.258 24.9722 23.3452 25.0865C23.3759 25.1267 23.3736 25.1921 23.3864 25.246Z" fill="#020202"/>
<path d="M14.1265 6.3269C14.0954 6.24793 14.076 6.16037 14.0487 6.03706C13.8306 6.07192 13.5803 6.0857 13.3624 6.22539C13.2636 6.28874 13.1855 6.38441 13.0869 6.44828C13.0085 6.49904 12.9133 6.52375 12.8093 6.55895C13.0271 6.33226 13.2594 6.10489 13.4966 5.88281C13.5362 5.8457 13.6105 5.7983 13.6463 5.81246C13.8102 5.87722 13.9047 5.78672 14.0166 5.69355C14.2249 5.52012 14.4411 5.35502 14.6645 5.20173C14.7129 5.16853 14.8162 5.17814 14.8749 5.20711C14.942 5.24018 14.9876 5.31693 15.0488 5.38746C14.7495 5.70626 14.4439 6.01229 14.1265 6.3269Z" fill="#9A2732"/>
<path d="M24.3212 24.0749C24.3495 24.1394 24.3778 24.204 24.4061 24.2685C24.4231 24.265 24.44 24.2614 24.457 24.2578C24.3931 23.8416 24.3292 23.4254 24.2871 22.9899C24.3335 22.9671 24.358 22.9637 24.3905 22.9729C24.4524 23.4251 24.5035 23.8651 24.5622 24.3041C24.5767 24.4129 24.6159 24.5184 24.6438 24.6254C24.6533 24.7185 24.6628 24.8117 24.6599 24.9416C24.6347 25.0264 24.6071 25.0758 24.6118 25.1221C24.6348 25.3508 24.6663 25.5786 24.6949 25.8071C24.6533 25.8 24.5998 25.7909 24.5464 25.7818C24.4647 25.673 24.3831 25.5641 24.2892 25.447C24.2771 25.4387 24.2755 25.4371 24.2755 25.4371C24.324 25.2952 24.3775 25.1524 24.2057 25.0185C24.1851 24.9683 24.1718 24.9439 24.1586 24.9195C24.1586 24.9195 24.1607 24.9202 24.1602 24.9069C24.1544 24.8566 24.1491 24.8196 24.1521 24.7817C24.1706 24.7671 24.1807 24.7533 24.1907 24.7395C24.1702 24.733 24.1498 24.7266 24.1201 24.7213C24.111 24.7225 24.0926 24.724 24.0874 24.7088C24.0416 24.5719 24.001 24.4502 23.9705 24.3293C24.038 24.4028 24.0954 24.4757 24.1528 24.5486C24.1613 24.5443 24.1698 24.5399 24.1782 24.5355C24.1423 24.4231 24.1064 24.3106 24.085 24.1955C24.1734 24.1536 24.2473 24.1142 24.3212 24.0749Z" fill="#9A2732"/>
<path d="M8.14385 22.5657C8.1444 22.9274 8.14133 23.2739 8.1418 23.6205C8.14198 23.7505 8.10718 23.9017 8.30636 23.915C8.24465 24.022 8.16667 24.1026 8.15656 24.191C8.14761 24.2694 8.21414 24.3563 8.25121 24.4491C8.09617 24.5601 8.08735 24.7421 8.29591 24.898C8.23999 25.0096 8.18434 25.1206 8.10038 25.2881C8.04477 25.1141 7.96514 24.9764 7.96226 24.8371C7.9475 24.1246 7.95012 23.4118 7.95253 22.6991C7.95306 22.5416 8.01532 22.5017 8.14385 22.5657Z" fill="#48494A"/>
<path d="M21.2137 24.1776C21.1939 24.4052 21.1685 24.6326 21.1588 24.8606C21.1568 24.9083 21.2148 24.9572 21.241 25.0077C21.2602 25.0449 21.2727 25.0857 21.2882 25.1248C21.2462 25.1333 21.2034 25.1522 21.1625 25.1486C20.8533 25.1214 20.8521 25.12 20.851 24.8072C20.8501 24.5288 20.861 24.2502 20.8505 23.9722C20.8432 23.7805 20.916 23.7023 21.1055 23.7254C21.1775 23.7341 21.2508 23.7324 21.335 23.7494C21.2154 23.8736 21.1427 24.0026 21.2137 24.1776Z" fill="#363535"/>
<path d="M14.0257 24.5322C13.9792 24.4027 13.9326 24.2732 13.8753 24.1139C13.9031 24.0466 13.9391 23.9275 14.0008 23.8238C14.0301 23.7746 14.1075 23.7283 14.1649 23.7261C14.4306 23.716 14.697 23.7217 14.9832 23.7366C15.0171 23.8084 15.0309 23.8653 15.0334 23.8758C14.9379 23.9003 14.8631 23.9195 14.7883 23.9387C14.5794 23.8872 14.3253 24.0832 14.2842 24.3381C14.2612 24.4805 14.2571 24.6259 14.2256 24.7801C14.1464 24.7043 14.0861 24.6182 14.0257 24.5322Z" fill="#413E3F"/>
<path d="M21.225 24.1678C21.1427 24.0026 21.2154 23.8736 21.3529 23.7534C21.3725 23.7414 21.3856 23.7375 21.3987 23.7375C22.0131 23.7365 22.0596 23.7864 22.0793 24.392C22.0869 24.6249 22.1231 24.8569 22.1481 25.1078C21.9093 25.2163 21.8155 25.1617 21.8195 24.8607C21.8224 24.6413 21.8265 24.4219 21.8356 24.2027C21.8459 23.9589 21.6188 23.7723 21.4031 23.8784C21.3214 23.9186 21.2904 24.0618 21.225 24.1678Z" fill="#413E3F"/>
<path d="M10.0849 11.1098C9.78054 11.5923 9.45338 12.0622 9.17774 12.5605C8.85021 13.1527 8.5673 13.7696 8.26401 14.3752C8.2344 14.4344 8.19969 14.4914 8.16101 14.5448C8.15658 14.551 8.1111 14.5274 8.09633 14.4971C8.15251 14.3859 8.19701 14.2951 8.24803 14.1917C8.5109 13.6687 8.76726 13.1583 9.0331 12.6386C9.35483 12.1269 9.6671 11.6245 9.98829 11.1219C10.0264 11.1177 10.0557 11.1137 10.0849 11.1098Z" fill="#D56F6A"/>
<path d="M12.9354 18.7226C12.9166 18.649 12.8728 18.553 12.9036 18.5044C12.9572 18.4201 13.0528 18.3593 13.138 18.2989C13.4497 18.0779 13.7774 17.8771 14.0731 17.6368C14.2624 17.4831 14.4544 17.3793 14.7118 17.363C14.7435 17.5101 14.6594 17.5596 14.5378 17.6306C14.1836 17.8375 13.8501 18.08 13.485 18.3201C13.4426 18.359 13.4235 18.3864 13.4045 18.4138C13.347 18.4656 13.2895 18.5173 13.2147 18.5621C13.148 18.5581 13.0848 18.5435 13.0526 18.5686C13.0094 18.6022 12.9903 18.6666 12.9608 18.7177C12.9608 18.7177 12.944 18.7216 12.9354 18.7226Z" fill="#434143"/>
<path d="M15.2081 4.28534C15.038 4.26917 14.8572 4.36115 14.6929 4.22715C14.6629 4.20271 14.5726 4.26166 14.509 4.26668C14.4293 4.27297 14.3228 4.35945 14.2802 4.19351C14.5778 4.02971 14.8768 3.88085 15.2002 3.73358C15.3227 3.71651 15.4207 3.69786 15.5168 3.69237C15.5293 3.76336 15.5439 3.82119 15.5543 3.89164C15.4873 3.9905 15.4244 4.07674 15.3616 4.16298C15.3616 4.16298 15.3596 4.16144 15.3473 4.16045C15.3169 4.15895 15.2988 4.15844 15.2704 4.15529C15.2413 4.19655 15.2225 4.24045 15.2036 4.28435C15.2036 4.28435 15.2073 4.2837 15.2081 4.28534Z" fill="#363535"/>
<path d="M24.0705 24.1981C24.1064 24.3106 24.1423 24.4231 24.1782 24.5356C24.1697 24.5399 24.1613 24.5443 24.1528 24.5486C24.0954 24.4757 24.038 24.4029 23.9652 24.318C23.9385 24.2939 23.9271 24.2819 23.9163 24.2549C23.87 24.0847 23.8232 23.9294 23.7764 23.7741C23.4826 22.9703 23.1888 22.1666 22.9071 21.3457C22.9291 21.327 22.9391 21.3254 22.9553 21.3341C23.0639 21.589 23.1726 21.8312 23.2676 22.0787C23.5382 22.784 23.8033 23.4915 24.0705 24.1981Z" fill="#D2524F"/>
<path d="M19.4313 25.0889C19.3757 25.0425 19.3141 25.0014 19.2655 24.9485C19.1569 24.8304 19.0548 24.7064 18.974 24.6125C19.0279 24.477 19.0795 24.3483 19.1305 24.2193C19.216 24.0029 19.2964 23.7819 19.5867 23.7578C19.6004 23.8084 19.6001 23.8434 19.5914 23.8894C19.2827 24.3591 19.259 24.7534 19.5211 24.9297C19.556 24.8811 19.5909 24.8324 19.6594 24.7366C19.6594 24.8905 19.6594 24.9864 19.6466 25.0842C19.5663 25.0871 19.4988 25.088 19.4313 25.0889Z" fill="#434143"/>
<path d="M13.6482 23.8996C13.6002 23.9339 13.5653 23.9688 13.5235 23.9821C13.2452 24.0707 13.1197 24.2336 13.1179 24.5292C13.117 24.6753 13.1283 24.8214 13.1304 24.9676C13.1311 25.0193 13.1206 25.0711 13.1153 25.1229C13.0931 25.1232 13.071 25.1235 13.0489 25.1237C13.0424 25.0458 13.0307 24.9678 13.0305 24.8898C13.0299 24.6623 12.9339 24.4364 13.0444 24.204C13.0722 24.1457 13.0024 24.0411 12.9723 23.9406C13.1216 23.628 13.4516 23.8317 13.7399 23.7146C13.6988 23.8029 13.6784 23.8465 13.6482 23.8996Z" fill="#626566"/>
<path d="M9.71616 24.6777C9.7129 24.6528 9.70963 24.628 9.71066 24.5831C9.71136 24.5488 9.70777 24.5344 9.70418 24.5199C9.66589 24.3953 9.6337 24.2683 9.58801 24.1464C9.49739 23.9046 9.45912 23.8871 9.21025 23.9462C9.14013 23.9629 9.07037 23.981 8.97007 24.0001C8.91989 24.0014 8.90009 24.001 8.88164 23.9857C8.89469 23.9119 8.9064 23.853 8.91811 23.7942C9.29334 23.7064 9.65993 23.6698 9.96152 23.9952C9.94372 24.0526 9.93377 24.0864 9.92381 24.1203C9.92107 24.2432 9.91833 24.366 9.90133 24.5136C9.83011 24.5848 9.77313 24.6312 9.71616 24.6777Z" fill="#454646"/>
<path d="M18.4974 24.4794C18.4543 24.373 18.4092 24.2674 18.3698 24.1597C18.3599 24.1327 18.3606 24.0959 18.3703 24.0685C18.451 23.8405 18.4384 23.8226 18.193 23.8455C18.1146 23.8529 18.0369 23.8679 17.9364 23.8751C17.8491 23.8226 17.8013 23.7724 17.8942 23.7053C18.0497 23.7089 18.2383 23.7673 18.3505 23.6993C18.445 23.6419 18.4507 23.438 18.5118 23.3016C18.5336 23.3528 18.5318 23.404 18.5474 23.4491C18.5606 23.4872 18.594 23.5182 18.6185 23.5524C18.6822 23.6327 18.7459 23.7131 18.843 23.8356C18.8138 23.9314 18.7642 24.0936 18.7011 24.2639C18.6818 24.2695 18.6762 24.2653 18.6704 24.2649C18.6652 24.2647 18.6559 24.2677 18.655 24.271C18.6309 24.3621 18.6586 24.4919 18.4974 24.4794Z" fill="#434143"/>
<path d="M17.8956 23.688C17.8013 23.7724 17.8491 23.8226 17.9199 23.8792C17.9226 24.048 17.9194 24.2081 17.9005 24.3953C17.8594 24.5516 17.8339 24.6811 17.8064 24.8204C17.7653 24.6973 17.73 24.5915 17.6947 24.4857C17.6894 24.2855 17.684 24.0853 17.6758 23.8549C17.66 23.8012 17.6472 23.7778 17.6344 23.7544C17.6796 23.6373 17.6467 23.5545 17.5409 23.4824C17.5098 23.4613 17.507 23.3792 17.5143 23.3283C17.5188 23.2971 17.5669 23.2721 17.5958 23.2446C17.6477 23.1953 17.6999 23.1462 17.752 23.097C17.7955 23.1753 17.8585 23.2492 17.8777 23.3331C17.9025 23.4414 17.8922 23.5578 17.8956 23.688Z" fill="#48494A"/>
<path d="M11.2621 24.5225C11.2499 24.4797 11.2376 24.4369 11.2404 24.3783C11.3295 24.3483 11.4034 24.3341 11.4866 24.3321C11.5852 24.3675 11.6745 24.3905 11.7659 24.4259C11.7775 24.478 11.7871 24.5177 11.7967 24.5574C11.7711 24.6112 11.7183 24.6694 11.726 24.7179C11.7395 24.8026 11.7761 24.8934 11.8311 24.9576C11.8591 24.9903 11.9529 24.9875 12.0086 24.9716C12.1521 24.9307 12.2909 24.8735 12.4316 24.8228C12.4473 24.8497 12.463 24.8767 12.4787 24.9036C12.3248 25.0263 12.1709 25.1489 12.0083 25.2551C11.9366 25.1767 11.8827 25.0775 11.8091 25.0597C11.5777 25.0041 11.4614 24.8446 11.364 24.652C11.3397 24.6039 11.2966 24.5654 11.2621 24.5225Z" fill="#413E3F"/>
<path d="M11.4773 24.3198C11.4034 24.334 11.3295 24.3483 11.2389 24.3649C11.212 24.3471 11.2016 24.3268 11.1974 24.2881C11.2152 24.2572 11.2267 24.2449 11.2383 24.2326C11.4091 23.9277 11.6222 23.7051 12.0164 23.7184C12.4066 23.7316 12.5732 23.8695 12.6395 24.2953C12.479 24.3151 12.3183 24.335 12.1411 24.3473C12.1221 24.3227 12.1196 24.3057 12.1328 24.2848C12.2427 24.2585 12.3369 24.236 12.4307 24.2135C12.3725 23.9827 12.1873 23.8141 12.0121 23.8477C11.6783 23.9118 11.4985 24.0336 11.4773 24.3198Z" fill="#48494A"/>
<path d="M22.9491 21.3239C22.9391 21.3254 22.9291 21.327 22.9042 21.3317C22.7507 20.9711 22.6083 20.6085 22.4739 20.243C22.2561 19.6505 22.0424 19.0565 21.8299 18.462C21.8059 18.395 21.8007 18.3214 21.7877 18.2402C21.7886 18.2296 21.7933 18.2339 21.7933 18.2339C21.8658 18.3805 21.9382 18.5271 22.0203 18.6993C22.291 19.4587 22.552 20.1924 22.815 20.9396C22.8609 21.0767 22.905 21.2003 22.9491 21.3239Z" fill="#D56F6A"/>
<path d="M15.7108 23.6535C15.7309 23.7213 15.7416 23.799 15.7545 23.8927C15.7936 23.8927 15.8476 23.8927 15.9149 23.8927C15.8658 24.2352 15.7056 24.582 15.9896 24.9071C15.9502 24.9661 15.9129 25.0057 15.8755 25.0453C15.6893 24.9424 15.5991 24.7813 15.597 24.5718C15.594 24.265 15.5076 23.9479 15.7108 23.6535Z" fill="#48494A"/>
<path d="M10.4888 24.4402C10.4483 24.4017 10.4079 24.3632 10.3727 24.3128C10.404 24.2667 10.4299 24.2325 10.4559 24.1983C10.4597 24.0811 10.4635 23.9639 10.4794 23.8214C10.5586 23.6714 10.6255 23.5467 10.6925 23.422C10.7867 23.443 10.8809 23.464 10.9805 23.4862C10.9466 23.5174 10.8799 23.5789 10.8014 23.6602C10.78 23.7213 10.7703 23.7625 10.7607 23.8036C10.784 23.9169 10.8074 24.0302 10.8307 24.1435C10.8217 24.1404 10.8128 24.1374 10.8039 24.1343C10.7872 24.2455 10.7706 24.3566 10.754 24.4678C10.744 24.5346 10.7341 24.6014 10.6983 24.6718C10.6112 24.597 10.55 24.5186 10.4888 24.4402Z" fill="#413E3F"/>
<path d="M10.095 11.1039C10.0557 11.1137 10.0264 11.1177 9.98814 11.1088C10.127 10.9054 10.275 10.7148 10.432 10.5162C10.5259 10.395 10.6105 10.2818 10.7049 10.16C10.7798 10.0609 10.845 9.97036 10.9204 9.87023C11.0393 9.7266 11.1479 9.59249 11.2568 9.4586C11.52 9.13506 11.7833 8.81162 12.0586 8.48726C12.0865 8.48367 12.1024 8.48097 12.1189 8.47885C12.1195 8.47944 12.1183 8.47835 12.1183 8.47835C12.0916 8.51756 12.065 8.55676 12.0259 8.61661C12.005 8.66297 11.9964 8.68869 11.9879 8.71441C11.9402 8.77226 11.8924 8.83011 11.831 8.90475C11.8103 8.93416 11.8033 8.94678 11.7962 8.9594C11.7962 8.9594 11.7993 8.95926 11.789 8.96112C11.7714 8.97478 11.764 8.98658 11.7566 8.99838C11.7335 9.01987 11.7103 9.04136 11.6763 9.07791C11.6557 9.09995 11.6503 9.10941 11.6492 9.12135C11.6492 9.12135 11.6417 9.12157 11.6338 9.12779C11.6158 9.14052 11.6103 9.14973 11.6094 9.16165C11.6094 9.16165 11.6019 9.16189 11.5947 9.16738C11.578 9.17837 11.5735 9.18659 11.5739 9.19755C11.5739 9.19755 11.5606 9.20649 11.5482 9.22068C11.5283 9.24882 11.5209 9.26277 11.5135 9.27671C11.4633 9.33291 11.413 9.38911 11.3473 9.4635C11.2976 9.53277 11.2634 9.58385 11.2292 9.63493C11.2067 9.66413 11.1842 9.69333 11.148 9.73952C11.1277 9.77101 11.1211 9.78552 11.1145 9.80002C11.1145 9.80002 11.1198 9.79896 11.1088 9.79948C11.0905 9.81197 11.0832 9.82395 11.0758 9.83593C11.0242 9.89509 10.9725 9.95425 10.9089 10.029C10.8874 10.0525 10.8836 10.0625 10.8857 10.0748C10.8857 10.0748 10.8763 10.0798 10.8697 10.0864C10.8554 10.0987 10.8524 10.1063 10.8541 10.1158C10.8373 10.1344 10.8205 10.1529 10.79 10.1906C10.7642 10.232 10.7521 10.2543 10.7399 10.2766C10.7287 10.2809 10.7211 10.2887 10.707 10.3136C10.6819 10.3513 10.6671 10.3755 10.6524 10.3997C10.6213 10.433 10.5903 10.4664 10.5479 10.5139C10.5285 10.5339 10.5252 10.5418 10.5269 10.5517C10.5269 10.5517 10.5164 10.5559 10.5075 10.5621C10.4892 10.5737 10.4852 10.5817 10.4865 10.5924C10.4865 10.5924 10.4764 10.5956 10.4673 10.6016C10.4477 10.6131 10.4434 10.6217 10.4453 10.6333C10.4453 10.6333 10.4349 10.6385 10.4281 10.6448C10.4137 10.6565 10.4117 10.6635 10.4151 10.6721C10.4095 10.6785 10.4039 10.6849 10.3856 10.7057C10.3631 10.7269 10.3583 10.7364 10.3584 10.7485C10.3315 10.7815 10.3045 10.8145 10.2651 10.865C10.2488 10.8952 10.245 10.9079 10.2411 10.9207C10.2411 10.9207 10.2323 10.9279 10.2245 10.9372C10.2106 10.9606 10.2044 10.9746 10.1983 10.9887C10.1672 11.0251 10.1361 11.0616 10.095 11.1039Z" fill="#D2524F"/>
<path d="M24.1437 24.7825C24.1491 24.8196 24.1544 24.8566 24.1595 24.9077C24.1294 24.909 24.0977 24.8993 24.0702 24.8828C23.9392 24.8041 23.8578 24.8214 23.8465 24.991C23.844 25.0285 23.8304 25.0652 23.8133 25.1401C23.7443 25.0613 23.6958 25.0059 23.6377 24.9395C23.5444 25.1112 23.4525 25.2803 23.3606 25.4495C23.3396 25.4379 23.3186 25.4263 23.2975 25.4147C23.3225 25.3663 23.3474 25.3178 23.3793 25.2577C23.3736 25.1921 23.3759 25.1267 23.3452 25.0865C23.258 24.9722 23.3105 24.9346 23.4189 24.8969C23.4744 24.8775 23.5421 24.8352 23.563 24.7858C23.6165 24.6592 23.6469 24.5229 23.7013 24.3747C23.7563 24.3593 23.7965 24.3596 23.8388 24.3775C23.8252 24.6907 23.831 24.6983 24.0925 24.724C24.0925 24.724 24.1109 24.7225 24.1217 24.7319C24.1362 24.7551 24.1399 24.7688 24.1437 24.7825Z" fill="#454646"/>
<path d="M24.5507 25.7976C24.5999 25.7909 24.6533 25.8 24.6949 25.8071C24.6663 25.5786 24.6348 25.3507 24.6118 25.1221C24.6071 25.0758 24.6347 25.0264 24.6584 24.9696C24.7132 25.1921 24.7709 25.4218 24.797 25.6551C24.8242 25.8988 24.8231 26.1458 24.8293 26.3914C24.8304 26.4361 24.8067 26.4815 24.784 26.5651C24.6969 26.2791 24.6259 26.0463 24.5507 25.7976Z" fill="#D56F6A"/>
<path d="M19.5998 23.8783C19.6001 23.8433 19.6004 23.8084 19.6009 23.7606C20.2353 23.652 20.3678 23.8329 20.5461 24.3915C20.6028 24.569 20.4787 24.7472 20.3002 24.8709C20.2476 24.8582 20.2198 24.8461 20.1969 24.8203C20.2313 24.7324 20.2503 24.6516 20.2923 24.5854C20.3814 24.4452 20.3746 24.3157 20.2961 24.1732C20.1307 23.8727 19.9808 23.8055 19.5998 23.8783Z" fill="#48494A"/>
<path d="M15.5866 5.47181C15.5056 5.36616 15.4428 5.25879 15.3638 5.16509C15.2449 5.02418 15.2308 4.88337 15.3296 4.72934C15.3581 4.68498 15.4021 4.64282 15.4103 4.59472C15.437 4.43962 15.506 4.39644 15.6734 4.38644C15.8065 4.3785 15.9324 4.24763 16.0781 4.17674C15.9014 4.37622 15.7081 4.5703 15.4543 4.82513C15.5234 4.99514 15.6216 5.23698 15.7199 5.47882C15.7013 5.49141 15.6827 5.504 15.654 5.52183C15.6285 5.51011 15.613 5.49316 15.5866 5.47181Z" fill="#C61517"/>
<path d="M19.8264 13.5861C19.7739 13.4513 19.5712 13.4034 19.6751 13.216C19.7719 13.3572 19.8559 13.5061 19.9388 13.6556C20.025 13.8113 20.1102 13.9676 20.1958 14.1236C20.2102 14.1691 20.2246 14.2146 20.2479 14.283C20.2757 14.3282 20.2946 14.3504 20.3136 14.3727C20.3281 14.4281 20.3427 14.4835 20.3646 14.5648C20.4091 14.6586 20.4464 14.7265 20.4836 14.7944C20.4849 14.8148 20.4862 14.8352 20.4912 14.8837C20.5411 14.9955 20.5873 15.0792 20.6335 15.1629C20.633 15.2046 20.6324 15.2464 20.617 15.3047C20.5861 15.3219 20.5702 15.3224 20.5542 15.323C20.3988 14.9507 20.2434 14.5783 20.088 14.206C20.0038 14.0045 19.9196 13.8031 19.8264 13.5861Z" fill="#D2524F"/>
<path d="M24.6412 24.6208C24.6159 24.5184 24.5767 24.4129 24.5622 24.3041C24.5035 23.8651 24.4524 23.4251 24.3938 22.9618C24.4203 22.9187 24.4516 22.8993 24.4811 22.8801C24.4793 22.8802 24.479 22.8766 24.4766 22.8903C24.4869 22.9279 24.4997 22.9518 24.5126 22.9758C24.5562 23.1648 24.6273 23.3524 24.6374 23.5433C24.6565 23.8999 24.6401 24.2584 24.6412 24.6208Z" fill="#D2524F"/>
<path d="M20.8752 11.686C20.8908 11.6853 20.9065 11.6846 20.9399 11.696C20.9791 11.7662 21.0005 11.8243 21.022 11.8824C21.1139 12.1325 21.2057 12.3826 21.3058 12.6388C21.3324 12.7434 21.3442 12.8437 21.3708 12.94C21.4495 13.2254 21.534 13.5092 21.6074 13.805C21.5797 13.8116 21.5609 13.8067 21.5421 13.8018C21.4354 13.461 21.3288 13.1202 21.213 12.7512C21.0943 12.3773 20.9847 12.0317 20.8752 11.686Z" fill="#D2524F"/>
<path d="M14.127 21.0057C14.1431 21.0049 14.1592 21.0041 14.1872 21.002C14.2604 21.0539 14.2947 21.1045 14.1847 21.1393C14.1723 21.1433 14.1585 21.1452 14.1454 21.1446C13.9947 21.138 13.844 21.1308 13.6933 21.1238C13.7317 20.9974 13.7595 20.8666 13.8102 20.7455C13.9842 20.3298 14.1662 19.9176 14.3536 19.4934C14.3725 19.4915 14.3831 19.5002 14.3953 19.5298C14.2333 19.9675 14.0679 20.3835 13.9081 20.8017C13.8867 20.8575 13.8939 20.9241 13.8878 20.9857C13.9676 20.9924 14.0473 20.999 14.127 21.0057Z" fill="#363535"/>
<path d="M21.5443 13.8181C21.5609 13.8067 21.5797 13.8116 21.6078 13.8187C21.7196 14.1536 21.816 14.4884 21.9277 14.8179C21.9732 14.9523 22.0582 15.0729 22.1135 15.2046C22.1584 15.3117 22.1859 15.426 22.2202 15.5541C22.2052 15.5888 22.1912 15.6066 22.1716 15.6309C22.1558 15.616 22.1455 15.5947 22.1361 15.5592C22.137 15.545 22.129 15.5296 22.129 15.5296C21.9349 14.9646 21.7407 14.3996 21.5443 13.8181Z" fill="#D56F6A"/>
<path d="M7.32807 11.8829C7.54068 11.6465 7.75328 11.4101 7.99177 11.1681C8.03797 11.1627 8.0583 11.1628 8.07188 11.1742C8.01574 11.276 7.96635 11.3666 7.90288 11.4612C7.78861 11.5738 7.68841 11.6823 7.57608 11.7963C7.35055 12.025 7.13682 12.248 6.92387 12.4717C6.79263 12.6096 6.77419 12.7511 6.88791 12.9159C6.93375 12.9823 6.93894 13.0768 6.96174 13.1587C6.96085 13.159 6.96208 13.1573 6.96208 13.1573C6.908 13.0663 6.8421 12.9801 6.8023 12.8833C6.71941 12.6816 6.75087 12.4945 6.90709 12.3338C7.00428 12.2338 7.09856 12.1309 7.20072 12.0174C7.24241 11.9736 7.27752 11.9418 7.31994 11.8986C7.32725 11.8872 7.32807 11.8829 7.32807 11.8829Z" fill="#D2524F"/>
<path d="M14.7945 23.9505C14.8631 23.9195 14.9379 23.9003 15.0334 23.8758C15.0309 23.8654 15.0171 23.8084 15.0019 23.7386C15.1415 23.6751 15.2152 23.7131 15.2044 23.8742C15.1979 23.9719 15.1994 24.0702 15.182 24.1952C15.1412 24.3957 15.1158 24.5692 15.0831 24.7928C15.0433 24.6569 15.0173 24.5683 14.9914 24.4798C14.9216 24.4853 14.8518 24.4908 14.751 24.4988C14.831 24.3918 14.9342 24.3146 14.9364 24.2347C14.9388 24.1452 14.8498 24.0533 14.7945 23.9505Z" fill="#454646"/>
<path d="M23.8368 24.3598C23.7965 24.3596 23.7563 24.3593 23.7011 24.3589C23.6511 24.2893 23.6142 24.2208 23.5817 24.1502C23.5145 24.0041 23.45 23.857 23.2586 23.8409C23.0516 23.8235 22.857 23.8323 22.7389 24.0737C22.694 24.083 22.674 24.0837 22.654 24.0843C22.6477 24.0322 22.6415 23.98 22.6352 23.9278C22.6194 23.7973 22.6624 23.7239 22.8084 23.7417C23.0639 23.7728 23.3196 23.8012 23.5893 23.8526C23.6172 24.0527 23.6866 24.198 23.8467 24.3C23.8419 24.3279 23.8393 24.3439 23.8368 24.3598Z" fill="#48494A"/>
<path d="M15.8867 25.054C15.9129 25.0057 15.9502 24.9661 15.9983 24.918C16.4065 25.1128 16.5681 25.09 16.6931 24.6849C16.7398 24.5336 16.7941 24.3846 16.8545 24.223C16.8955 24.261 16.927 24.3104 16.9584 24.3598C16.9584 24.611 16.9584 24.8622 16.9584 25.1134C16.9362 25.1175 16.914 25.1215 16.8918 25.1255C16.8783 25.0799 16.8647 25.0343 16.8587 24.9588C16.8713 24.8158 16.8764 24.7026 16.8815 24.5894C16.8628 24.5868 16.844 24.5841 16.8253 24.5815C16.8003 24.6859 16.7753 24.7902 16.7502 24.8946C16.5526 25.1595 16.3428 25.2009 15.8867 25.054Z" fill="#626566"/>
<path d="M8.24152 14.2044C8.19702 14.2951 8.15251 14.3859 8.10036 14.4848C7.62035 14.1413 7.25012 13.7019 6.96613 13.1712C6.96208 13.1573 6.96085 13.159 6.9726 13.1666C7.25211 13.4566 7.52054 13.7385 7.78662 14.0225C7.81278 14.0505 7.82747 14.0907 7.84248 14.1273C7.94653 14.381 8.04538 14.4005 8.24152 14.2044Z" fill="#D2524F"/>
<path d="M15.5585 3.87901C15.5439 3.82118 15.5293 3.76335 15.5273 3.68335C15.5934 3.6364 15.6503 3.61686 15.7001 3.5859C15.8792 3.47451 16.056 3.35927 16.2337 3.24548C16.3178 3.23068 16.4019 3.21589 16.4985 3.2141C16.4129 3.3091 16.3118 3.38782 16.2182 3.47462C16.1783 3.51155 16.1542 3.56536 16.1229 3.6115C16.0891 3.64044 16.0553 3.66937 15.9959 3.70462C15.833 3.76696 15.6957 3.82299 15.5585 3.87901Z" fill="#1B1B1A"/>
<path d="M22.646 24.0961C22.674 24.0837 22.694 24.083 22.7291 24.082C22.7052 24.2081 22.6681 24.3351 22.6269 24.4607C22.5441 24.7134 22.6739 24.8818 22.9373 24.8792C22.9931 24.8787 23.0495 24.9379 23.1495 24.9944C23.0293 25.0349 22.9755 25.0531 22.9152 25.0828C22.5704 25.0172 22.3946 24.5538 22.5734 24.2077C22.5915 24.1727 22.6163 24.141 22.646 24.0961Z" fill="#626566"/>
<path d="M8.90436 23.7966C8.9064 23.853 8.89469 23.9119 8.88029 23.9989C8.89133 24.0846 8.90506 24.1421 8.91879 24.1996C8.92306 24.3329 8.92733 24.4662 8.92021 24.6294C8.88935 24.7173 8.8699 24.7753 8.8432 24.8549C8.8044 24.7906 8.77861 24.7479 8.75281 24.7052C8.73746 24.621 8.73155 24.5335 8.70357 24.4537C8.68339 24.3961 8.63382 24.3489 8.58444 24.2786C8.67106 24.143 8.78084 23.971 8.90436 23.7966Z" fill="#48494A"/>
<path d="M16.1379 3.60941C16.1542 3.56537 16.1783 3.51155 16.2182 3.47463C16.3118 3.38783 16.4129 3.30911 16.5145 3.21419C16.7364 3.08396 16.9548 2.96665 17.1863 2.84402C17.2276 2.85382 17.2557 2.86892 17.2918 2.88826C17.2728 2.91335 17.2592 2.94617 17.2346 2.96175C16.901 3.17347 16.5661 3.38324 16.2303 3.59166C16.2094 3.60466 16.179 3.60244 16.1379 3.60941Z" fill="#413E3F"/>
<path d="M18.4969 24.4981C18.6586 24.4919 18.6309 24.3621 18.655 24.271C18.6559 24.2677 18.6652 24.2647 18.6704 24.2649C18.6762 24.2653 18.6818 24.2695 18.694 24.276C18.7024 24.5174 18.7109 24.7551 18.7009 24.992C18.6989 25.0392 18.6258 25.0834 18.5856 25.129C18.553 25.0832 18.4953 25.0389 18.4925 24.9913C18.4831 24.8338 18.4936 24.6751 18.4969 24.4981Z" fill="#626566"/>
<path d="M17.5854 3.12509C17.5982 3.13638 17.5992 3.14976 17.5905 3.18363C17.3407 3.35464 17.0988 3.5027 16.8607 3.65651C16.6902 3.76665 16.5247 3.88449 16.357 3.99889C16.4449 3.91015 16.537 3.82513 16.6193 3.73144C16.6807 3.6615 16.7293 3.58037 16.7664 3.52839C16.8375 3.51542 16.9122 3.51898 16.9682 3.48844C17.1532 3.38765 17.3314 3.27452 17.5212 3.15651C17.5447 3.14032 17.5591 3.13375 17.5854 3.12509Z" fill="#D2524F"/>
<path d="M21.7996 18.2237C21.7934 18.2339 21.7886 18.2296 21.7899 18.2306C21.6301 17.8539 21.4676 17.4768 21.3095 17.098C21.2876 17.0456 21.2867 16.9844 21.2775 16.9128C21.3304 16.9885 21.3947 17.0738 21.4308 17.1697C21.5609 17.5157 21.6816 17.8653 21.7996 18.2237Z" fill="#D2524F"/>
<path d="M20.556 15.3379C20.5702 15.3224 20.5861 15.3219 20.6139 15.3201C20.7924 15.7164 20.959 16.1139 21.124 16.5261C21.001 16.2946 20.8776 16.0494 20.7589 15.8019C20.688 15.6541 20.6245 15.5026 20.556 15.3379Z" fill="#D56F6A"/>
<path d="M16.4001 23.723C16.4817 23.5003 16.5336 23.4818 16.7168 23.6093C16.765 23.6429 16.8139 23.6754 16.8717 23.7246C16.8861 23.7615 16.8914 23.7822 16.8967 23.8029C16.9152 23.7765 16.9337 23.75 16.9523 23.7235C17.0122 23.7498 17.0722 23.7761 17.1322 23.8024C17.0941 23.8291 17.056 23.8558 16.9934 23.8899C16.9245 23.9506 16.88 24.0038 16.8315 24.0434C16.7497 23.8373 16.5955 23.7514 16.4001 23.723Z" fill="#050304"/>
<path d="M16.3869 23.7263C16.5955 23.7514 16.7497 23.8374 16.8193 24.056C16.7924 24.0966 16.7738 24.1109 16.7553 24.1251C16.7039 24.0741 16.6464 24.0278 16.6022 23.9711C16.4916 23.8291 16.372 23.7949 16.209 23.8939C16.1589 23.9243 16.0747 23.8986 16.0062 23.8986C16.004 23.87 16.0018 23.8415 15.9996 23.8129C16.0968 23.7888 16.1941 23.7647 16.3055 23.7343C16.3377 23.7286 16.3557 23.7291 16.3869 23.7263Z" fill="#626566"/>
<path d="M17.6928 24.5038C17.73 24.5915 17.7653 24.6973 17.8064 24.8204C17.8339 24.6811 17.8594 24.5516 17.8963 24.4136C17.9082 24.6039 17.9155 24.8031 17.9044 25.0013C17.902 25.0457 17.8357 25.0866 17.7988 25.1292C17.7623 25.0858 17.698 25.0447 17.6943 24.9987C17.6817 24.8407 17.6903 24.6809 17.6928 24.5038Z" fill="#626566"/>
<path d="M20.192 24.834C20.2198 24.8461 20.2476 24.8582 20.2891 24.8768C20.175 25.12 19.9321 25.1567 19.7069 25.2028C19.6302 25.2185 19.535 25.1435 19.4398 25.0994C19.4988 25.0879 19.5663 25.087 19.6643 25.0858C19.9018 25.0833 20.0715 25.0072 20.192 24.834Z" fill="#626566"/>
<path d="M11.264 24.5389C11.2966 24.5654 11.3397 24.6039 11.364 24.6519C11.4614 24.8446 11.5777 25.004 11.8091 25.0597C11.8826 25.0774 11.9366 25.1767 11.9962 25.2514C11.6147 25.1672 11.3254 24.979 11.264 24.5389Z" fill="#48494A"/>
<path d="M9.71537 24.696C9.77314 24.6312 9.83011 24.5848 9.89768 24.5318C9.89617 24.7029 9.89765 24.883 9.86624 25.0573C9.85045 25.1448 9.7749 25.2216 9.72637 25.3033C9.71041 25.2939 9.69445 25.2846 9.6785 25.2752C9.69052 25.0882 9.70255 24.9013 9.71537 24.696Z" fill="#626566"/>
<path d="M14.0243 24.5497C14.0861 24.6182 14.1464 24.7042 14.2191 24.7948C14.2306 24.8518 14.2263 24.9045 14.2296 24.9568C14.2405 25.1287 14.1506 25.1554 14.0229 25.1216C14.0229 24.9307 14.0229 24.749 14.0243 24.5497Z" fill="#626566"/>
<path d="M14.9895 24.4985C15.0174 24.5683 15.0433 24.6569 15.0831 24.7928C15.1158 24.5692 15.1412 24.3957 15.1782 24.2135C15.1869 24.4689 15.1879 24.7332 15.1772 24.997C15.1756 25.0387 15.1214 25.0784 15.0914 25.1189C15.0563 25.0768 14.9944 25.0366 14.991 24.992C14.979 24.8345 14.9871 24.6755 14.9895 24.4985Z" fill="#626566"/>
<path d="M16.2191 3.24496C16.056 3.35928 15.8792 3.47452 15.7001 3.58591C15.6503 3.61687 15.5934 3.63641 15.5293 3.6702C15.4207 3.69786 15.3227 3.71651 15.2135 3.72878C15.5363 3.56308 15.8704 3.40376 16.2191 3.24496Z" fill="#48494A"/>
<path d="M21.3852 11.3601C21.3615 11.5007 21.3298 11.6438 21.2795 11.7802C21.2679 11.8116 21.1929 11.8196 21.1337 11.8206C21.1231 11.6857 21.1259 11.5684 21.1288 11.4511C21.2093 11.4208 21.2898 11.3904 21.3852 11.3601Z" fill="#363535"/>
<path d="M23.8489 24.2881C23.6866 24.198 23.6172 24.0527 23.6001 23.8625C23.649 23.8301 23.7012 23.8096 23.7649 23.7816C23.8232 23.9294 23.8701 24.0846 23.9054 24.2585C23.8789 24.2807 23.8639 24.2844 23.8489 24.2881Z" fill="#363535"/>
<path d="M10.4901 24.4575C10.55 24.5186 10.6112 24.597 10.6878 24.6785C10.7021 24.7803 10.7109 24.8806 10.6962 24.9773C10.6885 25.0285 10.64 25.0735 10.6099 25.1213C10.574 25.0701 10.5128 25.0217 10.5072 24.9674C10.4903 24.8044 10.4951 24.6391 10.4901 24.4575Z" fill="#626566"/>
<path d="M10.6922 23.4079C10.6255 23.5467 10.5585 23.6714 10.478 23.804C10.4375 23.8117 10.4106 23.8115 10.3685 23.7948C10.3551 23.7586 10.3567 23.739 10.3583 23.7194C10.5686 23.6861 10.4372 23.5182 10.4776 23.418C10.4995 23.3637 10.5268 23.3115 10.5516 23.2583C10.5983 23.3035 10.6451 23.3487 10.6922 23.4079Z" fill="#48494A"/>
<path d="M12.6069 7.8053C12.6868 7.76644 12.7668 7.72758 12.8595 7.68559C12.8501 7.71461 12.8278 7.74677 12.7943 7.79436C12.7724 7.81743 12.7663 7.82779 12.7649 7.84089C12.7649 7.84089 12.761 7.84089 12.7523 7.8457C12.7328 7.85776 12.7266 7.86788 12.7251 7.88086C12.5518 8.05445 12.3785 8.22804 12.1904 8.41922C12.1686 8.45015 12.1616 8.4635 12.1546 8.47685C12.1546 8.47685 12.1365 8.47767 12.1274 8.47801C12.1183 8.47834 12.1195 8.47943 12.1223 8.46523C12.1738 8.38136 12.2242 8.31278 12.2709 8.24177C12.331 8.15033 12.3882 8.05695 12.4453 7.96419C12.444 7.96397 12.4446 7.96668 12.459 7.96582C12.5176 7.91136 12.5617 7.85775 12.6059 7.80369C12.606 7.80324 12.6069 7.8053 12.6069 7.8053Z" fill="#D2524F"/>
<path d="M8.75077 24.7231C8.77862 24.7479 8.80441 24.7906 8.84321 24.8549C8.86991 24.7753 8.88936 24.7173 8.91637 24.6471C8.93293 24.7661 8.94871 24.8974 8.94657 25.0284C8.94598 25.0645 8.88288 25.1335 8.86418 25.1286C8.81871 25.1164 8.75397 25.0741 8.7481 25.0361C8.73328 24.94 8.74664 24.8397 8.75077 24.7231Z" fill="#626566"/>
<path d="M12.5455 5.03929C12.5213 5.23136 12.259 5.38743 12.0005 5.35312C12.1696 5.24362 12.3504 5.14295 12.5455 5.03929Z" fill="#413E3F"/>
<path d="M24.3672 22.5837C24.3829 22.5489 24.4006 22.4835 24.4141 22.4844C24.51 22.4904 24.6456 22.7756 24.5973 22.8623C24.5895 22.8763 24.5634 22.88 24.5279 22.8875C24.4999 22.8826 24.4896 22.8793 24.479 22.8766C24.479 22.8766 24.4793 22.8802 24.4796 22.8653C24.4424 22.7614 24.4048 22.6726 24.3672 22.5837Z" fill="#D56F6A"/>
<path d="M21.1091 11.4493C21.1259 11.5684 21.1231 11.6857 21.119 11.8208C21.0941 11.8502 21.0706 11.8618 21.0345 11.8779C21.0005 11.8243 20.9791 11.7662 20.9516 11.696C20.924 11.6154 20.9023 11.547 20.8866 11.4639C20.9582 11.4487 21.0239 11.4481 21.1091 11.4493Z" fill="#1B1B1A"/>
<path d="M16.7608 24.1354C16.7738 24.1109 16.7924 24.0966 16.8232 24.0697C16.88 24.0038 16.9245 23.9506 16.9785 23.8914C17.007 24.0361 17.1043 24.1902 16.9633 24.3469C16.927 24.3104 16.8955 24.261 16.8527 24.206C16.8163 24.1822 16.7913 24.164 16.7608 24.1354Z" fill="#454646"/>
<path d="M24.3565 22.5945C24.4048 22.6726 24.4424 22.7614 24.4814 22.8651C24.4516 22.8993 24.4203 22.9187 24.3858 22.9492C24.358 22.9637 24.3335 22.9671 24.2906 22.9737C24.2421 22.8908 24.212 22.8049 24.1821 22.703C24.2369 22.6599 24.2913 22.6326 24.3565 22.5945Z" fill="#1B1B1A"/>
<path d="M17.6185 23.7545C17.6472 23.7778 17.6601 23.8012 17.6765 23.8339C17.5604 23.8893 17.4408 23.9354 17.3141 23.9843C17.3186 23.9552 17.3253 23.9117 17.3409 23.8478C17.3605 23.8072 17.3713 23.787 17.3821 23.7668C17.4556 23.7628 17.5291 23.7587 17.6185 23.7545Z" fill="#626566"/>
<path d="M10.7769 23.8048C10.7703 23.7624 10.78 23.7213 10.7997 23.6732C10.9251 23.7022 11.0405 23.738 11.1558 23.7739C11.1541 23.7935 11.1525 23.8132 11.1509 23.8328C11.0316 23.8238 10.9124 23.8149 10.7769 23.8048Z" fill="#626566"/>
<path d="M18.6264 23.5404C18.5941 23.5182 18.5606 23.4872 18.5475 23.4491C18.5318 23.404 18.5337 23.3528 18.5246 23.2934C18.5838 23.2825 18.6464 23.2825 18.7429 23.2825C18.6992 23.3814 18.6667 23.4549 18.6264 23.5404Z" fill="#626566"/>
<path d="M12.1172 24.2886C12.1196 24.3057 12.1221 24.3227 12.1256 24.3527C12.1268 24.3656 12.1264 24.365 12.1115 24.3702C12.0715 24.3935 12.0464 24.4115 12.0213 24.4296C11.9526 24.466 11.884 24.5025 11.806 24.5481C11.7871 24.5177 11.7775 24.478 11.7778 24.4172C11.8975 24.3603 12.0074 24.3244 12.1172 24.2886Z" fill="#626566"/>
<path d="M12.9711 18.7243C12.9903 18.6666 13.0095 18.6022 13.0526 18.5686C13.0848 18.5435 13.148 18.5581 13.203 18.568C13.1329 18.6309 13.0572 18.6808 12.9711 18.7243Z" fill="#413E3F"/>
<path d="M16.7636 24.9013C16.7752 24.7903 16.8003 24.6859 16.8253 24.5815C16.844 24.5841 16.8627 24.5868 16.8815 24.5894C16.8764 24.7026 16.8713 24.8158 16.8594 24.9429C16.8274 24.9405 16.8022 24.9243 16.7636 24.9013Z" fill="#413E3F"/>
<path d="M10.3458 23.7207C10.3567 23.739 10.3551 23.7586 10.3551 23.7928C10.2716 23.8484 10.1864 23.8894 10.081 23.9369C10.0537 23.9418 10.0465 23.9403 10.0393 23.9388C10.062 23.7644 10.2231 23.7777 10.3458 23.7207Z" fill="#050304"/>
<path d="M15.6582 5.55995C15.7049 5.57684 15.7599 5.60316 15.837 5.64207C15.8803 5.70104 15.9016 5.74742 15.92 5.80213C15.9175 5.83399 15.9179 5.85752 15.9182 5.88105C15.866 5.82112 15.8138 5.76119 15.7494 5.69529C15.7137 5.64934 15.6901 5.60936 15.6582 5.55995Z" fill="#C61517"/>
<path d="M18.0036 3.54807C17.9483 3.46368 17.899 3.36546 17.8481 3.25352C18.0528 3.25387 18.0548 3.38102 18.0036 3.54807Z" fill="#050304"/>
<path d="M23.2702 10.7448C23.2426 10.8784 23.1702 10.9138 23.048 10.8088C23.1116 10.7797 23.1838 10.7612 23.2702 10.7448Z" fill="#363535"/>
<path d="M9.93776 24.1199C9.93377 24.0864 9.94372 24.0526 9.96425 24.0099C9.97484 24.0011 9.98036 24.001 9.99534 24.0051C10.0407 24.0062 10.0711 24.0032 10.1015 24.0001C10.1268 24.0167 10.1521 24.0333 10.2195 24.0774C10.1005 24.0961 10.0261 24.1078 9.93776 24.1199Z" fill="#050304"/>
<path d="M8.56543 20.4512C8.6443 20.4534 8.76368 20.427 8.71841 20.5949C8.66462 20.5579 8.6184 20.5099 8.56543 20.4512Z" fill="#454646"/>
<path d="M22.3868 24.1549C22.359 24.1222 22.3384 24.0956 22.3178 24.069C22.3316 24.0589 22.3454 24.0489 22.3593 24.0388C22.3833 24.0807 22.4073 24.1225 22.4314 24.1643C22.425 24.1654 22.4186 24.1677 22.4124 24.1672C22.4061 24.1666 22.4001 24.1632 22.3868 24.1549Z" fill="#626566"/>
<path d="M12.1064 24.4442C12.1138 24.4847 12.1212 24.5251 12.1286 24.5656C12.114 24.5713 12.0993 24.577 12.0847 24.5828C12.0633 24.5405 12.0419 24.4982 12.0349 24.4454C12.0683 24.438 12.0874 24.4411 12.1064 24.4442Z" fill="#626566"/>
<path d="M8.92143 24.1853C8.90507 24.1421 8.89134 24.0846 8.87895 24.0138C8.9001 24.001 8.9199 24.0014 8.95457 24.0015C8.95431 24.0579 8.93919 24.1144 8.92143 24.1853Z" fill="#626566"/>
<path d="M10.4455 24.2001C10.4299 24.2325 10.404 24.2667 10.3618 24.3C10.3754 24.2667 10.4052 24.2343 10.4455 24.2001Z" fill="#050304"/>
<path d="M11.2434 9.63192C11.2634 9.58384 11.2976 9.53276 11.3438 9.47571C11.323 9.5228 11.2903 9.57586 11.2434 9.63192Z" fill="#050304"/>
<path d="M16.9413 23.7234C16.9337 23.75 16.9152 23.7765 16.8967 23.8029C16.8914 23.7822 16.8861 23.7615 16.8836 23.7319C16.901 23.7231 16.9156 23.7232 16.9413 23.7234Z" fill="#454646"/>
<path d="M12.9985 7.59176C13.0188 7.55246 13.054 7.51025 13.1009 7.46045C13.0796 7.4982 13.0465 7.54352 12.9985 7.59176Z" fill="#050304"/>
<path d="M17.3697 23.7665C17.3713 23.787 17.3605 23.8072 17.3416 23.8353C17.3193 23.8264 17.3052 23.8094 17.291 23.7925C17.3131 23.7837 17.3352 23.775 17.3697 23.7665Z" fill="#050304"/>
<path d="M13.2054 7.31217C13.2145 7.28287 13.2357 7.24939 13.2675 7.21045C13.2579 7.23933 13.2376 7.27366 13.2054 7.31217Z" fill="#050304"/>
<path d="M12.1111 24.4316C12.0874 24.4411 12.0683 24.438 12.035 24.4318C12.0208 24.4287 12.0235 24.4281 12.0224 24.4288C12.0464 24.4116 12.0715 24.3935 12.1115 24.3707C12.1228 24.3836 12.1193 24.4013 12.1111 24.4316Z" fill="#48494A"/>
<path d="M23.4706 10.7072C23.4589 10.717 23.4369 10.7242 23.4082 10.7275C23.421 10.7173 23.4407 10.711 23.4706 10.7072Z" fill="#363535"/>
<path d="M9.96693 21.1943C9.96774 21.1831 9.97708 21.167 9.99286 21.1548C9.99414 21.1711 9.98619 21.1814 9.96693 21.1943Z" fill="#454646"/>
<path d="M13.4158 18.4078C13.4235 18.3864 13.4426 18.359 13.4737 18.3268C13.4662 18.3486 13.4466 18.3752 13.4158 18.4078Z" fill="#413E3F"/>
<path d="M9.51981 14.532C9.52379 14.544 9.52169 14.5677 9.50934 14.5929C9.50396 14.5775 9.50884 14.5606 9.51981 14.532Z" fill="#454646"/>
<path d="M10.0971 23.9871C10.0711 24.0032 10.0407 24.0062 9.9981 24.0053C9.99517 23.9849 10.0045 23.9684 10.0265 23.9454C10.0465 23.9403 10.0537 23.9418 10.0716 23.946C10.0857 23.9572 10.0892 23.9656 10.0971 23.9871Z" fill="#454646"/>
<path d="M13.9704 6.47378C13.9757 6.4507 13.9922 6.42547 14.0207 6.39862C14.0157 6.42188 13.9987 6.44676 13.9704 6.47378Z" fill="#9A2732"/>
<path d="M12.8914 7.66456C12.8985 7.65286 12.9129 7.63758 12.9319 7.61644C12.924 7.62738 12.9113 7.64418 12.8914 7.66456Z" fill="#D2524F"/>
<path d="M10.6621 10.3946C10.6671 10.3755 10.6819 10.3513 10.706 10.322C10.7009 10.3411 10.6864 10.3652 10.6621 10.3946Z" fill="#050304"/>
<path d="M13.8095 6.64468C13.8155 6.62206 13.8319 6.59288 13.8611 6.56075C13.8558 6.58457 13.8379 6.61134 13.8095 6.64468Z" fill="#9A2732"/>
<path d="M11.997 8.70453C11.9964 8.68867 12.005 8.66296 12.0243 8.6284C12.0254 8.6446 12.0158 8.66964 11.997 8.70453Z" fill="#050304"/>
<path d="M11.2288 24.233C11.2267 24.245 11.2152 24.2573 11.1935 24.2774C11.1954 24.2679 11.2073 24.2506 11.2288 24.233Z" fill="#413E3F"/>
<path d="M24.1582 24.9337C24.1718 24.9439 24.1851 24.9683 24.1993 25.007C24.1861 24.9968 24.1719 24.9724 24.1582 24.9337Z" fill="#454646"/>
<path d="M10.7499 10.2687C10.7521 10.2543 10.7642 10.232 10.787 10.2029C10.7851 10.2177 10.7725 10.2392 10.7499 10.2687Z" fill="#050304"/>
<path d="M10.2568 24.1604C10.2569 24.1586 10.2567 24.1622 10.2568 24.1604Z" fill="#050304"/>
<path d="M24.4766 22.8903C24.4896 22.8793 24.4999 22.8826 24.516 22.8919C24.521 22.9104 24.5199 22.9236 24.5157 22.9562C24.4998 22.9518 24.4869 22.9279 24.4766 22.8903Z" fill="#1B1B1A"/>
<path d="M10.4509 10.6297C10.4434 10.6217 10.4477 10.6131 10.4655 10.6066C10.4689 10.6135 10.4634 10.6204 10.4509 10.6297Z" fill="#050304"/>
<path d="M12.7715 7.83522C12.7663 7.8278 12.7724 7.81743 12.7916 7.806C12.7939 7.81227 12.7867 7.82139 12.7715 7.83522Z" fill="#050304"/>
<path d="M10.2471 10.9133C10.245 10.9079 10.2488 10.8952 10.2614 10.8774C10.2663 10.8845 10.2606 10.8957 10.2471 10.9133Z" fill="#050304"/>
<path d="M10.3647 10.7441C10.3583 10.7364 10.3631 10.7269 10.3808 10.7175C10.3846 10.7246 10.3787 10.7328 10.3647 10.7441Z" fill="#050304"/>
<path d="M9.70575 24.5351C9.70777 24.5344 9.71136 24.5488 9.71539 24.5714C9.713 24.5698 9.71016 24.56 9.70575 24.5351Z" fill="#626566"/>
<path d="M11.1222 9.7913C11.1211 9.78551 11.1277 9.77101 11.1447 9.7502C11.1467 9.75679 11.1383 9.76968 11.1222 9.7913Z" fill="#050304"/>
<path d="M10.419 10.6692C10.4117 10.6635 10.4137 10.6565 10.4269 10.6504C10.4326 10.6498 10.4229 10.6662 10.419 10.6692Z" fill="#050304"/>
<path d="M17.8309 3.2098C17.8246 3.20872 17.8125 3.19702 17.7985 3.17253C17.8062 3.17289 17.8155 3.18604 17.8309 3.2098Z" fill="#050304"/>
<path d="M10.4918 10.5891C10.4852 10.5817 10.4893 10.5737 10.5055 10.5674C10.5088 10.5741 10.5036 10.5805 10.4918 10.5891Z" fill="#050304"/>
<path d="M10.5317 10.5482C10.5252 10.5418 10.5285 10.5339 10.5429 10.5267C10.5467 10.5329 10.5424 10.5394 10.5317 10.5482Z" fill="#050304"/>
<path d="M10.8584 10.1121C10.8524 10.1063 10.8554 10.0987 10.8693 10.0917C10.8722 10.0971 10.868 10.1032 10.8584 10.1121Z" fill="#050304"/>
<path d="M10.8912 10.0695C10.8836 10.0625 10.8874 10.0525 10.9047 10.0415C10.9087 10.048 10.9035 10.0566 10.8912 10.0695Z" fill="#050304"/>
<path d="M11.0838 9.82974C11.0832 9.82394 11.0905 9.81196 11.1083 9.79683C11.1097 9.80364 11.1007 9.8136 11.0838 9.82974Z" fill="#050304"/>
<path d="M24.2777 25.4396C24.2784 25.4405 24.2715 25.4383 24.2735 25.4377C24.2755 25.4371 24.2771 25.4387 24.2777 25.4396Z" fill="#9A2732"/>
<path d="M13.9265 6.50839C13.9201 6.49966 13.9255 6.49035 13.9437 6.48167C13.9485 6.49003 13.9425 6.49853 13.9265 6.50839Z" fill="#9A2732"/>
<path d="M11.6156 9.15701C11.6103 9.14972 11.6158 9.14051 11.6337 9.13152C11.6361 9.13778 11.6295 9.14557 11.6156 9.15701Z" fill="#050304"/>
<path d="M12.1626 8.46931C12.1616 8.4635 12.1686 8.45015 12.1856 8.43127C12.1874 8.43776 12.179 8.44976 12.1626 8.46931Z" fill="#050304"/>
<path d="M11.804 8.95229C11.8033 8.94677 11.8103 8.93415 11.8274 8.91678C11.8288 8.92308 11.8203 8.93413 11.804 8.95229Z" fill="#050304"/>
<path d="M11.7645 8.99218C11.764 8.98657 11.7714 8.97477 11.7889 8.95959C11.7902 8.96614 11.7813 8.97607 11.7645 8.99218Z" fill="#050304"/>
<path d="M13.5036 6.95091C13.5013 6.95216 13.5048 6.9397 13.5084 6.94063C13.5119 6.94157 13.5058 6.94965 13.5036 6.95091Z" fill="#050304"/>
<path d="M17.7937 3.15796C17.7842 3.16482 17.7748 3.15836 17.7687 3.13672C17.7759 3.13463 17.7832 3.14233 17.7937 3.15796Z" fill="#050304"/>
<path d="M17.7419 3.10601C17.7362 3.10827 17.7225 3.10453 17.7034 3.0913C17.7099 3.08787 17.7219 3.09394 17.7419 3.10601Z" fill="#050304"/>
<path d="M11.6553 9.11629C11.6503 9.10941 11.6557 9.09995 11.6731 9.08965C11.6755 9.09555 11.669 9.10385 11.6553 9.11629Z" fill="#050304"/>
<path d="M10.2061 10.9811C10.2044 10.9746 10.2106 10.9606 10.2277 10.942C10.2304 10.9494 10.2221 10.9615 10.2061 10.9811Z" fill="#050304"/>
<path d="M13.291 7.19022C13.2849 7.18314 13.2898 7.1733 13.3073 7.16266C13.3104 7.16893 13.3043 7.17747 13.291 7.19022Z" fill="#050304"/>
<path d="M11.5793 9.19363C11.5735 9.18659 11.578 9.17836 11.5946 9.17113C11.5971 9.17705 11.5914 9.18383 11.5793 9.19363Z" fill="#050304"/>
<path d="M11.5218 9.26857C11.5209 9.26276 11.5283 9.24882 11.5459 9.22839C11.5474 9.23475 11.5387 9.24759 11.5218 9.26857Z" fill="#050304"/>
<path d="M12.7318 7.87565C12.7266 7.86789 12.7328 7.85776 12.7523 7.84764C12.7546 7.85431 12.7472 7.86286 12.7318 7.87565Z" fill="#050304"/>
<path d="M13.1415 7.39063C13.1348 7.38501 13.1377 7.37626 13.1523 7.36618C13.1556 7.37132 13.1513 7.37887 13.1415 7.39063Z" fill="#050304"/>
<path d="M20.8782 11.4395C20.8702 11.4405 20.8573 11.4321 20.8457 11.4104C20.8557 11.4081 20.8645 11.4192 20.8782 11.4395Z" fill="#1B1B1A"/>
<path d="M10.1979 13.574C10.2785 13.438 10.3578 13.3165 10.4355 13.1938C10.6035 12.9282 10.8695 13.0335 11.1024 13.0264C11.1226 13.0257 11.1748 13.1415 11.1631 13.1918C11.1197 13.3785 11.0521 13.5594 11.0005 13.7444C10.9409 13.9579 10.9227 14.1719 11.0325 14.3892C11.036 14.4549 11.034 14.511 11.016 14.588C10.8732 14.704 10.7699 14.8042 10.9225 14.9608C10.9187 15.0293 10.9149 15.0977 10.8953 15.1875C10.7056 15.2901 10.8088 15.4561 10.7665 15.5777C10.7663 15.5917 10.7661 15.6057 10.7487 15.6321C10.6933 15.6848 10.6244 15.7235 10.6223 15.7656C10.6152 15.9091 10.6315 16.0538 10.6389 16.198C10.6357 16.2056 10.6325 16.2132 10.6224 16.2311C10.4555 16.2314 10.2955 16.2214 10.1053 16.2095C10.0933 16.0596 10.173 15.9462 10.4278 15.9168C10.3231 15.8546 10.2725 15.8038 10.2151 15.7943C10.0375 15.7651 9.92171 15.6803 9.89655 15.4957C9.88504 15.4112 9.85579 15.3188 9.87752 15.2422C9.93134 15.0523 9.95927 14.8709 9.87745 14.6819C9.85858 14.6383 9.87466 14.5796 9.87466 14.5097C9.83004 14.4918 9.77214 14.4686 9.67444 14.4295C9.79606 14.2208 9.90813 14.0233 10.0257 13.8292C10.0766 13.7452 10.1388 13.6681 10.1979 13.574Z" fill="#454646"/>
<path d="M19.4781 13.1965C19.3583 13.3536 19.2795 13.223 19.2162 13.1461C18.9325 12.8009 18.5978 12.7811 18.2185 13.0279C17.9657 13.1925 17.6635 13.2812 17.3697 13.4006C17.4581 13.3365 17.5599 13.2755 17.6621 13.2152C17.9415 13.0504 18.2114 12.8654 18.5036 12.7277C18.739 12.6166 19.0014 12.5628 19.2771 12.4924C19.3266 12.5348 19.3507 12.5683 19.3748 12.6147C19.3748 12.6449 19.3749 12.6622 19.3635 12.6832C19.3751 12.8389 19.3964 12.9912 19.4235 13.1424C19.4271 13.1631 19.4592 13.1786 19.4781 13.1965Z" fill="#363535"/>
<path d="M19.3748 12.6018C19.3507 12.5683 19.3266 12.5348 19.294 12.492C19.0202 11.8677 18.7739 11.2438 18.4843 10.6405C18.2089 10.0669 17.8868 9.51566 17.5889 8.95266C17.5183 8.81931 17.4623 8.67827 17.4005 8.52872C17.4544 8.55938 17.5268 8.59142 17.5574 8.64661C17.7131 8.92759 17.8581 9.21456 18.011 9.5222C18.0242 9.56104 18.0332 9.57712 18.0422 9.59319C18.0715 9.64805 18.1009 9.7029 18.136 9.7797C18.173 9.86011 18.2043 9.91857 18.2356 9.97703C18.2398 9.98257 18.2439 9.9881 18.2552 10.0098C18.2798 10.0398 18.2974 10.0535 18.315 10.0673C18.3206 10.0778 18.3262 10.0883 18.3364 10.1244C18.3606 10.1858 18.38 10.2216 18.3995 10.2575C18.415 10.2858 18.4305 10.3141 18.4554 10.3656C18.4875 10.4287 18.5101 10.4686 18.5327 10.5085C18.6837 10.8277 18.8347 11.1469 18.9881 11.4856C19.0048 11.5211 19.0192 11.537 19.0335 11.5529C19.0395 11.5741 19.0455 11.5952 19.0564 11.641C19.0791 11.6802 19.0969 11.695 19.1147 11.7097C19.1193 11.7195 19.1238 11.7293 19.1341 11.7671C19.2183 11.9953 19.3023 12.1936 19.3721 12.3968C19.3932 12.4582 19.375 12.5331 19.3748 12.6018Z" fill="#D2524F"/>
<path d="M16.8745 7.28557C17.0305 7.61439 17.1884 7.94234 17.3405 8.27291C17.3654 8.32686 17.365 8.39241 17.3721 8.46539C17.213 8.18456 17.0577 7.89117 16.9034 7.59721C16.8053 7.41032 16.7088 7.22259 16.6122 7.01267C16.6222 6.97639 16.6318 6.96268 16.6519 6.95862C16.7201 7.05821 16.7778 7.14815 16.8396 7.24776C16.854 7.26682 16.8643 7.27619 16.8745 7.28557Z" fill="#D56F6A"/>
<path d="M16.6413 6.94897C16.6318 6.96269 16.6222 6.9764 16.6085 6.99721C16.3752 6.64819 16.1461 6.29207 15.9319 5.92443C15.9747 5.91756 16.0026 5.92219 16.0317 5.92712C16.0329 5.92741 16.0346 5.9256 16.0375 5.93814C16.0781 5.99731 16.1157 6.04394 16.156 6.10317C16.1659 6.13128 16.1732 6.14678 16.1831 6.17447C16.2425 6.26914 16.2993 6.35163 16.3628 6.44396C16.3814 6.46421 16.3933 6.4746 16.4076 6.4984C16.487 6.65753 16.5642 6.80325 16.6413 6.94897Z" fill="#D2524F"/>
<path d="M10.6512 16.1903C10.6315 16.0538 10.6151 15.9091 10.6223 15.7656C10.6244 15.7235 10.6933 15.6848 10.7458 15.6423C10.7278 15.8208 10.6956 16.0017 10.6512 16.1903Z" fill="#48494A"/>
<path d="M10.7806 15.572C10.8088 15.4561 10.7056 15.2901 10.891 15.2041C10.908 15.3339 10.9686 15.4846 10.7806 15.572Z" fill="#413E3F"/>
<path d="M10.9305 14.9491C10.7699 14.8042 10.8732 14.704 11.0116 14.6043C10.995 14.7123 10.9667 14.8248 10.9305 14.9491Z" fill="#413E3F"/>
<path d="M12.9465 15.919C12.9618 16.0532 12.9507 16.1782 12.7329 16.168C12.7775 16.0931 12.8062 16.0447 12.8372 15.9845C12.8707 15.9555 12.902 15.9383 12.9465 15.919Z" fill="#454646"/>
<path d="M17.2665 13.4448C17.2257 13.6054 17.0884 13.6474 16.9251 13.6741C17.0237 13.5981 17.1381 13.5226 17.2665 13.4448Z" fill="#363535"/>
<path d="M13.5472 15.5993C13.5562 15.8579 13.5562 15.8579 13.3922 15.8844C13.4232 15.8076 13.4508 15.7395 13.4792 15.6575C13.4986 15.6299 13.5173 15.6161 13.5472 15.5993Z" fill="#454646"/>
<path d="M11.8134 11.7099C11.7727 11.7072 11.738 11.6956 11.7033 11.684C11.7038 11.6715 11.7042 11.659 11.7046 11.6466C11.7416 11.6429 11.7785 11.6393 11.8275 11.6378C11.8329 11.6602 11.8262 11.6806 11.8134 11.7099Z" fill="#363535"/>
<path d="M16.0305 5.92682C16.0026 5.92218 15.9747 5.91755 15.9331 5.90929C15.9194 5.90566 15.9156 5.89352 15.9169 5.88728C15.9179 5.85752 15.9176 5.83399 15.9321 5.80733C15.9749 5.84507 16.0027 5.88594 16.0305 5.92682Z" fill="#EF0907"/>
<path d="M12.342 16.3058C12.3327 16.3162 12.3107 16.3288 12.2845 16.3335C12.2966 16.3197 12.3129 16.314 12.342 16.3058Z" fill="#454646"/>
<path d="M16.5105 13.8152C16.5003 13.835 16.4782 13.8537 16.4451 13.8746C16.4555 13.8559 16.4771 13.835 16.5105 13.8152Z" fill="#363535"/>
<path d="M17.3609 8.4804C17.3598 8.47826 17.3652 8.48228 17.3642 8.48153C17.3632 8.48078 17.362 8.48254 17.3609 8.4804Z" fill="#D56F6A"/>
<path d="M9.48931 14.9212C9.48945 15.0415 9.47905 15.1663 9.46513 15.3333C9.23541 15.1378 9.43193 15.0413 9.48931 14.9212Z" fill="#454646"/>
<path d="M16.3187 15.1071C16.2828 15.0903 16.2455 15.0606 16.2083 15.0309C16.2253 15.0169 16.2424 15.0029 16.2594 14.989C16.2788 15.024 16.2981 15.0591 16.3187 15.1071Z" fill="#454646"/>
<path d="M13.9346 15.5554C13.9028 15.5657 13.879 15.5713 13.8552 15.5769C13.8525 15.5639 13.8497 15.551 13.847 15.5381C13.8824 15.5314 13.9178 15.5247 13.9532 15.518C13.9536 15.524 13.9556 15.5306 13.9539 15.5359C13.952 15.5415 13.9466 15.5458 13.9346 15.5554Z" fill="#454646"/>
<path d="M16.48 14.44C16.4594 14.4683 16.4388 14.4966 16.4182 14.5248C16.3998 14.5043 16.3814 14.4838 16.3615 14.4517C16.36 14.4401 16.36 14.44 16.375 14.44C16.42 14.44 16.45 14.44 16.4799 14.44L16.48 14.44Z" fill="#454646"/>
<path d="M14.2388 15.3594C14.2505 15.3498 14.262 15.3467 14.2734 15.3436C14.273 15.3547 14.2726 15.3659 14.2722 15.377C14.2609 15.3733 14.2497 15.3696 14.2388 15.3594Z" fill="#454646"/>
<path d="M9.61177 14.7235C9.613 14.7393 9.60934 14.7505 9.60567 14.7617C9.59696 14.7543 9.58825 14.7469 9.57954 14.7395C9.58865 14.7327 9.59776 14.7259 9.61177 14.7235Z" fill="#454646"/>
<path d="M13.1613 16.0305C13.1626 16.0305 13.16 16.0304 13.1613 16.0305Z" fill="#454646"/>
<path d="M16.0317 5.92711C16.0027 5.88594 15.9749 5.84507 15.9349 5.799C15.9016 5.74742 15.8804 5.70104 15.8494 5.64579C15.9229 5.54263 15.9925 5.42868 16.0928 5.35888C16.228 5.26485 16.3001 5.15273 16.3457 4.99552C16.4592 4.60471 16.7401 4.33061 17.0739 4.13354C17.3819 3.95171 17.9324 4.24139 18.005 4.5859C18.0131 4.62419 18.024 4.66591 18.0465 4.69651C18.3646 5.12846 18.4932 5.63873 18.6512 6.1378C18.7174 6.34684 18.8061 6.54866 18.8775 6.75618C18.9279 6.90273 18.9891 7.03686 18.9507 7.21477C18.9281 7.31918 19.0361 7.47536 19.1232 7.57526C19.3466 7.83138 19.4192 8.11818 19.4172 8.45294C19.4157 8.70985 19.3713 9.01287 19.6986 9.15197C19.7228 9.16226 19.746 9.20432 19.7479 9.23301C19.7592 9.40843 19.7594 9.58463 19.7732 9.75979C19.7803 9.85041 19.7783 9.96687 19.8315 10.0239C19.9761 10.1787 19.9936 10.3658 20.0297 10.5551C20.1155 11.0047 20.2175 11.4514 20.2958 11.9022C20.3172 12.025 20.2778 12.1583 20.2614 12.342C20.1689 12.2625 20.1281 12.206 20.0737 12.1854C19.9823 12.1506 19.8828 12.1348 19.7854 12.119C19.7492 12.1131 19.6928 12.1493 19.6736 12.1331C19.526 12.0082 19.3382 11.9004 19.252 11.7395C19.0583 11.378 18.9246 10.985 18.7497 10.6126C18.6341 10.3665 18.4849 10.1364 18.3592 9.89467C18.2649 9.71328 18.1939 9.5195 18.0955 9.34059C17.8182 8.83657 17.5351 8.33573 17.2482 7.83713C17.141 7.6508 17.017 7.47413 16.8876 7.28931C16.8643 7.27619 16.854 7.26681 16.8403 7.2323C16.7379 6.93961 16.7333 6.61567 16.4053 6.48498C16.3933 6.47459 16.3814 6.4642 16.3624 6.42988C16.297 6.32473 16.2387 6.2435 16.1804 6.16227C16.1732 6.14677 16.1659 6.13127 16.1562 6.0883C16.1141 6.01575 16.0744 5.97067 16.0346 5.92559C16.0346 5.92559 16.0329 5.9274 16.0317 5.92711Z" fill="#F80604"/>
<path d="M22.8131 20.9261C22.552 20.1924 22.291 19.4587 22.0291 18.7107C22.1082 18.7106 22.1881 18.7247 22.2967 18.7439C22.2967 18.6789 22.3137 18.5901 22.2937 18.5106C22.2144 18.1957 22.0976 17.888 22.0442 17.5694C21.9889 17.2395 21.8604 16.9048 22.0134 16.4974C22.0873 16.6224 22.1432 16.703 22.1849 16.7904C22.3156 17.0638 22.4385 17.341 22.5692 17.6143C22.6368 17.7555 22.7147 17.8917 22.8018 18.0359C23.0811 18.9667 23.3464 19.8916 23.5977 20.8255C23.5313 20.7161 23.4787 20.5977 23.423 20.4721C23.351 20.5669 23.2812 20.6519 23.2188 20.742C23.0971 20.9179 23.0182 20.9558 22.8131 20.9261Z" fill="#E30C0B"/>
<path d="M16.3583 3.99908C16.5247 3.88449 16.6902 3.76666 16.8607 3.65652C17.0988 3.50271 17.3407 3.35464 17.5905 3.19371C17.6686 3.27102 17.7371 3.35875 17.8077 3.46065C17.7744 3.51236 17.7211 3.54404 17.7065 3.58843C17.635 3.80553 17.4804 3.80747 17.29 3.78898C17.1925 3.77952 17.0658 3.8162 16.9907 3.87841C16.7658 4.06473 16.5518 4.26607 16.3491 4.47649C16.166 4.66651 15.9985 4.87245 15.8351 5.07994C15.7953 5.13044 15.7973 5.21437 15.7817 5.28329C15.768 5.3438 15.7566 5.40482 15.732 5.47222C15.6216 5.23698 15.5234 4.99514 15.4543 4.82514C15.7081 4.5703 15.9014 4.37623 16.0909 4.17142C16.096 4.1474 16.1049 4.1341 16.1406 4.10766C16.2314 4.06189 16.2954 4.02928 16.3595 3.99666C16.3595 3.99666 16.3596 3.99926 16.3583 3.99908Z" fill="#E30C0B"/>
<path d="M19.3748 12.6147C19.375 12.5331 19.3931 12.4582 19.372 12.3968C19.3023 12.1936 19.2183 11.9953 19.1419 11.7814C19.4738 12.2171 19.7292 12.6995 19.8545 13.2499C19.8932 13.4199 20.0065 13.5718 20.0758 13.7362C20.1243 13.8512 20.156 13.9733 20.1955 14.1079C20.1102 13.9676 20.025 13.8113 19.9388 13.6556C19.8559 13.5061 19.7719 13.3572 19.6775 13.2018C19.6611 13.1916 19.6554 13.1877 19.6394 13.1679C19.5661 13.0221 19.5031 12.8922 19.4359 12.7535C19.4251 12.7333 19.4174 12.7228 19.4039 12.7064C19.3941 12.6895 19.3859 12.6828 19.3749 12.6795C19.3749 12.6622 19.3748 12.6449 19.3748 12.6147Z" fill="#E30C0B"/>
<path d="M20.8744 11.685C20.9847 12.0317 21.0943 12.3773 21.2055 12.7379C21.1656 12.7702 21.124 12.7876 21.0422 12.8217C20.8764 12.2555 20.7133 11.7053 20.5552 11.1538C20.5117 11.0022 20.4833 10.8463 20.446 10.6786C20.5244 10.8567 20.6013 11.05 20.6862 11.2398C20.726 11.3287 20.781 11.4108 20.8282 11.5162C20.8431 11.5849 20.859 11.6333 20.8749 11.6817C20.8749 11.6817 20.8736 11.6839 20.8744 11.685Z" fill="#E30C0B"/>
<path d="M20.0292 9.37262C20.0759 9.45673 20.1171 9.55251 20.1599 9.66268C20.1156 9.57948 20.0696 9.48189 20.0292 9.37262Z" fill="#E30C0B"/>
<path d="M20.6346 15.1479C20.5873 15.0792 20.5411 14.9955 20.495 14.8986C20.542 14.9678 20.5889 15.0503 20.6346 15.1479Z" fill="#E30C0B"/>
<path d="M20.4883 14.7843C20.4463 14.7265 20.4091 14.6586 20.3716 14.5775C20.4119 14.6342 20.4525 14.7042 20.4883 14.7843Z" fill="#E30C0B"/>
<path d="M18.2362 9.96534C18.2043 9.91858 18.173 9.86012 18.1471 9.79143C18.1806 9.83868 18.2087 9.89615 18.2362 9.96534Z" fill="#E30C0B"/>
<path d="M19.8866 8.96465C19.9137 9.01388 19.9332 9.07312 19.9524 9.14612C19.9278 9.09814 19.9035 9.03639 19.8866 8.96465Z" fill="#E30C0B"/>
<path d="M18.5355 10.4996C18.5101 10.4686 18.4875 10.4287 18.4667 10.3773C18.4917 10.4075 18.5151 10.4491 18.5355 10.4996Z" fill="#E30C0B"/>
<path d="M18.3992 10.2469C18.38 10.2217 18.3606 10.1858 18.3456 10.1398C18.3663 10.1651 18.3826 10.2007 18.3992 10.2469Z" fill="#E30C0B"/>
<path d="M18.3123 10.0593C18.2974 10.0535 18.2798 10.0398 18.2623 10.0175C18.2781 10.023 18.2938 10.0372 18.3123 10.0593Z" fill="#E30C0B"/>
<path d="M18.0462 9.58708C18.0332 9.57712 18.0242 9.56105 18.0176 9.53568C18.0301 9.54457 18.0402 9.56276 18.0462 9.58708Z" fill="#E30C0B"/>
<path d="M19.0322 11.545C19.0192 11.537 19.0048 11.5211 18.9936 11.4972C19.0081 11.5052 19.0195 11.5212 19.0322 11.545Z" fill="#E30C0B"/>
<path d="M19.1123 11.7014C19.0969 11.695 19.0791 11.6803 19.0622 11.6564C19.0788 11.6626 19.0944 11.6779 19.1123 11.7014Z" fill="#E30C0B"/>
<path d="M20.4724 12.9256C20.4727 12.9184 20.4756 12.9141 20.4785 12.9098C20.4818 12.9136 20.4851 12.9173 20.4885 12.9211C20.484 12.9235 20.4794 12.926 20.4724 12.9256Z" fill="#F80604"/>
<path d="M20.3118 14.3612C20.2946 14.3504 20.2757 14.3282 20.2558 14.2951C20.2732 14.306 20.2917 14.3278 20.3118 14.3612Z" fill="#E30C0B"/>
<path d="M19.9662 9.20267C19.9784 9.21068 19.9938 9.23141 20.0125 9.26483C20.0003 9.25681 19.9849 9.2361 19.9662 9.20267Z" fill="#E30C0B"/>
<path d="M20.1646 9.68498C20.1703 9.68336 20.1758 9.68942 20.179 9.70387C20.1742 9.70401 20.1701 9.69748 20.1646 9.68498Z" fill="#E30C0B"/>
<path d="M22.1283 15.5349C22.129 15.5296 22.137 15.545 22.1348 15.5473C22.1326 15.5495 22.1276 15.5401 22.1283 15.5349Z" fill="#D2524F"/>
<path d="M12.8602 5.95912C12.5311 6.23611 12.1838 6.51197 11.8392 6.79102C11.7049 6.89973 11.5808 7.02116 11.4447 7.12732C10.7574 7.66321 10.1121 8.24533 9.49577 8.87952C9.4483 8.65841 9.65865 8.58967 9.76926 8.46136C9.91606 8.29108 10.0866 8.14135 10.2458 7.98168C10.546 7.68071 10.8349 7.36752 11.1485 7.0814C11.368 6.88115 11.6208 6.71726 11.8589 6.53744C12.0493 6.39366 12.2515 6.26294 12.4267 6.1026C12.5527 5.98729 12.6839 5.94769 12.8602 5.95912Z" fill="#363535"/>
<path d="M16.4758 14.4305C16.45 14.44 16.42 14.44 16.3751 14.44C16.3973 14.4337 16.4345 14.4274 16.4758 14.4305Z" fill="#48494A"/>
<path d="M10.9102 9.87983C10.845 9.97035 10.7798 10.0609 10.6912 10.1539C10.4752 10.0878 10.4195 10.2497 10.3379 10.3583C10.2618 10.4596 10.3091 10.5126 10.4229 10.5242C10.275 10.7148 10.127 10.9054 9.97922 11.109C9.6671 11.6245 9.35483 12.1269 9.01615 12.6377C8.92901 12.6659 8.82913 12.6701 8.814 12.7081C8.72441 12.933 8.51392 12.9195 8.3381 12.9637C8.15006 13.011 8.02325 12.9151 7.93879 12.7489C7.89172 12.6563 7.83201 12.5702 7.78332 12.4784C7.7595 12.4335 7.72746 12.3791 7.73404 12.3341C7.77341 12.0646 7.84209 11.8098 8.00413 11.5762C8.10702 11.4279 8.14366 11.2337 8.21016 11.0552C8.21031 11.0504 8.21966 11.048 8.2355 11.0548C8.30733 11.0516 8.38223 11.0612 8.41617 11.0284C8.60314 10.8477 8.78609 10.6619 8.95726 10.4663C9.01765 10.3973 9.13212 10.319 9.03568 10.1836C9.11786 10.0891 9.19888 10.0108 9.2696 9.92404C9.35828 9.81529 9.4385 9.69964 9.52237 9.58696C9.52228 9.57772 9.52604 9.57048 9.55332 9.55779C9.69852 9.4598 9.82407 9.36927 9.95911 9.27189C9.97862 9.25312 9.98864 9.24119 10.0021 9.22228C10.0118 9.20646 10.0198 9.20008 10.0467 9.19708C10.1401 9.19802 10.2168 9.19802 10.3292 9.19802C10.3127 9.39531 10.2934 9.57047 10.2853 9.74615C10.2813 9.83424 10.3083 10.0017 10.4052 9.92391C10.5848 9.77962 10.7437 9.8867 10.9102 9.87983Z" fill="#EF0907"/>
<path d="M9.94962 9.27874C9.82408 9.36927 9.69853 9.4598 9.55935 9.55582C9.55923 9.51929 9.56012 9.46419 9.58812 9.43719C10.1224 8.92202 10.6596 8.40979 11.1972 7.89805C11.2691 7.82964 11.3466 7.7672 11.4339 7.69676C11.3915 7.77157 11.3369 7.85162 11.2799 7.94576C11.2775 7.95985 11.2796 7.95829 11.2696 7.96323C11.2491 7.97844 11.2385 7.98871 11.2185 8.0055C11.1796 8.04608 11.1499 8.08015 11.1114 8.12076C11.0928 8.13822 11.083 8.14912 11.0622 8.16695C10.7108 8.51463 10.3703 8.85539 10.0299 9.19614C10.0199 9.20008 10.0118 9.20646 9.99266 9.22922C9.96968 9.25501 9.95965 9.26687 9.94962 9.27874Z" fill="#D2524F"/>
<path d="M9.51008 9.59418C9.43851 9.69965 9.35828 9.8153 9.26961 9.92405C9.19889 10.0108 9.11786 10.0891 9.02393 10.1894C8.74419 10.4877 8.48193 10.7678 8.21967 11.048C8.21967 11.048 8.21032 11.0504 8.19959 11.0588C8.15211 11.0991 8.11537 11.131 8.07863 11.163C8.0583 11.1628 8.03797 11.1627 8.00247 11.1606C8.19609 10.9281 8.39819 10.6911 8.61531 10.4686C8.90333 10.1736 9.20307 9.88993 9.51008 9.59418Z" fill="#D56F6A"/>
<path d="M15.5543 3.89164C15.6957 3.82299 15.8329 3.76696 15.9865 3.71075C15.9683 3.75041 15.9403 3.79971 15.8981 3.82843C15.731 3.94236 15.5595 4.04985 15.3756 4.16135C15.4244 4.07673 15.4873 3.9905 15.5543 3.89164Z" fill="#48494A"/>
<path d="M16.3448 4.0032C16.2954 4.02927 16.2314 4.06189 16.1575 4.09069C16.1203 4.02593 16.093 3.96498 16.0658 3.90402C16.0778 3.89926 16.0899 3.8945 16.1019 3.88974C16.1233 3.94118 16.1446 3.99263 16.1754 4.06715C16.2274 4.04787 16.2788 4.02881 16.3448 4.0032Z" fill="#D2524F"/>
<path d="M15.2141 4.28253C15.2225 4.24045 15.2413 4.19655 15.271 4.17162C15.2823 4.20144 15.2827 4.21231 15.2831 4.22317C15.2636 4.24235 15.2441 4.26153 15.2141 4.28253Z" fill="#413E3F"/>
<path d="M7.3251 11.8876C7.30934 11.8781 7.29572 11.8682 7.2821 11.8582C7.28762 11.8529 7.29313 11.8476 7.29864 11.8423C7.30579 11.8509 7.31295 11.8596 7.32409 11.8756C7.32807 11.8829 7.32725 11.8872 7.3251 11.8876Z" fill="#000001"/>
<path d="M15.2951 4.21854C15.2827 4.2123 15.2823 4.20144 15.2813 4.17425C15.2988 4.15843 15.3169 4.15894 15.3485 4.16068C15.3437 4.17924 15.3254 4.19658 15.2951 4.21854Z" fill="#48494A"/>
<path d="M11.4738 7.65775C11.4715 7.65775 11.4651 7.66187 11.4581 7.67387C11.4565 7.67046 11.4605 7.66383 11.4738 7.65775Z" fill="#D2524F"/>
<path d="M19.4402 12.7623C19.5031 12.8922 19.5661 13.0221 19.6301 13.1634C19.5906 13.1816 19.55 13.1884 19.4937 13.1959C19.4592 13.1786 19.4271 13.1631 19.4234 13.1424C19.3964 12.9912 19.3751 12.8389 19.3635 12.6832C19.3859 12.6828 19.3941 12.6895 19.404 12.7174C19.4191 12.7443 19.4296 12.7533 19.4402 12.7623Z" fill="#1B1B1A"/>
<path d="M11.1203 8.11422C11.1499 8.08016 11.1796 8.04609 11.2284 8.00028C11.2583 7.97846 11.2689 7.96838 11.2796 7.9583C11.2796 7.9583 11.2775 7.95986 11.2766 7.95884C11.3623 7.92668 11.4471 7.88965 11.5355 7.8657C11.6809 7.82627 11.8277 7.78995 11.9757 7.76216C12.1499 7.72946 12.3284 7.71736 12.5005 7.67685C12.6123 7.65052 12.6363 7.67846 12.6096 7.79253C12.6069 7.80531 12.606 7.80325 12.5941 7.80922C12.5363 7.8657 12.4904 7.91619 12.4446 7.96669C12.4446 7.96669 12.444 7.96398 12.433 7.96997C12.3092 8.08292 12.189 8.18337 12.0876 8.30023C12.0507 8.34275 12.0589 8.42436 12.0465 8.48813C11.7833 8.81161 11.52 9.13506 11.2568 9.4586C11.1479 9.59249 11.0393 9.7266 10.9204 9.87022C10.7437 9.88671 10.5849 9.77963 10.4052 9.92391C10.3083 10.0017 10.2813 9.83425 10.2853 9.74616C10.2934 9.57048 10.3127 9.39532 10.3292 9.19803C10.2168 9.19803 10.1401 9.19802 10.0467 9.19709C10.3703 8.8554 10.7108 8.51464 11.0714 8.16076C11.1012 8.13649 11.1107 8.12536 11.1203 8.11422Z" fill="#E30C0B"/>
<path d="M14.1251 20.9882C14.0473 20.999 13.9676 20.9924 13.8878 20.9857C13.8939 20.9241 13.8868 20.8575 13.9081 20.8017C14.0679 20.3835 14.2333 19.9674 14.4026 19.5371C14.7153 19.4785 14.8819 19.5755 14.9345 19.8C14.9769 19.9808 14.917 20.0504 14.7416 20.0469C14.6516 20.0452 14.5616 20.0466 14.4466 20.0776C14.4898 20.1048 14.5318 20.1527 14.5766 20.1554C14.7291 20.1646 14.8828 20.1621 15.0357 20.1561C15.1798 20.1504 15.2224 20.0734 15.1676 19.9408C15.1043 19.7875 15.0411 19.6341 14.9787 19.4804C14.931 19.3633 14.8602 19.3131 14.7288 19.3666C14.6807 19.3861 14.6167 19.3664 14.56 19.3646C14.5646 19.3082 14.5596 19.2488 14.576 19.196C14.6109 19.083 14.6508 18.9705 14.7009 18.8635C14.7237 18.8149 14.7696 18.7665 14.8171 18.7456C14.8355 18.7374 14.9045 18.7982 14.9216 18.8395C15.2068 19.5272 15.4878 20.2166 15.7679 20.9063C15.7792 20.9341 15.7736 20.9687 15.7795 21.0517C15.6927 21.0069 15.629 20.987 15.5837 20.9465C15.5465 20.9132 15.528 20.8568 15.5068 20.8082C15.4341 20.6412 15.417 20.4167 15.1962 20.3784C14.8769 20.3229 14.5405 20.328 14.273 20.5208C14.169 20.5958 14.1701 20.8165 14.1251 20.9882ZM14.5107 19.7946C14.5175 19.7959 14.5243 19.7972 14.5311 19.7985C14.5264 19.7953 14.5217 19.7922 14.5107 19.7946Z" fill="#050304"/>
<path d="M20.8762 11.6675C20.859 11.6333 20.8431 11.5849 20.8348 11.5283C20.8542 11.5646 20.8659 11.6089 20.8762 11.6675Z" fill="#D2524F"/>
<path d="M22.815 20.9396C23.0182 20.9558 23.0972 20.9179 23.2188 20.742C23.2812 20.6519 23.351 20.5669 23.423 20.4721C23.4788 20.5977 23.5313 20.7161 23.5975 20.8428C23.8089 21.7683 24.0059 22.6857 24.2049 23.6026C24.2372 23.7514 24.2783 23.8983 24.3183 24.0605C24.2473 24.1143 24.1734 24.1536 24.085 24.1955C23.8033 23.4915 23.5382 22.784 23.2676 22.0787C23.1726 21.8312 23.0639 21.589 22.9553 21.3341C22.905 21.2003 22.8609 21.0768 22.815 20.9396Z" fill="#C61517"/>
<path d="M23.8467 24.3C23.8639 24.2844 23.8789 24.2807 23.9048 24.2734C23.9271 24.2819 23.9385 24.2939 23.9551 24.3172C24.001 24.4502 24.0416 24.5719 24.0874 24.7088C23.831 24.6983 23.8252 24.6907 23.8388 24.3775C23.8393 24.3439 23.8419 24.3279 23.8467 24.3Z" fill="#050304"/>
<path d="M24.1521 24.7817C24.1399 24.7688 24.1362 24.7551 24.1309 24.7308C24.1498 24.7266 24.1702 24.7331 24.1907 24.7395C24.1807 24.7533 24.1706 24.7671 24.1521 24.7817Z" fill="#D2524F"/>
<path d="M8.07188 11.1742C8.11537 11.131 8.1521 11.0991 8.19943 11.0636C8.14367 11.2337 8.10703 11.4279 8.00414 11.5762C7.84209 11.8098 7.77342 12.0646 7.73405 12.3341C7.72747 12.3791 7.75951 12.4335 7.78333 12.4784C7.83201 12.5703 7.89173 12.6564 7.93879 12.7489C8.02326 12.9151 8.15007 13.011 8.33811 12.9638C8.51392 12.9196 8.72441 12.933 8.814 12.7082C8.82914 12.6702 8.92901 12.6659 9.00668 12.647C8.76727 13.1583 8.5109 13.6687 8.24803 14.1917C8.04537 14.4005 7.94652 14.381 7.84247 14.1273C7.82747 14.0907 7.81278 14.0505 7.78661 14.0225C7.52053 13.7385 7.2521 13.4566 6.97348 13.1663C6.93893 13.0768 6.93374 12.9823 6.8879 12.9159C6.77418 12.7511 6.79263 12.6096 6.92387 12.4717C7.13681 12.248 7.35054 12.025 7.58735 11.8032C7.81039 11.7749 7.88982 11.6391 7.91696 11.4572C7.96635 11.3666 8.01574 11.276 8.07188 11.1742Z" fill="#E30C0B"/>
<path d="M20.1969 24.8203C20.0715 25.0072 19.9018 25.0833 19.6771 25.0839C19.6594 24.9864 19.6594 24.8905 19.6594 24.7366C19.5909 24.8324 19.556 24.8811 19.5211 24.9297C19.259 24.7534 19.2827 24.3591 19.5914 23.8894C19.9808 23.8055 20.1307 23.8727 20.2961 24.1732C20.3746 24.3157 20.3813 24.4453 20.2923 24.5854C20.2503 24.6516 20.2313 24.7325 20.1969 24.8203Z" fill="#050304"/>
<path d="M18.5402 24.38C18.5407 24.3797 18.5397 24.3802 18.5402 24.38Z" fill="#626566"/>
<path d="M12.1328 24.2848C12.0074 24.3244 11.8975 24.3603 11.7757 24.4048C11.6745 24.3905 11.5852 24.3674 11.4866 24.3321C11.4985 24.0336 11.6783 23.9118 12.0121 23.8477C12.1873 23.8141 12.3725 23.9827 12.4307 24.2135C12.3369 24.236 12.2427 24.2585 12.1328 24.2848Z" fill="#050304"/>
<path d="M10.4321 10.5162C10.3091 10.5126 10.2618 10.4597 10.3379 10.3583C10.4196 10.2497 10.4752 10.0878 10.6815 10.1625C10.6105 10.2818 10.5259 10.395 10.4321 10.5162Z" fill="#E30C0B"/>
<path d="M12.0586 8.48725C12.0589 8.42435 12.0507 8.34275 12.0876 8.30022C12.189 8.18337 12.3092 8.08291 12.4344 7.97018C12.3882 8.05695 12.331 8.15033 12.2709 8.24177C12.2242 8.31278 12.1738 8.38137 12.1217 8.46464C12.1024 8.48096 12.0865 8.48367 12.0586 8.48725Z" fill="#C61517"/>
<path d="M7.90289 11.4612C7.88983 11.6391 7.8104 11.7748 7.59949 11.7978C7.68841 11.6823 7.78861 11.5738 7.90289 11.4612Z" fill="#EF0907"/>
<path d="M12.459 7.96583C12.4904 7.91619 12.5363 7.8657 12.594 7.80968C12.5617 7.85776 12.5176 7.91137 12.459 7.96583Z" fill="#C61517"/>
<path d="M16.4076 6.4984C16.7333 6.61568 16.7379 6.93962 16.8362 7.22264C16.7778 7.14816 16.7201 7.05821 16.6519 6.95862C16.5642 6.80325 16.487 6.65752 16.4076 6.4984Z" fill="#EF0907"/>
<path d="M16.1831 6.17447C16.2387 6.24351 16.297 6.32474 16.3557 6.42004C16.2993 6.35163 16.2425 6.26914 16.1831 6.17447Z" fill="#EF0907"/>
<path d="M16.0375 5.93813C16.0744 5.97067 16.1141 6.01575 16.1536 6.0757C16.1157 6.04393 16.0781 5.9973 16.0375 5.93813Z" fill="#EF0907"/>
<path d="M19.4359 12.7535C19.4296 12.7533 19.4191 12.7443 19.4085 12.7243C19.4174 12.7228 19.4251 12.7334 19.4359 12.7535Z" fill="#D2524F"/>
<path d="M8.2355 11.0548C8.48192 10.7678 8.74418 10.4877 9.0182 10.2018C9.13212 10.319 9.01765 10.3973 8.95727 10.4663C8.7861 10.6619 8.60314 10.8477 8.41617 11.0284C8.38223 11.0612 8.30733 11.0516 8.2355 11.0548Z" fill="#E30C0B"/>
<path d="M9.95912 9.27189C9.95966 9.26687 9.96969 9.25501 9.98919 9.23621C9.98865 9.24119 9.97863 9.25311 9.95912 9.27189Z" fill="#E30C0B"/>
<path d="M11.1114 8.12076C11.1107 8.12535 11.1012 8.13648 11.0825 8.15382C11.083 8.14912 11.0928 8.13821 11.1114 8.12076Z" fill="#C61517"/>
<path d="M11.2696 7.96323C11.2689 7.96837 11.2582 7.97845 11.2377 7.99375C11.2384 7.98871 11.2491 7.97844 11.2696 7.96323Z" fill="#C61517"/>
<path d="M14.5139 19.7918C14.5217 19.7922 14.5264 19.7953 14.5311 19.7985C14.5243 19.7972 14.5175 19.7959 14.5139 19.7918Z" fill="#1B1B1A"/>
</g>
<defs>
<clipPath id="clip0_2089_114">
<rect width="32" height="32" fill="white"/>
</clipPath>
</defs>
</svg>
