<svg width="32" height="32" viewBox="0 0 32 32" fill="none" xmlns="http://www.w3.org/2000/svg">
<g clip-path="url(#clip0_2089_2)">
<path d="M28.4897 18.4161C28.4867 18.4419 28.4838 18.4677 28.4648 18.5108C28.3534 18.7882 28.2564 19.0476 28.1652 19.3091C28.157 19.3326 28.186 19.369 28.1977 19.3995C28.1829 19.4689 28.168 19.5384 28.1372 19.6272C28.1051 19.7236 28.0891 19.8006 28.073 19.8777C28.0707 19.8955 28.0684 19.9134 28.0552 19.9483C28.0421 19.9901 28.0399 20.0149 28.0377 20.0397C27.8382 20.7792 27.6389 21.5188 27.4389 22.2581C27.3697 22.5139 27.3105 22.7732 27.2246 23.0233C27.1422 23.2633 26.9621 23.3648 26.6993 23.363C26.2201 23.3597 25.7408 23.3817 25.2616 23.3934C25.0442 23.3987 24.8697 23.3402 24.7934 23.1077C24.7334 22.9247 24.6475 22.7496 24.5953 22.5647C24.2659 21.3984 23.9429 20.2303 23.6174 19.0629C23.348 18.0966 23.0753 17.1313 22.8091 16.1641C22.5318 15.1565 22.2601 14.1473 21.9877 13.1384C21.9706 13.0748 21.984 12.9999 21.9568 12.9429C21.9262 12.8791 21.8675 12.7879 21.8174 12.7855C21.7631 12.783 21.6706 12.859 21.6533 12.918C21.522 13.3642 21.4078 13.8155 21.2831 14.2637C20.985 15.3345 20.683 16.4042 20.3845 17.4749C20.1918 18.166 20.0039 18.8585 19.8113 19.5497C19.5024 20.6587 19.1932 21.7677 18.8787 22.8751C18.8428 23.0016 18.7921 23.1341 18.7115 23.2342C18.6488 23.3121 18.5298 23.3868 18.4342 23.3889C17.848 23.4017 17.2613 23.3905 16.6748 23.3933C16.375 23.3947 16.3037 23.1661 16.2391 22.9535C16.0842 22.444 15.9445 21.9297 15.8053 21.4156C15.5061 20.3107 15.207 19.2058 14.9161 18.0987C14.7492 17.4633 14.6051 16.8219 14.4382 16.1865C14.3002 15.6613 14.141 15.1417 13.9962 14.6182C13.7979 13.9009 13.6022 13.1829 13.4094 12.4641C13.2701 11.9447 13.1371 11.4236 13.0019 10.9032C12.8688 10.391 12.7361 9.8787 12.6046 9.36611C12.5934 9.32265 12.5924 9.27658 12.5851 9.21887C12.647 9.21276 12.6985 9.20259 12.7498 9.20339C13.409 9.21369 14.0686 9.24482 14.727 9.22801C15.0094 9.2208 15.0931 9.38373 15.1475 9.57797C15.2966 10.1094 15.4245 10.6468 15.5585 11.1824C15.6888 11.7032 15.8183 12.2243 15.944 12.7463C16.0215 13.0681 16.0884 13.3924 16.1652 13.7143C16.2529 14.0815 16.3471 14.4471 16.4371 14.8138C16.517 15.1397 16.5929 15.4665 16.6742 15.792C16.8013 16.3014 16.9333 16.8095 17.0592 17.3191C17.0909 17.4475 17.1021 17.5808 17.1316 17.7099C17.2199 18.0968 17.3146 18.4822 17.4027 18.8691C17.4405 19.0352 17.4679 19.2036 17.5416 19.3815C17.561 19.3409 17.5868 19.3021 17.5988 19.2594C17.8145 18.4976 18.0293 17.7356 18.2429 16.9732C18.602 15.6916 18.9542 14.4079 19.3208 13.1284C19.5518 12.3221 19.8047 11.522 20.046 10.7186C20.1723 10.298 20.2956 9.87638 20.4189 9.45479C20.4759 9.25974 20.5964 9.1922 20.8044 9.19546C21.5307 9.20682 22.2574 9.20131 22.9839 9.19414C23.1235 9.19276 23.203 9.22302 23.242 9.37108C23.3233 9.67964 23.4232 9.9833 23.5116 10.3115C23.5204 10.3567 23.5332 10.3794 23.5459 10.4021C23.5601 10.4594 23.5743 10.5167 23.5835 10.5977C23.5946 10.6549 23.6105 10.6885 23.6265 10.722C23.6296 10.7394 23.6327 10.7567 23.6253 10.7953C23.6051 10.8708 23.5806 10.9271 23.5878 10.9789C23.6725 11.5864 23.9553 12.1262 24.1789 12.6861C24.1851 12.7016 24.2091 12.71 24.2248 12.7217C24.2285 12.7391 24.2322 12.7565 24.2285 12.7988C24.2164 12.8493 24.2018 12.8779 24.2083 12.9003C24.3256 13.3034 24.4454 13.7057 24.5646 14.1083C24.6173 14.286 24.688 14.4608 24.7173 14.6424C24.7446 14.8118 24.7037 14.9927 24.7347 15.1608C24.8287 15.6697 24.9582 16.171 25.1731 16.6443C25.2031 16.7103 25.2903 16.7504 25.351 16.8025C25.3673 16.8582 25.3836 16.9139 25.3933 16.9938C25.4128 17.0794 25.4388 17.1407 25.4648 17.2021C25.468 17.2194 25.4712 17.2367 25.4636 17.273C25.4136 17.3156 25.3745 17.3393 25.3168 17.3743C25.4095 17.4341 25.4778 17.4781 25.5461 17.5221C25.5624 17.5914 25.5786 17.6608 25.5905 17.7525C25.5992 17.7973 25.6124 17.8198 25.6255 17.8423C25.6289 17.8596 25.6322 17.8769 25.6305 17.9145C25.6371 17.9573 25.6486 17.9799 25.6601 18.0025C25.6662 18.0311 25.6724 18.0597 25.6794 18.118C25.7011 18.2057 25.7219 18.2637 25.7428 18.3217C25.7468 18.3391 25.7509 18.3565 25.7477 18.399C25.7585 18.4965 25.7765 18.5688 25.7945 18.6412C25.7971 18.657 25.7997 18.6729 25.8044 18.7172C25.8621 18.9535 25.84 19.1934 26.0495 19.3526C26.0795 19.3188 26.1124 19.2983 26.1199 19.2709C26.2016 18.9718 26.2816 18.6721 26.3552 18.371C26.3646 18.3325 26.3347 18.2845 26.323 18.2409C26.3261 18.2109 26.3292 18.181 26.3466 18.1299C26.3714 18.0686 26.3821 18.0285 26.3927 17.9885C26.4848 17.5939 26.5762 17.1991 26.6693 16.8047C26.8464 16.0537 27.0182 15.3014 27.2034 14.5524C27.5566 13.1247 27.9178 11.6989 28.2754 10.2723C28.3206 10.0916 28.3668 9.9111 28.4079 9.72946C28.492 9.3569 28.6792 9.20359 29.0569 9.20317C29.6365 9.20252 30.2161 9.20179 30.7957 9.20112C30.8673 9.20104 30.939 9.20111 31.0585 9.20111C30.4596 11.3469 29.8705 13.4579 29.2633 15.5876C29.063 15.7602 29.1541 15.9743 29.1224 16.1612C29.1224 16.1612 29.1216 16.162 29.1076 16.1646C29.0532 16.2155 28.994 16.2577 28.9755 16.3134C28.8893 16.5735 28.8046 16.8349 28.7376 17.1004C28.6284 17.5335 28.4679 17.958 28.4897 18.4161Z" fill="#04335D"/>
<path d="M5.95936 11.2495C5.95936 11.2495 5.95846 11.2605 5.94397 11.2613C5.90095 11.2687 5.87241 11.2754 5.83086 11.2789C5.35709 11.2497 4.99452 11.5018 4.61548 11.7044C4.56572 11.731 4.52061 11.7821 4.49354 11.8327C4.35186 12.0973 4.21978 12.3663 4.22319 12.6846C4.01715 12.9825 4.03548 13.2449 4.29127 13.4205C4.41773 13.5073 4.57979 13.5429 4.72668 13.5992C4.87058 13.6543 5.01566 13.7064 5.14485 13.7617C5.00435 13.8775 5.00296 14.0176 5.12884 14.1243C5.34334 14.306 5.59473 14.3758 5.87096 14.4279C6.28727 14.5065 6.69089 14.6506 7.10199 14.7589C7.34554 14.8231 7.59768 14.8573 7.83766 14.9317C8.11548 15.0178 8.38176 15.1405 8.65764 15.2338C8.87934 15.3087 9.10965 15.3579 9.33267 15.4293C9.44981 15.4669 9.5595 15.5276 9.67499 15.579C9.61256 15.6093 9.53164 15.6487 9.46497 15.6811C9.59587 15.7671 9.71055 15.8486 9.83207 15.9182C9.86408 15.9365 9.92234 15.9294 9.95903 15.9128C9.98869 15.8994 10.0277 15.8472 10.0209 15.8247C10.0059 15.7749 9.9648 15.7328 9.93196 15.6841C10.2007 15.5941 10.2693 15.6226 10.3451 15.8304C10.435 15.8525 10.5261 15.8551 10.5943 15.8959C10.7255 15.9744 10.8458 16.0468 11.0006 15.9539C11.0222 15.9409 11.0763 15.9603 11.1028 15.9808C11.3007 16.1339 11.4943 16.2927 11.6919 16.4461C11.7641 16.5022 11.8438 16.5487 11.9307 16.606C11.9748 16.649 12.0081 16.6858 12.0423 16.737C12.1098 16.8957 12.1772 17.0395 12.2431 17.1841C12.5024 17.7537 12.6061 18.3537 12.5211 18.9707C12.4764 19.2953 12.3654 19.6123 12.267 19.9274C12.1187 20.402 11.9753 20.8774 11.5914 21.2381C11.3919 21.4256 11.2321 21.6554 11.0942 21.8188C11.1419 21.9354 11.1714 22.0076 11.1894 22.0865C11.0279 22.1986 10.8692 22.2936 10.7302 22.4117C10.5583 22.5579 10.4026 22.7233 10.233 22.8831C10.2262 22.8859 10.212 22.8902 10.1986 22.892C10.0307 22.9551 9.87611 23.0165 9.70513 23.0787C9.55948 23.1238 9.43306 23.1812 9.30044 23.2096C9.02867 23.268 8.75358 23.3109 8.47199 23.3651C8.45418 23.3776 8.44555 23.3865 8.42517 23.3971C8.39469 23.3984 8.37727 23.3991 8.34823 23.3912C8.00951 23.3221 7.68293 23.2156 7.3552 23.2119C6.84447 23.2062 6.33299 23.2709 5.82172 23.304C5.74964 23.3086 5.67449 23.3144 5.60487 23.2999C5.26951 23.2302 4.93556 23.1537 4.5976 23.0657C4.5418 23.0173 4.49244 22.9769 4.43663 22.9497C4.32711 22.8964 4.20894 22.8591 4.10394 22.7986C4.01614 22.748 3.94668 22.6664 3.86077 22.6115C3.71231 22.5167 3.54117 22.4513 3.40864 22.3391C3.15367 22.1233 2.82758 22.007 2.61295 21.7331C2.40132 21.4631 2.10746 21.2429 1.95256 20.947C1.80054 20.6566 1.39088 20.4926 1.49412 20.0726C1.28204 19.6665 1.37708 19.22 1.32986 18.7924C1.32417 18.7409 1.36683 18.6813 1.3945 18.6293C1.63139 18.1847 2.04877 18.1085 2.48884 18.1307C2.82239 18.1475 3.05772 18.0225 3.25334 17.7633C3.31139 17.7898 3.35648 17.8144 3.40128 17.8556C3.41476 17.9432 3.42466 18.0153 3.44299 18.0851C3.52036 18.3799 3.63375 18.6697 3.67174 18.9692C3.73709 19.4844 3.90241 19.9128 4.40968 20.1413C4.47983 20.1729 4.53708 20.2331 4.60419 20.2932C4.68019 20.3989 4.73392 20.5228 4.82797 20.5782C5.07885 20.7262 5.34153 20.858 5.6103 20.9705C5.79672 21.0485 5.99814 21.1016 6.19801 21.134C6.50126 21.1832 6.80879 21.2068 7.11496 21.2366C7.18971 21.2439 7.26705 21.2391 7.3418 21.2293C7.5652 21.1999 7.78905 21.0298 8.01111 21.2499C8.041 21.2795 8.13488 21.2518 8.19715 21.2401C8.39777 21.2024 8.60112 21.1724 8.79664 21.116C9.07468 21.0357 9.37299 20.9781 9.61487 20.8318C9.94335 20.6331 10.2333 20.3708 10.441 20.0287C10.611 19.7489 10.6075 19.3911 10.4117 19.1298C10.3697 19.0739 10.3485 18.9733 10.367 18.9069C10.4125 18.7435 10.3483 18.6261 10.2576 18.5055C10.1823 18.4054 10.1234 18.2925 10.0449 18.1953C9.93383 18.0578 9.83198 17.8982 9.6892 17.8043C9.46007 17.6537 9.20059 17.5492 8.95406 17.425C8.87265 17.3839 8.77637 17.2908 8.71311 17.3096C8.44724 17.3887 8.23485 17.2446 8.00272 17.1816C7.92007 17.1591 7.83622 17.1372 7.75148 17.1273C7.58151 17.1073 7.41056 17.0958 7.22271 17.0807C6.87049 17.0112 6.53558 16.9417 6.20065 16.8724C6.01436 16.8339 5.82802 16.7955 5.63802 16.7435C5.49986 16.6408 5.37623 16.5095 5.2286 16.4715C4.95047 16.4 4.67428 16.3837 4.40121 16.232C4.06614 16.0459 3.69957 15.9065 3.40983 15.6518C3.17479 15.4452 2.95729 15.2079 2.7796 14.9513C2.68614 14.8163 2.60486 14.7438 2.44895 14.7142C2.35776 14.6969 2.24545 14.6405 2.19851 14.5663C1.98528 14.2294 1.7803 13.8845 1.87404 13.4531C1.88479 13.4036 1.84884 13.3399 1.82441 13.2875C1.65776 12.9302 1.66632 12.5764 1.83709 12.2232C1.88306 12.1282 1.92525 12.0311 1.96525 11.9333C2.06508 11.6894 2.12397 11.4176 2.27049 11.2064C2.47441 10.9125 2.7462 10.6662 2.98344 10.3947C3.17754 10.1726 3.23616 9.84984 3.507 9.6832C3.51129 9.68056 3.51119 9.67095 3.51333 9.66466C3.67449 9.19244 4.05475 9.00718 4.5012 8.90103C4.73104 8.84638 4.93817 8.65259 5.1975 8.7965C5.40004 8.60044 5.61136 8.67989 5.83844 8.75498C6.11636 8.84688 6.40314 8.88003 6.66853 8.69466C6.6926 8.67785 6.73315 8.68295 6.76624 8.68099C7.00473 8.66682 7.24416 8.66141 7.48125 8.63494C7.55114 8.62714 7.61446 8.56049 7.69762 8.52059C8.1496 8.60237 8.5848 8.68409 9.01975 8.76711C9.04505 8.77194 9.06739 8.79204 9.0927 8.79709C9.2432 8.82713 9.39417 8.85483 9.55306 8.89525C9.86511 9.05701 10.1691 9.20681 10.4833 9.36428C10.5152 9.38577 10.5368 9.39961 10.5635 9.42384C10.6027 9.45024 10.6368 9.46623 10.6818 9.48997C10.7562 9.56958 10.8198 9.64144 10.8854 9.72613C10.9129 9.75822 10.9384 9.77749 10.9619 9.79781C10.9599 9.79884 10.9634 9.79596 10.965 9.80975C11.007 9.85438 11.0474 9.88523 11.0956 9.91778C11.1033 9.91949 11.1183 9.92516 11.1192 9.93896C11.1609 9.99458 11.2016 10.0364 11.2411 10.079C11.2399 10.0798 11.242 10.0778 11.2415 10.093C11.2962 10.1632 11.3513 10.2182 11.4058 10.2763C11.4052 10.2793 11.4074 10.2735 11.4055 10.2896C11.4088 10.4881 11.4769 10.61 11.6902 10.6071C11.705 10.6352 11.714 10.6545 11.7221 10.6904C11.8149 10.9513 11.9086 11.1955 12.0021 11.4555C12.0646 11.6878 12.0933 11.9228 12.1985 12.1161C12.3217 12.3424 12.3664 12.5663 12.3687 12.8158C12.3703 12.9853 12.3999 13.1476 12.2031 13.2371C12.1687 13.2527 12.1595 13.3171 12.1301 13.3516C12.0869 13.4022 12.0403 13.4806 11.9875 13.4872C11.7131 13.522 11.4362 13.5371 11.1603 13.5604C11.0685 13.5681 10.9683 13.5591 10.8872 13.5936C10.6594 13.6902 10.1693 13.6141 9.99529 13.4243C9.90504 13.3259 9.8127 13.2135 9.77078 13.0905C9.71182 12.9175 9.72017 12.7216 9.66101 12.5487C9.58064 12.3139 9.49934 12.0649 9.35393 11.8702C9.14333 11.5882 8.85441 11.3857 8.46411 11.3571C8.18109 11.2869 7.91383 11.186 7.64143 11.1694C7.15769 11.1399 6.67078 11.1577 6.18536 11.1656C6.10959 11.1668 6.03467 11.2202 5.95936 11.2495Z" fill="#FD880F"/>
<path d="M7.68075 8.52081C7.61442 8.56049 7.5511 8.62714 7.48121 8.63494C7.24411 8.66141 7.00469 8.66682 6.76619 8.68099C6.73311 8.68295 6.69255 8.67785 6.66848 8.69466C6.4031 8.88003 6.11632 8.84688 5.8384 8.75498C5.61132 8.67988 5.4 8.60044 5.19746 8.7965C4.93813 8.65259 4.731 8.84638 4.50116 8.90103C4.05471 9.00718 3.67445 9.19244 3.51329 9.66466C3.51115 9.67095 3.51125 9.68056 3.50696 9.6832C3.23611 9.84984 3.17749 10.1726 2.9834 10.3947C2.74615 10.6662 2.47437 10.9125 2.27045 11.2064C2.12393 11.4176 2.06504 11.6894 1.9652 11.9333C1.9252 12.0311 1.88302 12.1282 1.83705 12.2232C1.66627 12.5764 1.65772 12.9302 1.82437 13.2875C1.8488 13.3399 1.88475 13.4036 1.874 13.4531C1.78026 13.8845 1.98524 14.2294 2.19847 14.5663C2.24541 14.6405 2.35772 14.6969 2.4489 14.7142C2.60482 14.7438 2.6861 14.8163 2.77956 14.9513C2.95725 15.2079 3.17475 15.4452 3.40979 15.6518C3.69953 15.9065 4.06609 16.0459 4.40117 16.232C4.67424 16.3837 4.95043 16.4 5.22856 16.4715C5.37619 16.5095 5.49982 16.6408 5.6211 16.7445C5.55183 16.7598 5.49574 16.7605 5.43172 16.7495C5.21887 16.6692 5.01395 16.6006 4.80904 16.532C4.77238 16.5261 4.73572 16.5203 4.67429 16.5031C4.31539 16.3477 3.98005 16.2064 3.64766 16.0585C3.4698 15.9794 3.29702 15.8889 3.11044 15.7963C2.48434 15.2023 1.83357 14.6416 1.61942 13.7625C1.58418 13.6179 1.52823 13.4733 1.52291 13.3272C1.50817 12.9221 1.51509 12.5163 1.51571 12.097C1.52151 11.7974 1.58148 11.528 1.73152 11.2797C1.79136 11.1807 1.83079 11.0694 1.89069 10.9555C2.04234 10.7381 2.18282 10.5289 2.33453 10.3166C2.36341 10.2902 2.38107 10.2669 2.39953 10.242C2.40034 10.2404 2.40268 10.2378 2.40967 10.2323C2.42535 10.2184 2.43159 10.2085 2.43678 10.1882C2.43817 10.1795 2.44159 10.1621 2.45028 10.1607C2.45897 10.1593 2.47634 10.1564 2.49203 10.1571C2.55078 10.1467 2.61269 10.1501 2.63384 10.1224C2.77389 9.93894 2.9052 9.74881 3.03954 9.56034C3.03973 9.55984 3.04074 9.55946 3.05097 9.55745C3.06675 9.53048 3.07232 9.50554 3.07696 9.47305C3.07603 9.46551 3.0748 9.45037 3.0748 9.45037C3.07655 9.27627 3.17036 9.21994 3.33707 9.18618C3.54794 9.14348 3.74922 9.05041 3.95233 8.97301C4.28231 8.84726 4.6042 8.69564 4.94155 8.59559C5.15516 8.53225 5.39066 8.54279 5.61632 8.51998C5.749 8.50657 5.87394 8.5285 6.0015 8.41604C6.08548 8.34201 6.26709 8.37872 6.4372 8.37633C6.87319 8.43147 7.27697 8.47614 7.68075 8.52081Z" fill="#FB8D1A"/>
<path d="M7.24006 17.0807C7.4106 17.0958 7.58156 17.1073 7.75152 17.1273C7.83626 17.1372 7.92012 17.1591 8.00276 17.1816C8.23489 17.2446 8.44729 17.3887 8.71315 17.3096C8.77642 17.2908 8.8727 17.3839 8.95411 17.425C9.20063 17.5492 9.46012 17.6537 9.68924 17.8043C9.83202 17.8982 9.93387 18.0578 10.0449 18.1953C10.1234 18.2925 10.1824 18.4054 10.2577 18.5055C10.3484 18.6261 10.4126 18.7435 10.367 18.9069C10.3486 18.9733 10.3698 19.0739 10.4117 19.1298C10.6075 19.3911 10.611 19.7489 10.4411 20.0287C10.2333 20.3708 9.94339 20.6331 9.61491 20.8318C9.37304 20.9781 9.07472 21.0357 8.79668 21.116C8.60117 21.1724 8.39781 21.2024 8.19719 21.2401C8.13492 21.2518 8.04104 21.2795 8.01116 21.2499C7.7891 21.0298 7.56525 21.1999 7.34185 21.2293C7.26709 21.2391 7.18976 21.2439 7.115 21.2366C6.80883 21.2068 6.50131 21.1832 6.19806 21.134C5.99818 21.1016 5.79677 21.0485 5.61035 20.9705C5.34157 20.858 5.07889 20.7262 4.82801 20.5782C4.73396 20.5228 4.68024 20.3989 4.61731 20.2953C4.68874 20.2681 4.75098 20.2519 4.82468 20.2429C4.9703 20.3026 5.10447 20.3551 5.24344 20.414C5.25544 20.4282 5.26387 20.4345 5.27505 20.4409C5.27657 20.4427 5.27989 20.4459 5.28504 20.4584C5.41947 20.5008 5.54875 20.5306 5.69152 20.5612C5.73738 20.5753 5.76977 20.5885 5.80739 20.6091C5.82098 20.6256 5.83098 20.6322 5.85834 20.6373C5.91591 20.6397 5.9578 20.6412 6.01059 20.6524C6.29047 20.7212 6.55698 20.808 6.82903 20.832C7.16594 20.8617 7.50746 20.8415 7.84696 20.8387C8.03068 20.8373 8.17846 20.7623 8.27679 20.6018C8.37409 20.5499 8.4714 20.4981 8.58633 20.4572C8.73499 20.662 9.02071 20.6108 9.1791 20.3653C9.43395 20.2923 9.63894 20.169 9.78066 19.9577C9.85249 19.8506 9.91572 19.7377 9.98173 19.6267C10.0604 19.4945 10.1521 19.3676 10.2126 19.2274C10.3046 19.0142 10.1612 18.6212 9.96474 18.5049C9.94053 18.4788 9.92174 18.4638 9.90296 18.4488C9.90296 18.4488 9.90726 18.4486 9.9101 18.4342C9.93733 18.2373 9.84222 18.1371 9.66965 18.076C9.6116 18.0193 9.56451 17.9695 9.51584 17.9096C9.48994 17.8934 9.46563 17.8873 9.42657 17.8801C9.19587 17.796 8.97993 17.713 8.75797 17.6179C8.4307 17.3788 8.03432 17.4011 7.66699 17.2765C7.51583 17.207 7.37794 17.1439 7.24006 17.0807Z" fill="#FD8D1C"/>
<path d="M3.24038 17.7614C3.05771 18.0225 2.82238 18.1475 2.48883 18.1307C2.04876 18.1085 1.63138 18.1847 1.39449 18.6293C1.36682 18.6813 1.32417 18.7409 1.32985 18.7924C1.37707 19.22 1.28203 19.6665 1.49411 20.0726C1.39087 20.4926 1.80053 20.6566 1.95255 20.947C2.10745 21.2429 2.40131 21.4631 2.61294 21.7331C2.82757 22.007 3.15366 22.1233 3.40863 22.3391C3.54116 22.4513 3.7123 22.5167 3.86076 22.6115C3.94667 22.6664 4.01613 22.748 4.10393 22.7986C4.20894 22.8591 4.3271 22.8964 4.43662 22.9497C4.49243 22.9769 4.54179 23.0173 4.58291 23.0633C4.4861 23.0526 4.40044 23.0303 4.30028 23.0055C4.01682 22.8694 3.74785 22.7359 3.47704 22.59C3.43617 22.5593 3.39715 22.5409 3.34475 22.5214C3.28718 22.4944 3.24299 22.4685 3.1965 22.4287C3.116 22.3571 3.03778 22.2994 2.9594 22.2413C2.95923 22.2408 2.95829 22.2411 2.95448 22.2278C2.91038 22.1991 2.87008 22.1836 2.8158 22.166C2.76336 22.1401 2.71859 22.1228 2.68743 22.0919C2.45634 21.8623 2.22796 21.6299 1.99715 21.3845C1.87402 21.221 1.75247 21.0715 1.63093 20.922C1.63093 20.922 1.63797 20.9206 1.63296 20.915C1.61848 20.8987 1.60902 20.888 1.59956 20.8773C1.29055 20.5194 1.23349 20.0557 1.08796 19.6064C1.08368 19.477 1.05768 19.3753 1.05549 19.273C1.05058 19.0436 1.04977 18.8134 1.06187 18.5843C1.0728 18.3773 1.10311 18.1713 1.13641 17.9628C1.16351 17.9593 1.17907 17.9576 1.20725 17.9543C1.24012 17.9283 1.26037 17.9041 1.2827 17.8712C1.28478 17.8625 1.28743 17.845 1.29637 17.8423C1.32433 17.8241 1.34336 17.8086 1.36238 17.7931C1.37687 17.7833 1.39136 17.7734 1.43067 17.7692C1.6351 17.733 1.8147 17.6913 2.00723 17.6497C2.08495 17.6373 2.14975 17.6247 2.21456 17.6121C2.30498 17.6811 2.40806 17.7433 2.51514 17.7511C2.75584 17.7688 2.99851 17.7596 3.24038 17.7614Z" fill="#FC9218"/>
<path d="M8.47754 11.3643C8.8544 11.3857 9.14332 11.5882 9.35392 11.8702C9.49933 12.0649 9.58063 12.3139 9.661 12.5487C9.72016 12.7216 9.71181 12.9175 9.77077 13.0905C9.81269 13.2135 9.90503 13.3259 9.99528 13.4243C10.1693 13.6141 10.6594 13.6902 10.8872 13.5936C10.9683 13.5591 11.0685 13.5681 11.1603 13.5604C11.4362 13.5371 11.7131 13.522 11.9875 13.4872C12.0403 13.4806 12.0869 13.4022 12.1301 13.3516C12.1595 13.3171 12.1687 13.2527 12.2031 13.2371C12.3998 13.1476 12.3703 12.9853 12.3687 12.8158C12.3664 12.5663 12.3217 12.3424 12.1985 12.1161C12.0933 11.9228 12.0646 11.6878 12.0177 11.4557C12.0647 11.4416 12.0961 11.4432 12.1342 11.4506C12.149 11.4725 12.1569 11.4885 12.1593 11.5113C12.1503 11.5285 12.1469 11.5389 12.1435 11.5494C12.1527 11.5368 12.162 11.5242 12.1795 11.5219C12.2193 11.5938 12.251 11.6556 12.2812 11.7342C12.313 11.8695 12.3479 11.9877 12.379 12.1069C12.4015 12.193 12.4206 12.2801 12.4383 12.3674C12.4564 12.4567 12.4898 12.5481 12.4834 12.6362C12.4654 12.8871 12.4324 13.137 12.399 13.3865C12.3962 13.4072 12.3466 13.4217 12.3187 13.439C12.0025 13.7289 11.6083 13.5959 11.2461 13.6404C11.1097 13.6572 10.9775 13.7063 10.8419 13.7338C10.5888 13.785 10.331 13.8839 10.0969 13.6748C10.0745 13.6548 10.035 13.6378 10.0076 13.6426C9.86109 13.6681 9.78659 13.5829 9.72023 13.4441C9.66385 13.126 9.62936 12.8313 9.55488 12.547C9.51774 12.4052 9.4074 12.2826 9.33018 12.1514C9.18429 11.9509 9.05004 11.7502 8.78083 11.6758C8.66941 11.645 8.58761 11.5071 8.48542 11.3984C8.47851 11.379 8.47754 11.3643 8.47754 11.3643Z" fill="#EC9526"/>
<path d="M4.31482 23.0079C4.40048 23.0303 4.48614 23.0526 4.58647 23.0773C4.9356 23.1537 5.26955 23.2302 5.6049 23.2999C5.67453 23.3144 5.74968 23.3086 5.82175 23.304C6.33303 23.2709 6.8445 23.2062 7.35524 23.2119C7.68297 23.2156 8.00955 23.3221 8.3352 23.4003C7.65199 23.4229 6.97023 23.4273 6.28847 23.4328C6.20413 23.4335 6.11983 23.4399 6.03551 23.4437C5.50933 23.3384 4.98324 23.2328 4.45681 23.1288C4.41851 23.1212 4.37784 23.1256 4.32992 23.1046C4.31933 23.0591 4.31707 23.0335 4.31482 23.0079Z" fill="#EC902A"/>
<path d="M4.81314 20.2357C4.75089 20.2519 4.68864 20.2681 4.61332 20.2822C4.53703 20.2331 4.47977 20.1729 4.40963 20.1413C3.90236 19.9128 3.73704 19.4844 3.67169 18.9692C3.6337 18.6697 3.52031 18.3799 3.44294 18.0851C3.42461 18.0153 3.41471 17.9432 3.4126 17.855C3.43186 17.8374 3.43945 17.8369 3.45758 17.8429C3.51096 17.8889 3.5538 17.9285 3.59853 17.9834C3.70931 18.3288 3.81882 18.6587 3.92633 18.9892C3.94019 19.0318 3.93836 19.0796 3.95303 19.1218C3.9848 19.2131 4.01182 19.3087 4.06044 19.3909C4.12855 19.5062 4.2044 19.6205 4.29632 19.7167C4.36251 19.786 4.46031 19.8251 4.54401 19.8777C4.54401 19.8777 4.54113 19.8791 4.54668 19.8923C4.60819 19.9616 4.66416 20.0176 4.72646 20.0854C4.75958 20.1434 4.78636 20.1895 4.81314 20.2357Z" fill="#FC9218"/>
<path d="M25.3522 16.7865C25.2904 16.7504 25.2032 16.7103 25.1732 16.6443C24.9583 16.171 24.8288 15.6697 24.7348 15.1608C24.7038 14.9927 24.7447 14.8118 24.7174 14.6424C24.6881 14.4608 24.6174 14.286 24.5647 14.1083C24.4455 13.7057 24.3257 13.3034 24.2084 12.9003C24.2019 12.8779 24.2165 12.8493 24.2297 12.8121C24.3702 13.1836 24.5163 13.5624 24.6311 13.9505C24.7951 14.5049 24.9411 15.0647 25.0853 15.6247C25.1831 16.0045 25.2646 16.3884 25.3522 16.7865Z" fill="#082C4A"/>
<path d="M1.51353 12.1108C1.51517 12.5163 1.50824 12.9221 1.52299 13.3272C1.52831 13.4733 1.58426 13.6179 1.6195 13.7625C1.83364 14.6416 2.48441 15.2023 3.11027 15.8083C3.12151 15.8435 3.1215 15.8595 3.12148 15.8756C3.09612 15.8703 3.06371 15.8732 3.04644 15.8585C2.56248 15.4451 2.08413 15.034 1.79683 14.4387C1.5205 13.866 1.44155 13.2724 1.47401 12.6496C1.48644 12.4113 1.474 12.1717 1.47901 11.9331C1.4946 11.9927 1.50407 12.0517 1.51353 12.1108Z" fill="#DFA34A"/>
<path d="M10.2399 22.8804C10.4026 22.7233 10.5582 22.5579 10.7302 22.4117C10.8692 22.2936 11.0279 22.1986 11.2038 22.0857C11.5891 21.9173 11.8654 21.6633 12.0384 21.3117C12.117 21.1518 12.2329 21.0729 12.3923 21.0524C12.3805 21.1255 12.3713 21.1838 12.362 21.2422C12.362 21.2422 12.3609 21.2396 12.3478 21.2407C12.2211 21.3734 12.1075 21.5049 11.9861 21.6447C11.9703 21.6739 11.9623 21.6948 11.9531 21.7293C11.9528 21.752 11.9536 21.7611 11.9544 21.7702C11.9548 21.78 11.9508 21.7873 11.9226 21.7925C11.894 21.7933 11.8851 21.7937 11.863 21.7976C11.552 22.0178 11.2537 22.2339 10.9567 22.4517C10.8755 22.5113 10.7983 22.5763 10.7053 22.6429C10.5408 22.7248 10.3903 22.8026 10.2399 22.8804Z" fill="#FE951E"/>
<path d="M5.1604 13.6255C5.60685 13.7438 6.05342 13.8617 6.4997 13.9807C6.81547 14.0649 7.1292 14.1575 7.44696 14.2332C7.69085 14.2913 7.93961 14.3289 8.17952 14.3887C8.14185 14.4156 8.11085 14.4294 8.06219 14.4423C7.7289 14.3729 7.41206 14.3094 7.09794 14.2345C6.69255 14.1378 6.28717 14.0397 5.88606 13.927C5.66593 13.8651 5.4546 13.7719 5.22956 13.6885C5.2 13.6646 5.1802 13.645 5.1604 13.6255Z" fill="#DFA34A"/>
<path d="M6.03918 23.4587C6.11978 23.4399 6.20408 23.4335 6.28842 23.4328C6.97018 23.4273 7.65194 23.4229 8.34677 23.409C8.37726 23.3991 8.39467 23.3984 8.43326 23.3925C8.46457 23.3798 8.47304 23.3708 8.47985 23.3601C8.75357 23.3109 9.02866 23.268 9.30042 23.2096C9.43304 23.1812 9.55946 23.1238 9.72082 23.0798C9.78454 23.0811 9.81613 23.0821 9.84772 23.0832C9.80884 23.1184 9.77534 23.1733 9.73021 23.1856C9.4559 23.2606 9.18054 23.3333 8.90243 23.3922C8.62097 23.4518 8.33683 23.53 8.05227 23.5373C7.42813 23.5531 6.80296 23.5303 6.17827 23.5197C6.1329 23.519 6.08802 23.4898 6.03918 23.4587Z" fill="#EC9526"/>
<path d="M12.1649 11.5045C12.1569 11.4885 12.149 11.4725 12.1332 11.4348C11.9912 11.1666 11.8571 10.9202 11.723 10.6737C11.714 10.6545 11.705 10.6352 11.6871 10.5936C11.5879 10.4719 11.4977 10.3727 11.4074 10.2735C11.4074 10.2735 11.4052 10.2793 11.4029 10.2633C11.3477 10.1908 11.2948 10.1343 11.242 10.0778C11.242 10.0778 11.2399 10.0798 11.2385 10.0664C11.1975 10.0103 11.1579 9.96774 11.1183 9.92516C11.1183 9.92516 11.1034 9.91949 11.0914 9.90528C11.0407 9.85937 11.002 9.82766 10.9634 9.79596C10.9634 9.79596 10.9599 9.79884 10.9584 9.78604C10.9324 9.75327 10.9079 9.73329 10.8833 9.71331C10.8198 9.64144 10.7562 9.56958 10.6769 9.47894C10.6269 9.4446 10.5926 9.42902 10.5583 9.41344C10.5368 9.39961 10.5152 9.38577 10.478 9.35338C10.415 9.28821 10.3677 9.2416 10.3204 9.19499C10.5249 9.32708 10.7439 9.44142 10.9312 9.59452C11.5342 10.0874 11.9833 10.6981 12.263 11.4279C12.2957 11.5131 12.3072 11.6064 12.3141 11.7071C12.2997 11.7181 12.2826 11.7174 12.2826 11.7174C12.251 11.6556 12.2193 11.5938 12.1779 11.52C12.1681 11.508 12.1649 11.5045 12.1649 11.5045Z" fill="#EEBE67"/>
<path d="M4.23611 12.6795C4.21982 12.3663 4.3519 12.0973 4.49358 11.8327C4.52065 11.7821 4.56576 11.731 4.61552 11.7044C4.99456 11.5018 5.35713 11.2497 5.82956 11.2875C5.84124 11.2992 5.84057 11.3166 5.84057 11.3166C5.79688 11.3336 5.75325 11.3652 5.70949 11.3654C5.3333 11.367 5.03175 11.5807 4.73407 11.7544C4.24069 12.0422 4.19724 12.7964 4.61029 13.1914C4.68708 13.2648 4.76379 13.3383 4.82755 13.4228C4.4973 13.2778 4.23071 13.0829 4.23611 12.6795Z" fill="#DFA34A"/>
<path d="M7.69766 8.52059C7.27705 8.47614 6.87327 8.43147 6.4552 8.37931C6.9218 8.37834 7.42164 8.30537 7.87813 8.41421C8.31621 8.51867 8.7953 8.49129 9.19933 8.74996C9.30952 8.82051 9.45877 8.83007 9.59023 8.87352C9.57526 8.88073 9.56014 8.88202 9.54503 8.88331C9.39421 8.85483 9.24324 8.82713 9.09273 8.79709C9.06743 8.79204 9.04508 8.77194 9.01978 8.76711C8.58484 8.68409 8.14964 8.60237 7.69766 8.52059Z" fill="#EC902A"/>
<path d="M8.27152 20.5951C8.17839 20.7623 8.03061 20.8373 7.84688 20.8387C7.50739 20.8415 7.16587 20.8617 6.82896 20.832C6.5569 20.808 6.29039 20.7212 6.01965 20.6432C6.0603 20.615 6.10272 20.6059 6.14514 20.5967C6.48425 20.6249 6.823 20.6597 7.16262 20.679C7.38011 20.6914 7.59971 20.6925 7.81684 20.6772C7.96801 20.6665 8.11659 20.6192 8.27152 20.5951Z" fill="#E99142"/>
<path d="M28.5015 18.4076C28.468 17.958 28.6285 17.5335 28.7377 17.1004C28.8047 16.8349 28.8894 16.5735 28.9756 16.3134C28.994 16.2577 29.0532 16.2155 29.1082 16.1648C29.1151 16.2349 29.1173 16.3099 29.0985 16.3792C28.9304 16.9996 28.7593 17.6192 28.5866 18.2384C28.571 18.2944 28.5381 18.3457 28.5015 18.4076Z" fill="#082C4A"/>
<path d="M4.22319 12.6846C4.23066 13.0829 4.49726 13.2778 4.82838 13.4364C4.84223 13.4391 4.83993 13.4393 4.84217 13.446C4.84831 13.4628 4.85411 13.4717 4.86181 13.4794C4.95432 13.5202 5.04682 13.561 5.14988 13.6136C5.18023 13.645 5.20003 13.6646 5.22574 13.6989C5.20784 13.729 5.18403 13.7444 5.16022 13.7598C5.01566 13.7064 4.87057 13.6543 4.72667 13.5992C4.57978 13.5429 4.41773 13.5073 4.29126 13.4205C4.03547 13.2449 4.01714 12.9825 4.22319 12.6846Z" fill="#FB8D1A"/>
<path d="M1.12489 17.9648C1.10313 18.1713 1.07282 18.3773 1.06189 18.5843C1.04979 18.8134 1.0506 19.0436 1.05551 19.273C1.0577 19.3753 1.0837 19.477 1.09077 19.5908C0.862358 19.1695 0.806573 18.7079 0.857515 18.2018C0.955057 18.1041 1.03997 18.0344 1.12489 17.9648Z" fill="#F6A42E"/>
<path d="M3.44711 17.8364C3.43952 17.8369 3.43193 17.8374 3.41297 17.8385C3.3565 17.8144 3.31141 17.7898 3.25337 17.7633C2.99854 17.7596 2.75587 17.7688 2.51518 17.7511C2.4081 17.7433 2.30501 17.6811 2.21459 17.6121C2.14978 17.6247 2.08498 17.6373 1.99699 17.6483C1.95999 17.645 1.94618 17.6434 1.93237 17.6418C2.37808 17.4067 2.82009 17.4162 3.27859 17.6806C3.34814 17.7451 3.39763 17.7908 3.44711 17.8364Z" fill="#EC902A"/>
<path d="M7.22275 17.0807C7.37794 17.1439 7.51583 17.207 7.66677 17.2884C7.67892 17.3227 7.67801 17.3387 7.6771 17.3547C7.07506 17.1948 6.47519 17.026 5.86984 16.8799C5.65281 16.8275 5.42256 16.8299 5.19678 16.8023C5.27673 16.7853 5.35823 16.7733 5.43974 16.7612C5.49583 16.7605 5.55191 16.7598 5.62487 16.7581C5.82806 16.7955 6.0144 16.8338 6.20069 16.8724C6.53562 16.9417 6.87053 17.0112 7.22275 17.0807Z" fill="#EC902A"/>
<path d="M9.97006 18.516C10.1611 18.6212 10.3045 19.0142 10.2125 19.2274C10.152 19.3676 10.0603 19.4945 9.98163 19.6267C9.91561 19.7377 9.85239 19.8506 9.78055 19.9577C9.63883 20.169 9.43385 20.2923 9.17195 20.3639C9.1503 20.3649 9.13611 20.363 9.13611 20.363C9.3218 20.2124 9.53425 20.0844 9.6861 19.9052C9.85853 19.7016 10.0093 19.4652 10.1088 19.2187C10.1974 18.9993 10.1079 18.7671 9.97063 18.5469C9.96452 18.5273 9.97006 18.516 9.97006 18.516Z" fill="#EC902A"/>
<path d="M11.1225 15.5181C11.5604 15.702 11.8259 16.0865 12.1427 16.4083C12.2585 16.5259 12.3264 16.6906 12.4285 16.8548C12.4655 16.9036 12.4901 16.9314 12.5147 16.9592C12.5303 16.9739 12.5458 16.9886 12.5598 17.0248C12.5455 17.0688 12.5329 17.0912 12.5093 17.1065C12.3904 16.9416 12.3 16.7673 12.1709 16.6291C11.8539 16.2895 11.519 15.9666 11.1878 15.6309C11.1784 15.6174 11.171 15.6119 11.1548 15.5998C11.1371 15.5802 11.1267 15.5693 11.118 15.5483C11.1207 15.5316 11.1216 15.5249 11.1225 15.5181Z" fill="#EEBE67"/>
<path d="M4.53777 19.8641C4.46034 19.8251 4.36254 19.786 4.29635 19.7167C4.20444 19.6205 4.12858 19.5062 4.06047 19.3909C4.01186 19.3087 3.98484 19.2131 3.95307 19.1218C3.9384 19.0796 3.94022 19.0318 3.92637 18.9892C3.81886 18.6587 3.70935 18.3288 3.61182 17.9818C3.64089 17.9638 3.65861 17.9628 3.67633 17.9617C3.77611 18.2457 3.87594 18.5297 3.9756 18.8137C3.98435 18.8386 4.0008 18.8647 3.99879 18.889C3.97909 19.1273 4.10669 19.2705 4.27853 19.4197C4.39771 19.5232 4.44956 19.7042 4.53777 19.8641Z" fill="#DFA34A"/>
<path d="M12.5203 17.1136C12.5329 17.0912 12.5456 17.0688 12.5638 17.0348C12.6994 17.256 12.8294 17.4887 12.9599 17.7494C12.9622 17.8457 12.9641 17.9141 12.9659 17.9824C12.9743 18.2317 12.9828 18.481 12.9808 18.7591C12.955 18.8314 12.9396 18.875 12.923 18.9009C12.8817 18.5473 12.8556 18.2089 12.7953 17.8767C12.7673 17.7221 12.6729 17.5795 12.6068 17.4167C12.5769 17.3059 12.5486 17.2097 12.5203 17.1136Z" fill="#E4A561"/>
<path d="M24.2258 12.7065C24.2091 12.71 24.1851 12.7016 24.1789 12.6861C23.9553 12.1262 23.6725 11.5864 23.5878 10.9789C23.5806 10.9271 23.6051 10.8708 23.6262 10.8085C23.8339 11.4307 24.0303 12.061 24.2258 12.7065Z" fill="#082C4A"/>
<path d="M8.46413 11.3571C8.47757 11.3643 8.47853 11.379 8.47905 11.3863C8.27609 11.3829 8.07068 11.3856 7.8698 11.3568C7.73166 11.3369 7.60128 11.2416 7.46486 11.2353C7.09524 11.2181 6.72423 11.2293 6.35379 11.2314C6.23481 11.2321 6.11587 11.2396 5.97815 11.2468C6.03469 11.2202 6.10961 11.1668 6.18537 11.1656C6.6708 11.1577 7.15771 11.1399 7.64144 11.1694C7.91385 11.186 8.18111 11.2869 8.46413 11.3571Z" fill="#E99142"/>
<path d="M8.07983 14.4431C8.11083 14.4294 8.14183 14.4156 8.18602 14.4013C8.80583 14.5793 9.41243 14.7578 10.029 14.9554C10.0374 14.983 10.0358 14.9916 10.0216 14.9982C9.793 14.9434 9.57694 14.8905 9.3486 14.8287C8.91749 14.6943 8.49866 14.5687 8.07983 14.4431Z" fill="#E99142"/>
<path d="M12.9242 18.9187C12.9396 18.875 12.955 18.8314 12.9762 18.7778C13.0588 19.5216 12.9637 20.2413 12.5473 20.9177C12.5299 20.9442 12.5251 20.9528 12.5206 20.9616C12.5206 20.9616 12.5203 20.9599 12.5092 20.9585C12.4904 20.9557 12.4827 20.9544 12.4761 20.9381C12.5143 20.8251 12.5423 20.7223 12.5901 20.6297C12.8158 20.1918 12.9584 19.7362 12.9207 19.2358C12.9128 19.1307 12.9226 19.0244 12.9242 18.9187Z" fill="#DFA34A"/>
<path d="M12.2812 11.7342C12.2827 11.7174 12.2997 11.7181 12.3082 11.7184C12.3751 11.8974 12.4328 12.0764 12.4922 12.2548C12.5251 12.3538 12.5636 12.451 12.5946 12.5506C12.6428 12.7051 12.7152 12.8552 12.567 13.0086C12.5152 13.0623 12.5009 13.1693 12.5008 13.252C12.5007 13.3729 12.4587 13.4391 12.3289 13.4464C12.3466 13.4217 12.3963 13.4072 12.399 13.3865C12.4324 13.137 12.4655 12.8871 12.4835 12.6362C12.4898 12.5481 12.4565 12.4567 12.4384 12.3674C12.4207 12.2801 12.4016 12.193 12.3791 12.1069C12.348 11.9877 12.3131 11.8695 12.2812 11.7342Z" fill="#E4A561"/>
<path d="M6.13786 20.5929C6.10273 20.6059 6.06031 20.615 6.00876 20.6333C5.95773 20.6412 5.91584 20.6397 5.85285 20.6301C5.82341 20.6128 5.81352 20.6061 5.80208 20.6018C5.7697 20.5885 5.73732 20.5753 5.68013 20.5523C5.53015 20.5103 5.40499 20.4781 5.27982 20.4459C5.27982 20.4459 5.2765 20.4427 5.27065 20.4342C5.25774 20.4173 5.24899 20.4112 5.23857 20.4077C5.1044 20.3551 4.97023 20.3026 4.82461 20.2429C4.78639 20.1895 4.75961 20.1434 4.73193 20.0804C4.74408 20.0566 4.75712 20.0496 4.77016 20.0425C4.89034 20.1181 5.00548 20.204 5.13225 20.2661C5.23849 20.3182 5.35836 20.3424 5.47212 20.3792C5.5908 20.4176 5.70925 20.4566 5.82807 20.4945C5.92871 20.5267 6.02973 20.5577 6.13786 20.5929Z" fill="#EEBE67"/>
<path d="M3.13283 15.8828C3.12149 15.8595 3.1215 15.8435 3.12177 15.8154C3.29709 15.8889 3.46987 15.9794 3.64772 16.0585C3.98012 16.2064 4.31546 16.3477 4.66159 16.4974C4.25273 16.5593 3.94762 16.275 3.59538 16.1318C3.43822 16.0679 3.29419 15.9717 3.13283 15.8828Z" fill="#E99142"/>
<path d="M4.30025 23.0055C4.317 23.0335 4.31926 23.0591 4.32265 23.0976C3.84637 22.8575 3.3689 22.6045 2.8916 22.3513C2.85683 22.3328 2.82324 22.3122 2.78662 22.2811C2.80399 22.2603 2.82385 22.2508 2.85799 22.2413C2.90094 22.2412 2.9296 22.2411 2.95826 22.2411C2.95826 22.2411 2.9592 22.2408 2.96573 22.2528C3.04776 22.3241 3.12326 22.3834 3.19877 22.4427C3.24296 22.4685 3.28716 22.4944 3.35188 22.5317C3.4079 22.5629 3.44338 22.5826 3.47886 22.6023C3.74783 22.7359 4.01679 22.8694 4.30025 23.0055Z" fill="#DFA34A"/>
<path d="M26.3139 18.2525C26.3347 18.2845 26.3647 18.3325 26.3553 18.371C26.2817 18.6721 26.2016 18.9718 26.1199 19.2709C26.1124 19.2983 26.0795 19.3188 26.0495 19.3526C25.8401 19.1934 25.8622 18.9535 25.8052 18.7292C25.8436 18.7909 25.8883 18.867 25.922 18.9477C25.9538 19.0239 25.9738 19.105 26.0429 19.1818C26.1302 18.8759 26.2174 18.57 26.3139 18.2525Z" fill="#082C4A"/>
<path d="M10.7192 22.6388C10.7983 22.5763 10.8755 22.5113 10.9567 22.4517C11.2536 22.2339 11.552 22.0178 11.8647 21.8103C11.8803 21.8279 11.881 21.8364 11.8816 21.8448C11.6335 22.2045 11.2323 22.3629 10.8898 22.5984C10.8471 22.6277 10.7984 22.6484 10.7375 22.6684C10.7214 22.6554 10.7203 22.6471 10.7192 22.6388Z" fill="#DFA34A"/>
<path d="M10.0343 15.0002C10.0359 14.9916 10.0375 14.983 10.0415 14.9614C10.2138 15.0094 10.3929 15.0526 10.5509 15.1358C10.7457 15.2383 10.9229 15.3742 11.1151 15.5069C11.1216 15.5249 11.1207 15.5316 11.1032 15.5483C11.0256 15.5363 10.9599 15.5225 10.9044 15.4908C10.7108 15.3804 10.5219 15.2617 10.3287 15.1504C10.2334 15.0955 10.1326 15.05 10.0343 15.0002Z" fill="#DFA34A"/>
<path d="M7.68777 17.3652C7.67796 17.3387 7.67887 17.3227 7.67999 17.2948C8.03426 17.4011 8.43065 17.3788 8.74629 17.6207C8.72486 17.6361 8.70904 17.6367 8.69322 17.6373C8.36165 17.5501 8.03007 17.4629 7.68777 17.3652Z" fill="#E99142"/>
<path d="M2.84373 22.2414C2.82387 22.2508 2.80402 22.2603 2.77481 22.2753C2.50873 22.0248 2.252 21.7688 1.99451 21.4848C1.9954 21.4374 1.99706 21.4179 1.99873 21.3985C2.22796 21.6299 2.45634 21.8623 2.68743 22.0919C2.71859 22.1228 2.76336 22.1401 2.81816 22.1781C2.83757 22.2087 2.84065 22.225 2.84373 22.2414Z" fill="#EEBE67"/>
<path d="M9.33044 12.1669C9.40746 12.2826 9.5178 12.4052 9.55494 12.547C9.62942 12.8313 9.66391 13.126 9.71467 13.4311C9.70858 13.4427 9.69867 13.4407 9.69748 13.4363C9.62871 13.1842 9.56377 12.931 9.49144 12.6799C9.44324 12.5126 9.38461 12.3482 9.33044 12.1669Z" fill="#DFA34A"/>
<path d="M1.5157 12.097C1.50397 12.0517 1.49451 11.9927 1.4852 11.9202C1.42685 11.5456 1.62614 11.2698 1.81135 10.9717C1.84736 10.9616 1.86343 10.9626 1.87949 10.9636C1.83077 11.0694 1.79135 11.1807 1.73151 11.2797C1.58146 11.528 1.5215 11.7974 1.5157 12.097Z" fill="#E4A561"/>
<path d="M1.89079 10.9555C1.86355 10.9626 1.84748 10.9616 1.81934 10.9604C1.99824 10.6715 2.18924 10.3828 2.3995 10.0953C2.42641 10.1184 2.43405 10.1402 2.44169 10.1621C2.44169 10.1621 2.43827 10.1795 2.42977 10.1936C2.41259 10.2162 2.40643 10.2262 2.40278 10.2378C2.40278 10.2378 2.40044 10.2404 2.39008 10.2472C2.36095 10.2759 2.34217 10.2978 2.3234 10.3197C2.18293 10.5289 2.04245 10.7381 1.89079 10.9555Z" fill="#EEBE67"/>
<path d="M8.70496 17.6433C8.70908 17.6367 8.7249 17.6361 8.75234 17.6327C8.97991 17.713 9.19586 17.796 9.43418 17.888C9.47685 17.9045 9.49713 17.912 9.51741 17.9196C9.5645 17.9695 9.61158 18.0193 9.66938 18.0908C9.67994 18.1422 9.67977 18.172 9.67961 18.2017C9.35862 18.0176 9.03763 17.8334 8.70496 17.6433Z" fill="#DFA34A"/>
<path d="M9.5531 8.89525C9.56014 8.88202 9.57526 8.88073 9.60117 8.87841C9.84217 8.97644 10.0724 9.07549 10.3115 9.18477C10.3678 9.2416 10.4151 9.28821 10.4677 9.34572C10.1691 9.20681 9.86515 9.057 9.5531 8.89525Z" fill="#DFA34A"/>
<path d="M9.12072 20.3609C9.13616 20.363 9.15034 20.3649 9.15739 20.3663C9.02066 20.6108 8.73494 20.6619 8.60022 20.4552C8.64257 20.4163 8.68682 20.3726 8.73496 20.3678C8.85747 20.3555 8.98172 20.3606 9.12072 20.3609Z" fill="#EC9526"/>
<path d="M5.43173 16.7495C5.35816 16.7733 5.27665 16.7853 5.18178 16.7979C5.05426 16.7173 4.94011 16.6362 4.8175 16.5436C5.01396 16.6006 5.21888 16.6692 5.43173 16.7495Z" fill="#EC9526"/>
<path d="M2.45028 10.1607C2.43395 10.1402 2.42631 10.1184 2.41064 10.088C2.48953 9.94269 2.55686 9.78614 2.66918 9.67508C2.76916 9.57623 2.91895 9.52778 3.06078 9.45373C3.0748 9.45038 3.07603 9.46551 3.06797 9.47474C3.05352 9.50913 3.04713 9.53429 3.04074 9.55946C3.04074 9.55946 3.03973 9.55984 3.02467 9.56053C2.7087 9.64928 2.54626 9.8614 2.47634 10.1564C2.47634 10.1564 2.45897 10.1593 2.45028 10.1607Z" fill="#E4A561"/>
<path d="M28.2071 19.3888C28.1861 19.369 28.157 19.3326 28.1652 19.3091C28.2565 19.0476 28.3535 18.7882 28.4618 18.5235C28.3887 18.8052 28.3026 19.0917 28.2071 19.3888Z" fill="#082C4A"/>
<path d="M10.7052 22.6429C10.7203 22.6471 10.7214 22.6554 10.7254 22.676C10.6053 22.8669 10.4081 22.9102 10.2124 22.9519C10.2081 22.9209 10.2101 22.9055 10.212 22.8902C10.212 22.8902 10.2261 22.8859 10.233 22.8831C10.3903 22.8026 10.5408 22.7248 10.7052 22.6429Z" fill="#EEBE67"/>
<path d="M1.13637 17.9628C1.03991 18.0344 0.954991 18.1041 0.862468 18.1832C0.834791 17.9521 0.961481 17.8269 1.26778 17.8128C1.28536 17.8314 1.28637 17.8382 1.28738 17.845C1.28738 17.845 1.28473 17.8625 1.27066 17.874C1.23593 17.909 1.21526 17.9325 1.19459 17.956C1.17903 17.9576 1.16347 17.9593 1.13637 17.9628Z" fill="#DFA34A"/>
<path d="M1.99715 21.3845C1.99707 21.4179 1.9954 21.4374 1.9913 21.4711C1.87186 21.3071 1.75487 21.1289 1.6344 20.9363C1.75248 21.0715 1.87402 21.221 1.99715 21.3845Z" fill="#DFA34A"/>
<path d="M1.91367 17.6417C1.9462 17.6434 1.96001 17.645 1.98409 17.6481C1.81476 17.6913 1.63515 17.733 1.4436 17.7662C1.55506 17.5951 1.73583 17.6616 1.91367 17.6417Z" fill="#F6A42E"/>
<path d="M10.1987 22.892C10.2102 22.9055 10.2082 22.9209 10.205 22.9478C10.0948 22.9999 9.98584 23.0404 9.86234 23.082C9.81618 23.0821 9.7846 23.0811 9.7373 23.0789C9.87615 23.0165 10.0307 22.9551 10.1987 22.892Z" fill="#F6A42E"/>
<path d="M11.9939 21.6364C12.1075 21.5049 12.2211 21.3734 12.3489 21.2417C12.2505 21.3977 12.1381 21.5538 12.0124 21.7146C11.9992 21.7193 11.9967 21.7167 11.9968 21.7033C11.996 21.6721 11.9949 21.6543 11.9939 21.6364Z" fill="#E4A561"/>
<path d="M3.67808 17.9469C3.65866 17.9628 3.64095 17.9638 3.60998 17.9665C3.55389 17.9285 3.51105 17.8889 3.45767 17.8429C3.39764 17.7908 3.34816 17.7451 3.28918 17.6902C3.49064 17.641 3.62425 17.7243 3.67808 17.9469Z" fill="#EEBE67"/>
<path d="M29.1324 16.151C29.1542 15.9743 29.0631 15.7602 29.2583 15.6023C29.2285 15.7791 29.1855 15.96 29.1324 16.151Z" fill="#082C4A"/>
<path d="M9.6798 18.2008C9.67975 18.172 9.67991 18.1422 9.68033 18.0976C9.84219 18.1371 9.93729 18.2373 9.90975 18.4363C9.9066 18.4528 9.8889 18.4436 9.88359 18.4212C9.83829 18.3592 9.79831 18.3197 9.75832 18.2801C9.75832 18.2801 9.76033 18.2797 9.75682 18.2686C9.72824 18.2384 9.70317 18.2193 9.6781 18.2002C9.6781 18.2002 9.68002 18.1998 9.6798 18.2008Z" fill="#EC902A"/>
<path d="M25.547 17.5077C25.4778 17.4781 25.4095 17.4341 25.3168 17.3743C25.3745 17.3393 25.4136 17.3156 25.4643 17.2862C25.4999 17.3515 25.5239 17.4224 25.547 17.5077Z" fill="#082C4A"/>
<path d="M4.76313 20.0335C4.7572 20.0496 4.74416 20.0566 4.72567 20.0686C4.66427 20.0176 4.6083 19.9616 4.54749 19.8909C4.61376 19.9257 4.68489 19.9751 4.76313 20.0335Z" fill="#DFA34A"/>
<path d="M12.475 20.953C12.4827 20.9544 12.4904 20.9557 12.5096 20.9592C12.476 21.0508 12.4309 21.1401 12.3738 21.2358C12.3712 21.1838 12.3805 21.1255 12.4009 21.0468C12.422 21.017 12.4318 21.0075 12.4487 20.9928C12.4645 20.9797 12.4714 20.9705 12.4755 20.9582C12.4746 20.9566 12.475 20.953 12.475 20.953Z" fill="#E4A561"/>
<path d="M28.083 19.8677C28.0891 19.8006 28.1052 19.7236 28.1334 19.642C28.1281 19.7109 28.1105 19.7843 28.083 19.8677Z" fill="#082C4A"/>
<path d="M25.7967 18.6253C25.7765 18.5688 25.7585 18.4965 25.7487 18.4124C25.7708 18.4702 25.7848 18.5398 25.7967 18.6253Z" fill="#082C4A"/>
<path d="M25.466 17.1884C25.4389 17.1407 25.4129 17.0794 25.3943 17.0083C25.4234 17.0574 25.4452 17.1161 25.466 17.1884Z" fill="#082C4A"/>
<path d="M9.76294 18.2913C9.79825 18.3197 9.83824 18.3592 9.87972 18.4119C9.84335 18.3843 9.80548 18.3434 9.76294 18.2913Z" fill="#DFA34A"/>
<path d="M25.7454 18.308C25.7219 18.2637 25.7011 18.2057 25.6809 18.1325C25.7038 18.1764 25.726 18.2353 25.7454 18.308Z" fill="#082C4A"/>
<path d="M12.9707 17.9695C12.964 17.9141 12.9621 17.8457 12.9613 17.7654C12.9667 17.8212 12.9712 17.8889 12.9707 17.9695Z" fill="#DFA34A"/>
<path d="M23.629 10.709C23.6105 10.6885 23.5946 10.6549 23.5847 10.6124C23.6044 10.6342 23.618 10.665 23.629 10.709Z" fill="#082C4A"/>
<path d="M26.3832 17.9972C26.382 18.0285 26.3714 18.0686 26.3503 18.1153C26.3512 18.0832 26.3625 18.0446 26.3832 17.9972Z" fill="#082C4A"/>
<path d="M1.29639 17.8423C1.28644 17.8382 1.28543 17.8314 1.28406 17.8144C1.30321 17.7989 1.32274 17.7936 1.35233 17.7907C1.34338 17.8086 1.32435 17.8241 1.29639 17.8423Z" fill="#F6A42E"/>
<path d="M25.6269 17.831C25.6124 17.8198 25.5992 17.7973 25.592 17.7675C25.6081 17.7801 25.6181 17.7999 25.6269 17.831Z" fill="#082C4A"/>
<path d="M12.5119 16.9483C12.4901 16.9314 12.4655 16.9036 12.4402 16.8643C12.4626 16.8809 12.4858 16.9092 12.5119 16.9483Z" fill="#E4A561"/>
<path d="M5.85248 11.312C5.84049 11.3166 5.84116 11.2992 5.8425 11.2907C5.87238 11.2754 5.90091 11.2687 5.93865 11.2629C5.92006 11.2784 5.89227 11.293 5.85248 11.312Z" fill="#E99142"/>
<path d="M25.6628 17.9914C25.6487 17.9799 25.6372 17.9573 25.6315 17.9277C25.6467 17.9405 25.656 17.9604 25.6628 17.9914Z" fill="#082C4A"/>
<path d="M23.5477 10.3908C23.5332 10.3794 23.5205 10.3567 23.514 10.3269C23.53 10.3396 23.5397 10.3596 23.5477 10.3908Z" fill="#082C4A"/>
<path d="M9.68262 18.2113C9.7032 18.2193 9.72827 18.2384 9.75664 18.2696C9.73566 18.2619 9.71138 18.2421 9.68262 18.2113Z" fill="#DFA34A"/>
<path d="M28.0455 20.0314C28.0399 20.0149 28.0421 19.9901 28.0521 19.9615C28.0577 19.9794 28.0555 20.0012 28.0455 20.0314Z" fill="#082C4A"/>
<path d="M9.96473 18.5049C9.97016 18.516 9.96462 18.5273 9.96299 18.5334C9.94369 18.5164 9.92601 18.4933 9.90564 18.4595C9.92173 18.4638 9.94052 18.4788 9.96473 18.5049Z" fill="#DFA34A"/>
<path d="M4.85983 13.4714C4.85408 13.4717 4.84828 13.4628 4.84241 13.4448C4.85091 13.4428 4.85673 13.4516 4.85983 13.4714Z" fill="#DFA34A"/>
<path d="M11.8924 21.8394C11.8811 21.8364 11.8804 21.8279 11.8781 21.8068C11.8852 21.7937 11.894 21.7933 11.9162 21.7936C11.9207 21.8076 11.9119 21.8208 11.8924 21.8394Z" fill="#E4A561"/>
<path d="M11.9654 21.7654C11.9536 21.7611 11.9529 21.752 11.9638 21.73C11.9826 21.7169 11.9896 21.7168 11.9967 21.7167C11.9967 21.7167 11.9992 21.7193 12.0005 21.7206C11.9933 21.7348 11.9848 21.7477 11.9654 21.7654Z" fill="#E4A561"/>
<path d="M1.60046 20.8893C1.60907 20.888 1.61853 20.8987 1.63369 20.9185C1.62669 20.9188 1.61401 20.91 1.60046 20.8893Z" fill="#DFA34A"/>
<path d="M12.5274 20.9572C12.5252 20.9528 12.5299 20.9442 12.5388 20.9294C12.5454 20.9347 12.5425 20.9446 12.5274 20.9572Z" fill="#E4A561"/>
<path d="M8.06224 14.4423C8.49873 14.5687 8.91756 14.6943 9.34596 14.8387C9.32767 14.8803 9.2998 14.9031 9.30115 14.902C9.47463 14.9915 9.65574 15.0849 9.8368 15.1783C10.254 15.3937 10.6764 15.5996 11.0868 15.8274C11.4246 16.0149 11.7046 16.275 11.92 16.5996C11.8438 16.5487 11.7641 16.5022 11.6919 16.4461C11.4943 16.2927 11.3008 16.1339 11.1028 15.9808C11.0763 15.9603 11.0222 15.9409 11.0006 15.9539C10.8458 16.0468 10.7255 15.9744 10.5943 15.8959C10.5261 15.8551 10.4351 15.8525 10.3451 15.8304C10.2693 15.6226 10.2007 15.5941 9.93198 15.6841C9.96482 15.7328 10.0059 15.7749 10.0209 15.8247C10.0277 15.8472 9.98871 15.8994 9.95905 15.9128C9.92236 15.9294 9.8641 15.9365 9.83209 15.9182C9.71057 15.8486 9.59589 15.7671 9.46499 15.6811C9.53166 15.6487 9.61258 15.6093 9.67501 15.579C9.55952 15.5276 9.44983 15.4669 9.33269 15.4293C9.10967 15.3579 8.87936 15.3087 8.65766 15.2338C8.38178 15.1405 8.1155 15.0178 7.83768 14.9317C7.59769 14.8573 7.34555 14.8231 7.10201 14.7589C6.6909 14.6506 6.28728 14.5065 5.87098 14.4279C5.59474 14.3758 5.34336 14.306 5.12886 14.1243C5.00298 14.0176 5.00437 13.8775 5.14487 13.7617C5.18405 13.7444 5.20786 13.729 5.23551 13.7032C5.45466 13.7719 5.66599 13.8651 5.88611 13.927C6.28722 14.0397 6.6926 14.1378 7.09799 14.2345C7.41211 14.3094 7.72895 14.3729 8.06224 14.4423Z" fill="#FD8C19"/>
<path d="M12.4418 20.998C12.4319 21.0075 12.422 21.017 12.4035 21.0321C12.2329 21.0729 12.1171 21.1518 12.0384 21.3117C11.8655 21.6633 11.5891 21.9173 11.2154 22.0789C11.1714 22.0076 11.1419 21.9354 11.0942 21.8188C11.2321 21.6554 11.3919 21.4256 11.5914 21.2381C11.9753 20.8774 12.1187 20.402 12.267 19.9274C12.3655 19.6123 12.4764 19.2953 12.5211 18.9707C12.6061 18.3537 12.5024 17.7537 12.2431 17.1841C12.1772 17.0395 12.1098 16.8957 12.0537 16.7438C12.0878 16.7585 12.1164 16.7776 12.1339 16.8041C12.2585 16.9934 12.3789 17.1856 12.5062 17.3731C12.5259 17.4023 12.5737 17.4125 12.6085 17.4315C12.6728 17.5795 12.7673 17.7221 12.7953 17.8767C12.8556 18.2089 12.8817 18.5473 12.923 18.901C12.9226 19.0244 12.9129 19.1307 12.9208 19.2358C12.9584 19.7362 12.8158 20.1918 12.5901 20.6297C12.5424 20.7223 12.5143 20.8251 12.4761 20.9381C12.4751 20.953 12.4747 20.9566 12.4679 20.9627C12.4518 20.9766 12.4453 20.9863 12.4418 20.998ZM11.479 21.7005C11.4304 21.7431 11.3817 21.7857 11.3331 21.8282C11.3514 21.8503 11.3697 21.8724 11.388 21.8944C11.4698 21.8308 11.5516 21.7671 11.6334 21.7034C11.6227 21.6864 11.612 21.6694 11.6013 21.6524C11.5675 21.6626 11.5337 21.6727 11.479 21.7005Z" fill="#EB871C"/>
<path d="M12.6067 17.4167C12.5736 17.4125 12.5259 17.4023 12.5061 17.3731C12.3788 17.1856 12.2585 16.9934 12.1338 16.8041C12.1163 16.7776 12.0877 16.7585 12.0528 16.7292C12.0081 16.6858 11.9747 16.649 11.9307 16.606C11.7045 16.275 11.4245 16.0149 11.0867 15.8274C10.6764 15.5996 10.2539 15.3937 9.83672 15.1783C9.65566 15.0849 9.47456 14.9915 9.30107 14.902C9.29972 14.9031 9.32759 14.8803 9.35817 14.8475C9.57693 14.8905 9.793 14.9434 10.0216 14.9982C10.1325 15.05 10.2333 15.0955 10.3286 15.1504C10.5218 15.2617 10.7107 15.3804 10.9043 15.4908C10.9598 15.5225 11.0255 15.5363 11.1014 15.5583C11.1267 15.5693 11.137 15.5802 11.1585 15.6056C11.1756 15.6272 11.1828 15.6329 11.1913 15.6369C11.519 15.9666 11.8538 16.2895 12.1709 16.6291C12.2999 16.7673 12.3904 16.9416 12.5093 17.1065C12.5484 17.2098 12.5767 17.3059 12.6067 17.4167Z" fill="#FE951E"/>
<path d="M11.7222 10.6904C11.8571 10.9202 11.9912 11.1666 12.1264 11.4289C12.0961 11.4432 12.0647 11.4416 12.0178 11.4399C11.9086 11.1955 11.8149 10.9513 11.7222 10.6904Z" fill="#EB871C"/>
<path d="M11.4055 10.2896C11.4977 10.3727 11.5879 10.4719 11.6813 10.5847C11.4769 10.61 11.4088 10.4881 11.4055 10.2896Z" fill="#FE951E"/>
<path d="M11.2415 10.093C11.2948 10.1343 11.3476 10.1908 11.4034 10.2603C11.3513 10.2182 11.2961 10.1632 11.2415 10.093Z" fill="#FE951E"/>
<path d="M11.1193 9.93896C11.1579 9.96774 11.1975 10.0103 11.2397 10.0656C11.2016 10.0364 11.1609 9.99458 11.1193 9.93896Z" fill="#FE951E"/>
<path d="M10.965 9.80975C11.002 9.82766 11.0407 9.85937 11.0835 9.90357C11.0473 9.88522 11.0069 9.85438 10.965 9.80975Z" fill="#FE951E"/>
<path d="M10.5635 9.42384C10.5926 9.42902 10.6269 9.4446 10.666 9.4712C10.6368 9.46623 10.6027 9.45024 10.5635 9.42384Z" fill="#DFA34A"/>
<path d="M10.8854 9.72613C10.9079 9.73329 10.9324 9.75327 10.9604 9.78501C10.9384 9.77749 10.9129 9.75822 10.8854 9.72613Z" fill="#FE951E"/>
<path d="M8.47199 23.3651C8.47305 23.3708 8.46458 23.3798 8.44634 23.392C8.44555 23.3865 8.45418 23.3776 8.47199 23.3651Z" fill="#EC902A"/>
<path d="M2.49207 10.1571C2.54629 9.8614 2.70874 9.64928 3.02451 9.56103C2.90523 9.74881 2.77393 9.93894 2.63388 10.1224C2.61272 10.1501 2.55081 10.1467 2.49207 10.1571Z" fill="#F6A42E"/>
<path d="M3.05101 9.55745C3.04718 9.53429 3.05357 9.50913 3.06894 9.48227C3.07237 9.50554 3.0668 9.53048 3.05101 9.55745Z" fill="#F6A42E"/>
<path d="M2.33459 10.3166C2.34214 10.2978 2.36091 10.2759 2.38924 10.2488C2.38114 10.2669 2.36348 10.2902 2.33459 10.3166Z" fill="#F6A42E"/>
<path d="M2.4097 10.2323C2.40635 10.2262 2.41251 10.2162 2.42831 10.2023C2.43162 10.2085 2.42537 10.2184 2.4097 10.2323Z" fill="#F6A42E"/>
<path d="M5.28503 20.4584C5.40505 20.4781 5.53021 20.5103 5.6667 20.5515C5.54875 20.5306 5.41947 20.5008 5.28503 20.4584Z" fill="#E99142"/>
<path d="M9.51573 17.9096C9.49704 17.9121 9.47676 17.9045 9.44885 17.889C9.46553 17.8873 9.48984 17.8934 9.51573 17.9096Z" fill="#EC902A"/>
<path d="M5.24341 20.414C5.24902 20.4112 5.25777 20.4173 5.26917 20.4324C5.26384 20.4345 5.2554 20.4282 5.24341 20.414Z" fill="#E99142"/>
<path d="M5.80737 20.6091C5.81357 20.6061 5.82346 20.6128 5.83721 20.629C5.83096 20.6322 5.82096 20.6256 5.80737 20.6091Z" fill="#E99142"/>
<path d="M3.19652 22.4287C3.12331 22.3834 3.0478 22.3241 2.96594 22.2533C3.0378 22.2994 3.11602 22.3571 3.19652 22.4287Z" fill="#F6A42E"/>
<path d="M3.47698 22.59C3.44336 22.5826 3.40787 22.5629 3.36523 22.5329C3.3971 22.5409 3.43611 22.5593 3.47698 22.59Z" fill="#F6A42E"/>
<path d="M2.85804 22.2413C2.84067 22.225 2.83759 22.2087 2.83215 22.1803C2.8701 22.1836 2.9104 22.1991 2.95451 22.2278C2.92965 22.2411 2.90099 22.2412 2.85804 22.2413Z" fill="#F6A42E"/>
<path d="M1.20728 17.9543C1.21533 17.9325 1.236 17.909 1.26866 17.8826C1.2604 17.9041 1.24014 17.9283 1.20728 17.9543Z" fill="#F6A42E"/>
<path d="M12.1698 11.5098C12.1621 11.5242 12.1528 11.5368 12.1436 11.5494C12.147 11.5389 12.1504 11.5285 12.1594 11.5113C12.165 11.5045 12.1682 11.508 12.1698 11.5098Z" fill="#EB871C"/>
<path d="M11.9967 21.7033C11.9895 21.7168 11.9825 21.7169 11.9648 21.7164C11.9623 21.6948 11.9703 21.6739 11.9861 21.6447C11.9948 21.6543 11.9959 21.6721 11.9967 21.7033Z" fill="#DFA34A"/>
<path d="M11.1879 15.6309C11.1829 15.6329 11.1757 15.6272 11.1659 15.6142C11.171 15.6119 11.1784 15.6174 11.1879 15.6309Z" fill="#DFA34A"/>
<path d="M12.4488 20.9928C12.4453 20.9863 12.4518 20.9766 12.4689 20.9643C12.4715 20.9705 12.4646 20.9797 12.4488 20.9928Z" fill="#DFA34A"/>
<path d="M11.4895 21.6917C11.5337 21.6727 11.5675 21.6626 11.6013 21.6524C11.612 21.6694 11.6227 21.6864 11.6334 21.7034C11.5516 21.7671 11.4698 21.8308 11.388 21.8944C11.3697 21.8724 11.3514 21.8503 11.3331 21.8282C11.3818 21.7857 11.4304 21.7431 11.4895 21.6917Z" fill="#FD880F"/>
</g>
<defs>
<clipPath id="clip0_2089_2">
<rect width="32" height="32" fill="white"/>
</clipPath>
</defs>
</svg>
